solid OpenSCAD_Model
  facet normal 0.994522 0.104529 0
    outer loop
      vertex 100 0 110
      vertex 97.8148 20.7912 100
      vertex 97.8148 20.7912 110
    endloop
  endfacet
  facet normal 0.994522 0.104529 0
    outer loop
      vertex 97.8148 20.7912 100
      vertex 100 0 110
      vertex 100 0 100
    endloop
  endfacet
  facet normal -0.994522 0.104529 0
    outer loop
      vertex -100 0 100
      vertex -97.8148 20.7912 110
      vertex -97.8148 20.7912 100
    endloop
  endfacet
  facet normal -0.994522 0.104529 0
    outer loop
      vertex -97.8148 20.7912 110
      vertex -100 0 100
      vertex -100 0 110
    endloop
  endfacet
  facet normal 0 1 -0
    outer loop
      vertex 10.4528 99.4522 100
      vertex -10.4528 99.4522 110
      vertex 10.4528 99.4522 110
    endloop
  endfacet
  facet normal 0 1 0
    outer loop
      vertex -10.4528 99.4522 110
      vertex 10.4528 99.4522 100
      vertex -10.4528 99.4522 100
    endloop
  endfacet
  facet normal 0.587785 0.809017 -0
    outer loop
      vertex 66.9131 74.3145 100
      vertex 50 86.6025 110
      vertex 66.9131 74.3145 110
    endloop
  endfacet
  facet normal 0.587785 0.809017 0
    outer loop
      vertex 50 86.6025 110
      vertex 66.9131 74.3145 100
      vertex 50 86.6025 100
    endloop
  endfacet
  facet normal -0.587785 0.809017 0
    outer loop
      vertex -50 86.6025 100
      vertex -66.9131 74.3145 110
      vertex -50 86.6025 110
    endloop
  endfacet
  facet normal -0.587785 0.809017 0
    outer loop
      vertex -66.9131 74.3145 110
      vertex -50 86.6025 100
      vertex -66.9131 74.3145 100
    endloop
  endfacet
  facet normal -0.406737 0.913545 0
    outer loop
      vertex -30.9017 95.1057 100
      vertex -50 86.6025 110
      vertex -30.9017 95.1057 110
    endloop
  endfacet
  facet normal -0.406737 0.913545 0
    outer loop
      vertex -50 86.6025 110
      vertex -30.9017 95.1057 100
      vertex -50 86.6025 100
    endloop
  endfacet
  facet normal 0 0 -1
    outer loop
      vertex -71.9098 5.87785 100
      vertex -5 71.3397 100
      vertex -70.8645 4.06737 100
    endloop
  endfacet
  facet normal -0 0 -1
    outer loop
      vertex -5 71.3397 100
      vertex -71.9098 5.87785 100
      vertex -6.69131 72.5686 100
    endloop
  endfacet
  facet normal -0 0 -1
    outer loop
      vertex -6.69131 72.5686 100
      vertex -71.9098 5.87785 100
      vertex -66.9131 74.3145 100
    endloop
  endfacet
  facet normal 0 0 -1
    outer loop
      vertex -73.3087 7.43145 100
      vertex -66.9131 74.3145 100
      vertex -71.9098 5.87785 100
    endloop
  endfacet
  facet normal 0 0 -1
    outer loop
      vertex -80.9017 58.7785 100
      vertex -73.3087 7.43145 100
      vertex -75 8.66025 100
    endloop
  endfacet
  facet normal 0 0 -1
    outer loop
      vertex -91.3545 40.6737 100
      vertex -75 8.66025 100
      vertex -76.9098 9.51056 100
    endloop
  endfacet
  facet normal 0 0 -1
    outer loop
      vertex -91.3545 40.6737 100
      vertex -76.9098 9.51056 100
      vertex -78.9547 9.94522 100
    endloop
  endfacet
  facet normal 0 0 -1
    outer loop
      vertex -73.3087 7.43145 100
      vertex -80.9017 58.7785 100
      vertex -66.9131 74.3145 100
    endloop
  endfacet
  facet normal 0 0 -1
    outer loop
      vertex -91.3545 40.6737 100
      vertex -78.9547 9.94522 100
      vertex -81.0453 9.94522 100
    endloop
  endfacet
  facet normal 0 0 -1
    outer loop
      vertex -97.8148 20.7912 100
      vertex -81.0453 9.94522 100
      vertex -83.0902 9.51056 100
    endloop
  endfacet
  facet normal 0 0 -1
    outer loop
      vertex -97.8148 20.7912 100
      vertex -83.0902 9.51056 100
      vertex -85 8.66025 100
    endloop
  endfacet
  facet normal 0 0 -1
    outer loop
      vertex -97.8148 20.7912 100
      vertex -85 8.66025 100
      vertex -86.6913 7.43145 100
    endloop
  endfacet
  facet normal 0 0 -1
    outer loop
      vertex -97.8148 20.7912 100
      vertex -86.6913 7.43145 100
      vertex -88.0902 5.87785 100
    endloop
  endfacet
  facet normal 0 0 -1
    outer loop
      vertex -97.8148 20.7912 100
      vertex -88.0902 5.87785 100
      vertex -89.1355 4.06737 100
    endloop
  endfacet
  facet normal 0 0 -1
    outer loop
      vertex -100 0 100
      vertex -89.1355 4.06737 100
      vertex -89.7815 2.07912 100
    endloop
  endfacet
  facet normal 0 0 -1
    outer loop
      vertex -75 8.66025 100
      vertex -91.3545 40.6737 100
      vertex -80.9017 58.7785 100
    endloop
  endfacet
  facet normal 0 0 -1
    outer loop
      vertex -100 0 100
      vertex -89.7815 2.07912 100
      vertex -90 0 100
    endloop
  endfacet
  facet normal 0 0 -1
    outer loop
      vertex -89.1355 -4.06737 100
      vertex -100 0 100
      vertex -89.7815 -2.07912 100
    endloop
  endfacet
  facet normal 0 0 -1
    outer loop
      vertex -89.7815 -2.07912 100
      vertex -100 0 100
      vertex -90 0 100
    endloop
  endfacet
  facet normal 0 0 -1
    outer loop
      vertex -81.0453 9.94522 100
      vertex -97.8148 20.7912 100
      vertex -91.3545 40.6737 100
    endloop
  endfacet
  facet normal -0 0 -1
    outer loop
      vertex -89.1355 4.06737 100
      vertex -100 0 100
      vertex -97.8148 20.7912 100
    endloop
  endfacet
  facet normal 0 0 -1
    outer loop
      vertex 5 -71.3397 100
      vertex 71.9098 -5.87785 100
      vertex 6.69131 -72.5686 100
    endloop
  endfacet
  facet normal 0 0 -1
    outer loop
      vertex 70 0 100
      vertex 9.78148 77.9209 100
      vertex 10 80 100
    endloop
  endfacet
  facet normal -0 0 -1
    outer loop
      vertex 71.9098 -5.87785 100
      vertex 5 -71.3397 100
      vertex 70.8645 -4.06737 100
    endloop
  endfacet
  facet normal 0 0 -1
    outer loop
      vertex 70 0 100
      vertex 9.13545 75.9326 100
      vertex 9.78148 77.9209 100
    endloop
  endfacet
  facet normal 0 0 -1
    outer loop
      vertex 3.09017 -70.4894 100
      vertex 70.8645 -4.06737 100
      vertex 5 -71.3397 100
    endloop
  endfacet
  facet normal 0 0 -1
    outer loop
      vertex 70 0 100
      vertex 8.09017 74.1221 100
      vertex 9.13545 75.9326 100
    endloop
  endfacet
  facet normal -0 0 -1
    outer loop
      vertex 70.8645 -4.06737 100
      vertex 3.09017 -70.4894 100
      vertex 70.2185 -2.07912 100
    endloop
  endfacet
  facet normal 0 0 -1
    outer loop
      vertex 70 0 100
      vertex 6.69131 72.5686 100
      vertex 8.09017 74.1221 100
    endloop
  endfacet
  facet normal 0 0 -1
    outer loop
      vertex 1.04528 -70.0548 100
      vertex 70.2185 -2.07912 100
      vertex 3.09017 -70.4894 100
    endloop
  endfacet
  facet normal 0 0 -1
    outer loop
      vertex 70 0 100
      vertex 5 71.3397 100
      vertex 6.69131 72.5686 100
    endloop
  endfacet
  facet normal -0 0 -1
    outer loop
      vertex 70.2185 -2.07912 100
      vertex 1.04528 -70.0548 100
      vertex 70 0 100
    endloop
  endfacet
  facet normal 0 0 -1
    outer loop
      vertex 70 0 100
      vertex 3.09017 70.4894 100
      vertex 5 71.3397 100
    endloop
  endfacet
  facet normal 0 0 -1
    outer loop
      vertex 1.04528 70.0548 100
      vertex 70 0 100
      vertex 1.04528 -70.0548 100
    endloop
  endfacet
  facet normal 0 0 -1
    outer loop
      vertex 70 0 100
      vertex 1.04528 70.0548 100
      vertex 3.09017 70.4894 100
    endloop
  endfacet
  facet normal 0 0 -1
    outer loop
      vertex -1.04528 -70.0548 100
      vertex 1.04528 70.0548 100
      vertex 1.04528 -70.0548 100
    endloop
  endfacet
  facet normal 0 0 -1
    outer loop
      vertex -1.04528 -70.0548 100
      vertex -1.04528 70.0548 100
      vertex 1.04528 70.0548 100
    endloop
  endfacet
  facet normal 0 0 -1
    outer loop
      vertex -70 0 100
      vertex -1.04528 -70.0548 100
      vertex -3.09017 -70.4894 100
    endloop
  endfacet
  facet normal 0 0 -1
    outer loop
      vertex -1.04528 -70.0548 100
      vertex -70 0 100
      vertex -1.04528 70.0548 100
    endloop
  endfacet
  facet normal 0 0 -1
    outer loop
      vertex -70 0 100
      vertex -3.09017 -70.4894 100
      vertex -5 -71.3397 100
    endloop
  endfacet
  facet normal 0 0 -1
    outer loop
      vertex -70.2185 2.07912 100
      vertex -1.04528 70.0548 100
      vertex -70 0 100
    endloop
  endfacet
  facet normal 0 0 -1
    outer loop
      vertex -70 0 100
      vertex -5 -71.3397 100
      vertex -6.69131 -72.5686 100
    endloop
  endfacet
  facet normal -0 0 -1
    outer loop
      vertex -1.04528 70.0548 100
      vertex -70.2185 2.07912 100
      vertex -3.09017 70.4894 100
    endloop
  endfacet
  facet normal 0 0 -1
    outer loop
      vertex -70 0 100
      vertex -6.69131 -72.5686 100
      vertex -8.09017 -74.1221 100
    endloop
  endfacet
  facet normal 0 0 -1
    outer loop
      vertex -70.8645 4.06737 100
      vertex -3.09017 70.4894 100
      vertex -70.2185 2.07912 100
    endloop
  endfacet
  facet normal 0 0 -1
    outer loop
      vertex -70 0 100
      vertex -8.09017 -74.1221 100
      vertex -9.13545 -75.9326 100
    endloop
  endfacet
  facet normal -0 0 -1
    outer loop
      vertex -3.09017 70.4894 100
      vertex -70.8645 4.06737 100
      vertex -5 71.3397 100
    endloop
  endfacet
  facet normal 0 0 -1
    outer loop
      vertex -70 0 100
      vertex -9.13545 -75.9326 100
      vertex -9.78148 -77.9209 100
    endloop
  endfacet
  facet normal 0 0 -1
    outer loop
      vertex -6.69131 72.5686 100
      vertex -66.9131 74.3145 100
      vertex -8.09017 74.1221 100
    endloop
  endfacet
  facet normal 0 0 -1
    outer loop
      vertex -70 0 100
      vertex -9.78148 -77.9209 100
      vertex -10 -80 100
    endloop
  endfacet
  facet normal 0 -0 -1
    outer loop
      vertex -50 86.6025 100
      vertex -8.09017 74.1221 100
      vertex -66.9131 74.3145 100
    endloop
  endfacet
  facet normal 0 0 -1
    outer loop
      vertex 9.78148 82.0791 100
      vertex 30.9017 95.1057 100
      vertex 10 80 100
    endloop
  endfacet
  facet normal 0 0 -1
    outer loop
      vertex 9.13545 84.0674 100
      vertex 30.9017 95.1057 100
      vertex 9.78148 82.0791 100
    endloop
  endfacet
  facet normal -0 0 -1
    outer loop
      vertex 30.9017 95.1057 100
      vertex 9.13545 84.0674 100
      vertex 10.4528 99.4522 100
    endloop
  endfacet
  facet normal 0 0 -1
    outer loop
      vertex 8.09017 85.8779 100
      vertex 10.4528 99.4522 100
      vertex 9.13545 84.0674 100
    endloop
  endfacet
  facet normal 0 0 -1
    outer loop
      vertex 6.69131 87.4314 100
      vertex 10.4528 99.4522 100
      vertex 8.09017 85.8779 100
    endloop
  endfacet
  facet normal 0 0 -1
    outer loop
      vertex 5 88.6603 100
      vertex 10.4528 99.4522 100
      vertex 6.69131 87.4314 100
    endloop
  endfacet
  facet normal 0 0 -1
    outer loop
      vertex 3.09017 89.5106 100
      vertex 10.4528 99.4522 100
      vertex 5 88.6603 100
    endloop
  endfacet
  facet normal 0 0 -1
    outer loop
      vertex 1.04528 89.9452 100
      vertex 10.4528 99.4522 100
      vertex 3.09017 89.5106 100
    endloop
  endfacet
  facet normal 0 0 -1
    outer loop
      vertex -1.04528 89.9452 100
      vertex 10.4528 99.4522 100
      vertex 1.04528 89.9452 100
    endloop
  endfacet
  facet normal 0 0 -1
    outer loop
      vertex -10.4528 99.4522 100
      vertex -1.04528 89.9452 100
      vertex -3.09017 89.5106 100
    endloop
  endfacet
  facet normal 0 0 -1
    outer loop
      vertex -10.4528 99.4522 100
      vertex -3.09017 89.5106 100
      vertex -5 88.6603 100
    endloop
  endfacet
  facet normal 0 0 -1
    outer loop
      vertex -1.04528 89.9452 100
      vertex -10.4528 99.4522 100
      vertex 10.4528 99.4522 100
    endloop
  endfacet
  facet normal 0 0 -1
    outer loop
      vertex -6.69131 87.4314 100
      vertex -10.4528 99.4522 100
      vertex -5 88.6603 100
    endloop
  endfacet
  facet normal 0 0 -1
    outer loop
      vertex -8.09017 85.8779 100
      vertex -10.4528 99.4522 100
      vertex -6.69131 87.4314 100
    endloop
  endfacet
  facet normal 0 0 -1
    outer loop
      vertex -9.13545 84.0674 100
      vertex -10.4528 99.4522 100
      vertex -8.09017 85.8779 100
    endloop
  endfacet
  facet normal 0 0 -1
    outer loop
      vertex -30.9017 95.1057 100
      vertex -9.13545 84.0674 100
      vertex -9.78148 82.0791 100
    endloop
  endfacet
  facet normal 0 0 -1
    outer loop
      vertex -30.9017 95.1057 100
      vertex -9.78148 82.0791 100
      vertex -10 80 100
    endloop
  endfacet
  facet normal 0 0 -1
    outer loop
      vertex -8.09017 74.1221 100
      vertex -50 86.6025 100
      vertex -9.13545 75.9326 100
    endloop
  endfacet
  facet normal 0 0 -1
    outer loop
      vertex -70.8645 -4.06737 100
      vertex -10.4528 -99.4522 100
      vertex -30.9017 -95.1057 100
    endloop
  endfacet
  facet normal 0 0 -1
    outer loop
      vertex -9.13545 75.9326 100
      vertex -50 86.6025 100
      vertex -9.78148 77.9209 100
    endloop
  endfacet
  facet normal 0 0 -1
    outer loop
      vertex -70.8645 -4.06737 100
      vertex -30.9017 -95.1057 100
      vertex -50 -86.6025 100
    endloop
  endfacet
  facet normal 0 0 -1
    outer loop
      vertex -9.13545 84.0674 100
      vertex -30.9017 95.1057 100
      vertex -10.4528 99.4522 100
    endloop
  endfacet
  facet normal 0 0 -1
    outer loop
      vertex -71.9098 -5.87785 100
      vertex -50 -86.6025 100
      vertex -66.9131 -74.3145 100
    endloop
  endfacet
  facet normal 0 0 -1
    outer loop
      vertex -9.78148 77.9209 100
      vertex -30.9017 95.1057 100
      vertex -10 80 100
    endloop
  endfacet
  facet normal 0 -0 -1
    outer loop
      vertex -30.9017 95.1057 100
      vertex -9.78148 77.9209 100
      vertex -50 86.6025 100
    endloop
  endfacet
  facet normal 0 0 -1
    outer loop
      vertex -10.4528 -99.4522 100
      vertex -70.2185 -2.07912 100
      vertex -70 0 100
    endloop
  endfacet
  facet normal 0 0 -1
    outer loop
      vertex -10.4528 -99.4522 100
      vertex -70.8645 -4.06737 100
      vertex -70.2185 -2.07912 100
    endloop
  endfacet
  facet normal 0 0 -1
    outer loop
      vertex -50 -86.6025 100
      vertex -71.9098 -5.87785 100
      vertex -70.8645 -4.06737 100
    endloop
  endfacet
  facet normal 0 0 -1
    outer loop
      vertex -66.9131 -74.3145 100
      vertex -73.3087 -7.43145 100
      vertex -71.9098 -5.87785 100
    endloop
  endfacet
  facet normal 0 0 -1
    outer loop
      vertex -80.9017 -58.7785 100
      vertex -73.3087 -7.43145 100
      vertex -66.9131 -74.3145 100
    endloop
  endfacet
  facet normal 0 0 -1
    outer loop
      vertex -73.3087 -7.43145 100
      vertex -80.9017 -58.7785 100
      vertex -75 -8.66025 100
    endloop
  endfacet
  facet normal 0 0 -1
    outer loop
      vertex -91.3545 -40.6737 100
      vertex -75 -8.66025 100
      vertex -80.9017 -58.7785 100
    endloop
  endfacet
  facet normal 0 0 -1
    outer loop
      vertex -75 -8.66025 100
      vertex -91.3545 -40.6737 100
      vertex -76.9098 -9.51056 100
    endloop
  endfacet
  facet normal 0 0 -1
    outer loop
      vertex -76.9098 -9.51056 100
      vertex -91.3545 -40.6737 100
      vertex -78.9547 -9.94522 100
    endloop
  endfacet
  facet normal -0 0 -1
    outer loop
      vertex -78.9547 -9.94522 100
      vertex -91.3545 -40.6737 100
      vertex -81.0453 -9.94522 100
    endloop
  endfacet
  facet normal 0 0 -1
    outer loop
      vertex -97.8148 -20.7912 100
      vertex -81.0453 -9.94522 100
      vertex -91.3545 -40.6737 100
    endloop
  endfacet
  facet normal -0 0 -1
    outer loop
      vertex -81.0453 -9.94522 100
      vertex -97.8148 -20.7912 100
      vertex -83.0902 -9.51056 100
    endloop
  endfacet
  facet normal -0 0 -1
    outer loop
      vertex -83.0902 -9.51056 100
      vertex -97.8148 -20.7912 100
      vertex -85 -8.66025 100
    endloop
  endfacet
  facet normal -0 0 -1
    outer loop
      vertex -85 -8.66025 100
      vertex -97.8148 -20.7912 100
      vertex -86.6913 -7.43145 100
    endloop
  endfacet
  facet normal -0 0 -1
    outer loop
      vertex -86.6913 -7.43145 100
      vertex -97.8148 -20.7912 100
      vertex -88.0902 -5.87785 100
    endloop
  endfacet
  facet normal 0 0 -1
    outer loop
      vertex -100 0 100
      vertex -89.1355 -4.06737 100
      vertex -97.8148 -20.7912 100
    endloop
  endfacet
  facet normal -0 0 -1
    outer loop
      vertex -88.0902 -5.87785 100
      vertex -97.8148 -20.7912 100
      vertex -89.1355 -4.06737 100
    endloop
  endfacet
  facet normal 0 0 -1
    outer loop
      vertex 89.1355 -4.06737 100
      vertex 100 0 100
      vertex 97.8148 -20.7912 100
    endloop
  endfacet
  facet normal 0 0 -1
    outer loop
      vertex 81.0453 -9.94522 100
      vertex 97.8148 -20.7912 100
      vertex 91.3545 -40.6737 100
    endloop
  endfacet
  facet normal -0 0 -1
    outer loop
      vertex 100 0 100
      vertex 89.7815 -2.07912 100
      vertex 90 0 100
    endloop
  endfacet
  facet normal 0 0 -1
    outer loop
      vertex 89.1355 4.06737 100
      vertex 100 0 100
      vertex 89.7815 2.07912 100
    endloop
  endfacet
  facet normal 0 0 -1
    outer loop
      vertex 89.7815 2.07912 100
      vertex 100 0 100
      vertex 90 0 100
    endloop
  endfacet
  facet normal 0 0 -1
    outer loop
      vertex 100 0 100
      vertex 89.1355 -4.06737 100
      vertex 89.7815 -2.07912 100
    endloop
  endfacet
  facet normal 0 0 -1
    outer loop
      vertex 97.8148 -20.7912 100
      vertex 88.0902 -5.87785 100
      vertex 89.1355 -4.06737 100
    endloop
  endfacet
  facet normal 0 0 -1
    outer loop
      vertex 97.8148 -20.7912 100
      vertex 86.6913 -7.43145 100
      vertex 88.0902 -5.87785 100
    endloop
  endfacet
  facet normal 0 0 -1
    outer loop
      vertex 97.8148 -20.7912 100
      vertex 85 -8.66025 100
      vertex 86.6913 -7.43145 100
    endloop
  endfacet
  facet normal 0 0 -1
    outer loop
      vertex 97.8148 -20.7912 100
      vertex 83.0902 -9.51056 100
      vertex 85 -8.66025 100
    endloop
  endfacet
  facet normal 0 0 -1
    outer loop
      vertex 97.8148 -20.7912 100
      vertex 81.0453 -9.94522 100
      vertex 83.0902 -9.51056 100
    endloop
  endfacet
  facet normal 0 0 -1
    outer loop
      vertex 75 -8.66025 100
      vertex 91.3545 -40.6737 100
      vertex 80.9017 -58.7785 100
    endloop
  endfacet
  facet normal 0 0 -1
    outer loop
      vertex 91.3545 -40.6737 100
      vertex 78.9547 -9.94522 100
      vertex 81.0453 -9.94522 100
    endloop
  endfacet
  facet normal 0 0 -1
    outer loop
      vertex 91.3545 -40.6737 100
      vertex 76.9098 -9.51056 100
      vertex 78.9547 -9.94522 100
    endloop
  endfacet
  facet normal 0 0 -1
    outer loop
      vertex 91.3545 -40.6737 100
      vertex 75 -8.66025 100
      vertex 76.9098 -9.51056 100
    endloop
  endfacet
  facet normal 0 0 -1
    outer loop
      vertex 80.9017 -58.7785 100
      vertex 73.3087 -7.43145 100
      vertex 75 -8.66025 100
    endloop
  endfacet
  facet normal 0 0 -1
    outer loop
      vertex 66.9131 -74.3145 100
      vertex 73.3087 -7.43145 100
      vertex 80.9017 -58.7785 100
    endloop
  endfacet
  facet normal -0 0 -1
    outer loop
      vertex 73.3087 -7.43145 100
      vertex 66.9131 -74.3145 100
      vertex 71.9098 -5.87785 100
    endloop
  endfacet
  facet normal 0 0 -1
    outer loop
      vertex 9.13545 -75.9326 100
      vertex 50 -86.6025 100
      vertex 9.78148 -77.9209 100
    endloop
  endfacet
  facet normal 0 0 -1
    outer loop
      vertex 50 -86.6025 100
      vertex 8.09017 -74.1221 100
      vertex 66.9131 -74.3145 100
    endloop
  endfacet
  facet normal 0 0 -1
    outer loop
      vertex 8.09017 -74.1221 100
      vertex 50 -86.6025 100
      vertex 9.13545 -75.9326 100
    endloop
  endfacet
  facet normal 0 0 -1
    outer loop
      vertex 100 0 100
      vertex 89.1355 4.06737 100
      vertex 97.8148 20.7912 100
    endloop
  endfacet
  facet normal 0 0 -1
    outer loop
      vertex 88.0902 5.87785 100
      vertex 97.8148 20.7912 100
      vertex 89.1355 4.06737 100
    endloop
  endfacet
  facet normal 0 0 -1
    outer loop
      vertex 86.6913 7.43145 100
      vertex 97.8148 20.7912 100
      vertex 88.0902 5.87785 100
    endloop
  endfacet
  facet normal 0 0 -1
    outer loop
      vertex 85 8.66025 100
      vertex 97.8148 20.7912 100
      vertex 86.6913 7.43145 100
    endloop
  endfacet
  facet normal 0 0 -1
    outer loop
      vertex 83.0902 9.51056 100
      vertex 97.8148 20.7912 100
      vertex 85 8.66025 100
    endloop
  endfacet
  facet normal 0 0 -1
    outer loop
      vertex 81.0453 9.94522 100
      vertex 97.8148 20.7912 100
      vertex 83.0902 9.51056 100
    endloop
  endfacet
  facet normal -0 0 -1
    outer loop
      vertex 97.8148 20.7912 100
      vertex 81.0453 9.94522 100
      vertex 91.3545 40.6737 100
    endloop
  endfacet
  facet normal 0 0 -1
    outer loop
      vertex 78.9547 9.94522 100
      vertex 91.3545 40.6737 100
      vertex 81.0453 9.94522 100
    endloop
  endfacet
  facet normal 0 0 -1
    outer loop
      vertex 76.9098 9.51056 100
      vertex 91.3545 40.6737 100
      vertex 78.9547 9.94522 100
    endloop
  endfacet
  facet normal 0 0 -1
    outer loop
      vertex 75 8.66025 100
      vertex 91.3545 40.6737 100
      vertex 76.9098 9.51056 100
    endloop
  endfacet
  facet normal -0 0 -1
    outer loop
      vertex 91.3545 40.6737 100
      vertex 75 8.66025 100
      vertex 80.9017 58.7785 100
    endloop
  endfacet
  facet normal 0 0 -1
    outer loop
      vertex 73.3087 7.43145 100
      vertex 80.9017 58.7785 100
      vertex 75 8.66025 100
    endloop
  endfacet
  facet normal 0 0 -1
    outer loop
      vertex 66.9131 74.3145 100
      vertex 73.3087 7.43145 100
      vertex 71.9098 5.87785 100
    endloop
  endfacet
  facet normal 0 0 -1
    outer loop
      vertex 10 80 100
      vertex 71.9098 5.87785 100
      vertex 70.8645 4.06737 100
    endloop
  endfacet
  facet normal 0 0 -1
    outer loop
      vertex 10 80 100
      vertex 70.8645 4.06737 100
      vertex 70.2185 2.07912 100
    endloop
  endfacet
  facet normal 0 0 -1
    outer loop
      vertex 73.3087 7.43145 100
      vertex 66.9131 74.3145 100
      vertex 80.9017 58.7785 100
    endloop
  endfacet
  facet normal 0 0 -1
    outer loop
      vertex 10 80 100
      vertex 70.2185 2.07912 100
      vertex 70 0 100
    endloop
  endfacet
  facet normal 0 0 -1
    outer loop
      vertex 6.69131 -72.5686 100
      vertex 66.9131 -74.3145 100
      vertex 8.09017 -74.1221 100
    endloop
  endfacet
  facet normal 0 0 -1
    outer loop
      vertex 30.9017 -95.1057 100
      vertex 9.78148 -77.9209 100
      vertex 50 -86.6025 100
    endloop
  endfacet
  facet normal 0 0 -1
    outer loop
      vertex 66.9131 -74.3145 100
      vertex 6.69131 -72.5686 100
      vertex 71.9098 -5.87785 100
    endloop
  endfacet
  facet normal 0 0 -1
    outer loop
      vertex 9.78148 -77.9209 100
      vertex 30.9017 -95.1057 100
      vertex 10 -80 100
    endloop
  endfacet
  facet normal 0 0 -1
    outer loop
      vertex 10 80 100
      vertex 66.9131 74.3145 100
      vertex 71.9098 5.87785 100
    endloop
  endfacet
  facet normal 0 0 -1
    outer loop
      vertex 9.13545 -84.0674 100
      vertex 30.9017 -95.1057 100
      vertex 10.4528 -99.4522 100
    endloop
  endfacet
  facet normal 0 0 -1
    outer loop
      vertex 66.9131 74.3145 100
      vertex 10 80 100
      vertex 50 86.6025 100
    endloop
  endfacet
  facet normal -0 0 -1
    outer loop
      vertex 50 86.6025 100
      vertex 10 80 100
      vertex 30.9017 95.1057 100
    endloop
  endfacet
  facet normal 0 0 -1
    outer loop
      vertex 30.9017 -95.1057 100
      vertex 9.78148 -82.0791 100
      vertex 10 -80 100
    endloop
  endfacet
  facet normal 0 0 -1
    outer loop
      vertex 30.9017 -95.1057 100
      vertex 9.13545 -84.0674 100
      vertex 9.78148 -82.0791 100
    endloop
  endfacet
  facet normal 0 0 -1
    outer loop
      vertex 10.4528 -99.4522 100
      vertex 8.09017 -85.8779 100
      vertex 9.13545 -84.0674 100
    endloop
  endfacet
  facet normal 0 0 -1
    outer loop
      vertex 10.4528 -99.4522 100
      vertex 6.69131 -87.4314 100
      vertex 8.09017 -85.8779 100
    endloop
  endfacet
  facet normal 0 0 -1
    outer loop
      vertex 10.4528 -99.4522 100
      vertex 5 -88.6603 100
      vertex 6.69131 -87.4314 100
    endloop
  endfacet
  facet normal 0 0 -1
    outer loop
      vertex 10.4528 -99.4522 100
      vertex 3.09017 -89.5106 100
      vertex 5 -88.6603 100
    endloop
  endfacet
  facet normal 0 0 -1
    outer loop
      vertex 10.4528 -99.4522 100
      vertex 1.04528 -89.9452 100
      vertex 3.09017 -89.5106 100
    endloop
  endfacet
  facet normal 0 0 -1
    outer loop
      vertex 10.4528 -99.4522 100
      vertex -1.04528 -89.9452 100
      vertex 1.04528 -89.9452 100
    endloop
  endfacet
  facet normal 0 0 -1
    outer loop
      vertex -10.4528 -99.4522 100
      vertex -1.04528 -89.9452 100
      vertex 10.4528 -99.4522 100
    endloop
  endfacet
  facet normal -0 0 -1
    outer loop
      vertex -1.04528 -89.9452 100
      vertex -10.4528 -99.4522 100
      vertex -3.09017 -89.5106 100
    endloop
  endfacet
  facet normal 0 0 -1
    outer loop
      vertex -70 0 100
      vertex -10 -80 100
      vertex -10.4528 -99.4522 100
    endloop
  endfacet
  facet normal -0 0 -1
    outer loop
      vertex -9.78148 -82.0791 100
      vertex -10.4528 -99.4522 100
      vertex -10 -80 100
    endloop
  endfacet
  facet normal -0 0 -1
    outer loop
      vertex -9.13545 -84.0674 100
      vertex -10.4528 -99.4522 100
      vertex -9.78148 -82.0791 100
    endloop
  endfacet
  facet normal -0 0 -1
    outer loop
      vertex -8.09017 -85.8779 100
      vertex -10.4528 -99.4522 100
      vertex -9.13545 -84.0674 100
    endloop
  endfacet
  facet normal -0 0 -1
    outer loop
      vertex -6.69131 -87.4314 100
      vertex -10.4528 -99.4522 100
      vertex -8.09017 -85.8779 100
    endloop
  endfacet
  facet normal -0 0 -1
    outer loop
      vertex -5 -88.6603 100
      vertex -10.4528 -99.4522 100
      vertex -6.69131 -87.4314 100
    endloop
  endfacet
  facet normal -0 0 -1
    outer loop
      vertex -3.09017 -89.5106 100
      vertex -10.4528 -99.4522 100
      vertex -5 -88.6603 100
    endloop
  endfacet
  facet normal 0.866025 0.5 0
    outer loop
      vertex 91.3545 40.6737 110
      vertex 80.9017 58.7785 100
      vertex 80.9017 58.7785 110
    endloop
  endfacet
  facet normal 0.866025 0.5 0
    outer loop
      vertex 80.9017 58.7785 100
      vertex 91.3545 40.6737 110
      vertex 91.3545 40.6737 100
    endloop
  endfacet
  facet normal 0.951057 0.309017 0
    outer loop
      vertex 97.8148 20.7912 110
      vertex 91.3545 40.6737 100
      vertex 91.3545 40.6737 110
    endloop
  endfacet
  facet normal 0.951057 0.309017 0
    outer loop
      vertex 91.3545 40.6737 100
      vertex 97.8148 20.7912 110
      vertex 97.8148 20.7912 100
    endloop
  endfacet
  facet normal 0.743145 0.669131 0
    outer loop
      vertex 80.9017 58.7785 110
      vertex 66.9131 74.3145 100
      vertex 66.9131 74.3145 110
    endloop
  endfacet
  facet normal 0.743145 0.669131 0
    outer loop
      vertex 66.9131 74.3145 100
      vertex 80.9017 58.7785 110
      vertex 80.9017 58.7785 100
    endloop
  endfacet
  facet normal 0.207912 0.978148 -0
    outer loop
      vertex 30.9017 95.1057 100
      vertex 10.4528 99.4522 110
      vertex 30.9017 95.1057 110
    endloop
  endfacet
  facet normal 0.207912 0.978148 0
    outer loop
      vertex 10.4528 99.4522 110
      vertex 30.9017 95.1057 100
      vertex 10.4528 99.4522 100
    endloop
  endfacet
  facet normal 0.406737 0.913545 -0
    outer loop
      vertex 50 86.6025 100
      vertex 30.9017 95.1057 110
      vertex 50 86.6025 110
    endloop
  endfacet
  facet normal 0.406737 0.913545 0
    outer loop
      vertex 30.9017 95.1057 110
      vertex 50 86.6025 100
      vertex 30.9017 95.1057 100
    endloop
  endfacet
  facet normal -0.866025 0.5 0
    outer loop
      vertex -91.3545 40.6737 100
      vertex -80.9017 58.7785 110
      vertex -80.9017 58.7785 100
    endloop
  endfacet
  facet normal -0.866025 0.5 0
    outer loop
      vertex -80.9017 58.7785 110
      vertex -91.3545 40.6737 100
      vertex -91.3545 40.6737 110
    endloop
  endfacet
  facet normal -0.743145 0.669131 0
    outer loop
      vertex -80.9017 58.7785 100
      vertex -66.9131 74.3145 110
      vertex -66.9131 74.3145 100
    endloop
  endfacet
  facet normal -0.743145 0.669131 0
    outer loop
      vertex -66.9131 74.3145 110
      vertex -80.9017 58.7785 100
      vertex -80.9017 58.7785 110
    endloop
  endfacet
  facet normal -0.951057 0.309017 0
    outer loop
      vertex -97.8148 20.7912 100
      vertex -91.3545 40.6737 110
      vertex -91.3545 40.6737 100
    endloop
  endfacet
  facet normal -0.951057 0.309017 0
    outer loop
      vertex -91.3545 40.6737 110
      vertex -97.8148 20.7912 100
      vertex -97.8148 20.7912 110
    endloop
  endfacet
  facet normal 0 0 1
    outer loop
      vertex 97.8148 20.7912 110
      vertex 97.8148 -20.7912 110
      vertex 100 0 110
    endloop
  endfacet
  facet normal 0 0 1
    outer loop
      vertex 91.3545 40.6737 110
      vertex 97.8148 -20.7912 110
      vertex 97.8148 20.7912 110
    endloop
  endfacet
  facet normal 0 0 1
    outer loop
      vertex 91.3545 40.6737 110
      vertex 91.3545 -40.6737 110
      vertex 97.8148 -20.7912 110
    endloop
  endfacet
  facet normal 0 0 1
    outer loop
      vertex 80.9017 58.7785 110
      vertex 91.3545 -40.6737 110
      vertex 91.3545 40.6737 110
    endloop
  endfacet
  facet normal 0 0 1
    outer loop
      vertex 80.9017 58.7785 110
      vertex 80.9017 -58.7785 110
      vertex 91.3545 -40.6737 110
    endloop
  endfacet
  facet normal 0 0 1
    outer loop
      vertex 66.9131 74.3145 110
      vertex 80.9017 -58.7785 110
      vertex 80.9017 58.7785 110
    endloop
  endfacet
  facet normal 0 0 1
    outer loop
      vertex 66.9131 74.3145 110
      vertex 66.9131 -74.3145 110
      vertex 80.9017 -58.7785 110
    endloop
  endfacet
  facet normal 0 0 1
    outer loop
      vertex 50 86.6025 110
      vertex 66.9131 -74.3145 110
      vertex 66.9131 74.3145 110
    endloop
  endfacet
  facet normal 0 0 1
    outer loop
      vertex 50 86.6025 110
      vertex 50 -86.6025 110
      vertex 66.9131 -74.3145 110
    endloop
  endfacet
  facet normal 0 0 1
    outer loop
      vertex 30.9017 95.1057 110
      vertex 50 -86.6025 110
      vertex 50 86.6025 110
    endloop
  endfacet
  facet normal 0 0 1
    outer loop
      vertex 30.9017 95.1057 110
      vertex 30.9017 -95.1057 110
      vertex 50 -86.6025 110
    endloop
  endfacet
  facet normal 0 0 1
    outer loop
      vertex 10.4528 99.4522 110
      vertex 30.9017 -95.1057 110
      vertex 30.9017 95.1057 110
    endloop
  endfacet
  facet normal 0 0 1
    outer loop
      vertex 10.4528 99.4522 110
      vertex 10.4528 -99.4522 110
      vertex 30.9017 -95.1057 110
    endloop
  endfacet
  facet normal -0 0 1
    outer loop
      vertex -10.4528 99.4522 110
      vertex 10.4528 -99.4522 110
      vertex 10.4528 99.4522 110
    endloop
  endfacet
  facet normal 0 0 1
    outer loop
      vertex -10.4528 99.4522 110
      vertex -10.4528 -99.4522 110
      vertex 10.4528 -99.4522 110
    endloop
  endfacet
  facet normal -0 0 1
    outer loop
      vertex -30.9017 95.1057 110
      vertex -10.4528 -99.4522 110
      vertex -10.4528 99.4522 110
    endloop
  endfacet
  facet normal 0 0 1
    outer loop
      vertex -30.9017 95.1057 110
      vertex -30.9017 -95.1057 110
      vertex -10.4528 -99.4522 110
    endloop
  endfacet
  facet normal -0 0 1
    outer loop
      vertex -50 86.6025 110
      vertex -30.9017 -95.1057 110
      vertex -30.9017 95.1057 110
    endloop
  endfacet
  facet normal 0 0 1
    outer loop
      vertex -50 86.6025 110
      vertex -50 -86.6025 110
      vertex -30.9017 -95.1057 110
    endloop
  endfacet
  facet normal -0 0 1
    outer loop
      vertex -66.9131 74.3145 110
      vertex -50 -86.6025 110
      vertex -50 86.6025 110
    endloop
  endfacet
  facet normal 0 0 1
    outer loop
      vertex -66.9131 74.3145 110
      vertex -66.9131 -74.3145 110
      vertex -50 -86.6025 110
    endloop
  endfacet
  facet normal -0 0 1
    outer loop
      vertex -80.9017 58.7785 110
      vertex -66.9131 -74.3145 110
      vertex -66.9131 74.3145 110
    endloop
  endfacet
  facet normal 0 0 1
    outer loop
      vertex -80.9017 58.7785 110
      vertex -80.9017 -58.7785 110
      vertex -66.9131 -74.3145 110
    endloop
  endfacet
  facet normal -0 0 1
    outer loop
      vertex -91.3545 40.6737 110
      vertex -80.9017 -58.7785 110
      vertex -80.9017 58.7785 110
    endloop
  endfacet
  facet normal 0 0 1
    outer loop
      vertex -91.3545 40.6737 110
      vertex -91.3545 -40.6737 110
      vertex -80.9017 -58.7785 110
    endloop
  endfacet
  facet normal -0 0 1
    outer loop
      vertex -97.8148 20.7912 110
      vertex -91.3545 -40.6737 110
      vertex -91.3545 40.6737 110
    endloop
  endfacet
  facet normal 0 0 1
    outer loop
      vertex -97.8148 20.7912 110
      vertex -97.8148 -20.7912 110
      vertex -91.3545 -40.6737 110
    endloop
  endfacet
  facet normal 0 -0 1
    outer loop
      vertex -97.8148 -20.7912 110
      vertex -97.8148 20.7912 110
      vertex -100 0 110
    endloop
  endfacet
  facet normal -0.207912 0.978148 0
    outer loop
      vertex -10.4528 99.4522 100
      vertex -30.9017 95.1057 110
      vertex -10.4528 99.4522 110
    endloop
  endfacet
  facet normal -0.207912 0.978148 0
    outer loop
      vertex -30.9017 95.1057 110
      vertex -10.4528 99.4522 100
      vertex -30.9017 95.1057 100
    endloop
  endfacet
  facet normal 0.994522 -0.104529 0
    outer loop
      vertex 97.8148 -20.7912 110
      vertex 100 0 100
      vertex 100 0 110
    endloop
  endfacet
  facet normal 0.994522 -0.104529 0
    outer loop
      vertex 100 0 100
      vertex 97.8148 -20.7912 110
      vertex 97.8148 -20.7912 100
    endloop
  endfacet
  facet normal -0.207912 -0.978148 0
    outer loop
      vertex -30.9017 -95.1057 100
      vertex -10.4528 -99.4522 110
      vertex -30.9017 -95.1057 110
    endloop
  endfacet
  facet normal -0.207912 -0.978148 -0
    outer loop
      vertex -10.4528 -99.4522 110
      vertex -30.9017 -95.1057 100
      vertex -10.4528 -99.4522 100
    endloop
  endfacet
  facet normal 0.743145 -0.669131 0
    outer loop
      vertex 66.9131 -74.3145 110
      vertex 80.9017 -58.7785 100
      vertex 80.9017 -58.7785 110
    endloop
  endfacet
  facet normal 0.743145 -0.669131 0
    outer loop
      vertex 80.9017 -58.7785 100
      vertex 66.9131 -74.3145 110
      vertex 66.9131 -74.3145 100
    endloop
  endfacet
  facet normal 0.951057 -0.309017 0
    outer loop
      vertex 91.3545 -40.6737 110
      vertex 97.8148 -20.7912 100
      vertex 97.8148 -20.7912 110
    endloop
  endfacet
  facet normal 0.951057 -0.309017 0
    outer loop
      vertex 97.8148 -20.7912 100
      vertex 91.3545 -40.6737 110
      vertex 91.3545 -40.6737 100
    endloop
  endfacet
  facet normal 0.866025 -0.5 0
    outer loop
      vertex 80.9017 -58.7785 110
      vertex 91.3545 -40.6737 100
      vertex 91.3545 -40.6737 110
    endloop
  endfacet
  facet normal 0.866025 -0.5 0
    outer loop
      vertex 91.3545 -40.6737 100
      vertex 80.9017 -58.7785 110
      vertex 80.9017 -58.7785 100
    endloop
  endfacet
  facet normal -0.866025 -0.5 0
    outer loop
      vertex -80.9017 -58.7785 100
      vertex -91.3545 -40.6737 110
      vertex -91.3545 -40.6737 100
    endloop
  endfacet
  facet normal -0.866025 -0.5 0
    outer loop
      vertex -91.3545 -40.6737 110
      vertex -80.9017 -58.7785 100
      vertex -80.9017 -58.7785 110
    endloop
  endfacet
  facet normal -0.994522 -0.104529 0
    outer loop
      vertex -97.8148 -20.7912 100
      vertex -100 0 110
      vertex -100 0 100
    endloop
  endfacet
  facet normal -0.994522 -0.104529 0
    outer loop
      vertex -100 0 110
      vertex -97.8148 -20.7912 100
      vertex -97.8148 -20.7912 110
    endloop
  endfacet
  facet normal -0.951057 -0.309017 0
    outer loop
      vertex -91.3545 -40.6737 100
      vertex -97.8148 -20.7912 110
      vertex -97.8148 -20.7912 100
    endloop
  endfacet
  facet normal -0.951057 -0.309017 0
    outer loop
      vertex -97.8148 -20.7912 110
      vertex -91.3545 -40.6737 100
      vertex -91.3545 -40.6737 110
    endloop
  endfacet
  facet normal 0.207912 -0.978148 0
    outer loop
      vertex 10.4528 -99.4522 100
      vertex 30.9017 -95.1057 110
      vertex 10.4528 -99.4522 110
    endloop
  endfacet
  facet normal 0.207912 -0.978148 0
    outer loop
      vertex 30.9017 -95.1057 110
      vertex 10.4528 -99.4522 100
      vertex 30.9017 -95.1057 100
    endloop
  endfacet
  facet normal 0.587785 -0.809017 0
    outer loop
      vertex 50 -86.6025 100
      vertex 66.9131 -74.3145 110
      vertex 50 -86.6025 110
    endloop
  endfacet
  facet normal 0.587785 -0.809017 0
    outer loop
      vertex 66.9131 -74.3145 110
      vertex 50 -86.6025 100
      vertex 66.9131 -74.3145 100
    endloop
  endfacet
  facet normal 0 -1 0
    outer loop
      vertex -10.4528 -99.4522 100
      vertex 10.4528 -99.4522 110
      vertex -10.4528 -99.4522 110
    endloop
  endfacet
  facet normal 0 -1 -0
    outer loop
      vertex 10.4528 -99.4522 110
      vertex -10.4528 -99.4522 100
      vertex 10.4528 -99.4522 100
    endloop
  endfacet
  facet normal -0.587785 -0.809017 0
    outer loop
      vertex -66.9131 -74.3145 100
      vertex -50 -86.6025 110
      vertex -66.9131 -74.3145 110
    endloop
  endfacet
  facet normal -0.587785 -0.809017 -0
    outer loop
      vertex -50 -86.6025 110
      vertex -66.9131 -74.3145 100
      vertex -50 -86.6025 100
    endloop
  endfacet
  facet normal -0.406737 -0.913545 0
    outer loop
      vertex -50 -86.6025 100
      vertex -30.9017 -95.1057 110
      vertex -50 -86.6025 110
    endloop
  endfacet
  facet normal -0.406737 -0.913545 -0
    outer loop
      vertex -30.9017 -95.1057 110
      vertex -50 -86.6025 100
      vertex -30.9017 -95.1057 100
    endloop
  endfacet
  facet normal -0.743145 -0.669131 0
    outer loop
      vertex -66.9131 -74.3145 100
      vertex -80.9017 -58.7785 110
      vertex -80.9017 -58.7785 100
    endloop
  endfacet
  facet normal -0.743145 -0.669131 0
    outer loop
      vertex -80.9017 -58.7785 110
      vertex -66.9131 -74.3145 100
      vertex -66.9131 -74.3145 110
    endloop
  endfacet
  facet normal 0.406737 -0.913545 0
    outer loop
      vertex 30.9017 -95.1057 100
      vertex 50 -86.6025 110
      vertex 30.9017 -95.1057 110
    endloop
  endfacet
  facet normal 0.406737 -0.913545 0
    outer loop
      vertex 50 -86.6025 110
      vertex 30.9017 -95.1057 100
      vertex 50 -86.6025 100
    endloop
  endfacet
  facet normal 0.994522 0.104527 0
    outer loop
      vertex 90 0 100
      vertex 89.7815 2.07912 0
      vertex 89.7815 2.07912 100
    endloop
  endfacet
  facet normal 0.994522 0.104527 0
    outer loop
      vertex 89.7815 2.07912 0
      vertex 90 0 100
      vertex 90 0 0
    endloop
  endfacet
  facet normal -0.207912 0.978148 0
    outer loop
      vertex 78.9547 9.94522 0
      vertex 76.9098 9.51056 100
      vertex 78.9547 9.94522 100
    endloop
  endfacet
  facet normal -0.207912 0.978148 0
    outer loop
      vertex 76.9098 9.51056 100
      vertex 78.9547 9.94522 0
      vertex 76.9098 9.51056 0
    endloop
  endfacet
  facet normal 0.207912 -0.978148 0
    outer loop
      vertex 81.0453 -9.94522 0
      vertex 83.0902 -9.51056 100
      vertex 81.0453 -9.94522 100
    endloop
  endfacet
  facet normal 0.207912 -0.978148 0
    outer loop
      vertex 83.0902 -9.51056 100
      vertex 81.0453 -9.94522 0
      vertex 83.0902 -9.51056 0
    endloop
  endfacet
  facet normal 0.406737 -0.913545 0
    outer loop
      vertex 83.0902 -9.51056 0
      vertex 85 -8.66025 100
      vertex 83.0902 -9.51056 100
    endloop
  endfacet
  facet normal 0.406737 -0.913545 0
    outer loop
      vertex 85 -8.66025 100
      vertex 83.0902 -9.51056 0
      vertex 85 -8.66025 0
    endloop
  endfacet
  facet normal 0.587785 0.809017 -0
    outer loop
      vertex 86.6913 7.43145 0
      vertex 85 8.66025 100
      vertex 86.6913 7.43145 100
    endloop
  endfacet
  facet normal 0.587785 0.809017 0
    outer loop
      vertex 85 8.66025 100
      vertex 86.6913 7.43145 0
      vertex 85 8.66025 0
    endloop
  endfacet
  facet normal -0.743145 0.669131 0
    outer loop
      vertex 71.9098 5.87785 0
      vertex 73.3087 7.43145 100
      vertex 73.3087 7.43145 0
    endloop
  endfacet
  facet normal -0.743145 0.669131 0
    outer loop
      vertex 73.3087 7.43145 100
      vertex 71.9098 5.87785 0
      vertex 71.9098 5.87785 100
    endloop
  endfacet
  facet normal -0.587785 0.809017 0
    outer loop
      vertex 75 8.66025 0
      vertex 73.3087 7.43145 100
      vertex 75 8.66025 100
    endloop
  endfacet
  facet normal -0.587785 0.809017 0
    outer loop
      vertex 73.3087 7.43145 100
      vertex 75 8.66025 0
      vertex 73.3087 7.43145 0
    endloop
  endfacet
  facet normal 0.951056 -0.309019 0
    outer loop
      vertex 89.1355 -4.06737 100
      vertex 89.7815 -2.07912 0
      vertex 89.7815 -2.07912 100
    endloop
  endfacet
  facet normal 0.951056 -0.309019 0
    outer loop
      vertex 89.7815 -2.07912 0
      vertex 89.1355 -4.06737 100
      vertex 89.1355 -4.06737 0
    endloop
  endfacet
  facet normal 0.866026 0.499998 0
    outer loop
      vertex 89.1355 4.06737 100
      vertex 88.0902 5.87785 0
      vertex 88.0902 5.87785 100
    endloop
  endfacet
  facet normal 0.866026 0.499998 0
    outer loop
      vertex 88.0902 5.87785 0
      vertex 89.1355 4.06737 100
      vertex 89.1355 4.06737 0
    endloop
  endfacet
  facet normal 0.951056 0.309019 0
    outer loop
      vertex 89.7815 2.07912 100
      vertex 89.1355 4.06737 0
      vertex 89.1355 4.06737 100
    endloop
  endfacet
  facet normal 0.951056 0.309019 0
    outer loop
      vertex 89.1355 4.06737 0
      vertex 89.7815 2.07912 100
      vertex 89.7815 2.07912 0
    endloop
  endfacet
  facet normal 0.743145 0.669131 0
    outer loop
      vertex 88.0902 5.87785 100
      vertex 86.6913 7.43145 0
      vertex 86.6913 7.43145 100
    endloop
  endfacet
  facet normal 0.743145 0.669131 0
    outer loop
      vertex 86.6913 7.43145 0
      vertex 88.0902 5.87785 100
      vertex 88.0902 5.87785 0
    endloop
  endfacet
  facet normal 0.207912 0.978148 -0
    outer loop
      vertex 83.0902 9.51056 0
      vertex 81.0453 9.94522 100
      vertex 83.0902 9.51056 100
    endloop
  endfacet
  facet normal 0.207912 0.978148 0
    outer loop
      vertex 81.0453 9.94522 100
      vertex 83.0902 9.51056 0
      vertex 81.0453 9.94522 0
    endloop
  endfacet
  facet normal 0 1 -0
    outer loop
      vertex 81.0453 9.94522 0
      vertex 78.9547 9.94522 100
      vertex 81.0453 9.94522 100
    endloop
  endfacet
  facet normal 0 1 0
    outer loop
      vertex 78.9547 9.94522 100
      vertex 81.0453 9.94522 0
      vertex 78.9547 9.94522 0
    endloop
  endfacet
  facet normal 0.406737 0.913545 -0
    outer loop
      vertex 85 8.66025 0
      vertex 83.0902 9.51056 100
      vertex 85 8.66025 100
    endloop
  endfacet
  facet normal 0.406737 0.913545 0
    outer loop
      vertex 83.0902 9.51056 100
      vertex 85 8.66025 0
      vertex 83.0902 9.51056 0
    endloop
  endfacet
  facet normal -0.951056 0.309019 0
    outer loop
      vertex 70.2185 2.07912 0
      vertex 70.8645 4.06737 100
      vertex 70.8645 4.06737 0
    endloop
  endfacet
  facet normal -0.951056 0.309019 0
    outer loop
      vertex 70.8645 4.06737 100
      vertex 70.2185 2.07912 0
      vertex 70.2185 2.07912 100
    endloop
  endfacet
  facet normal 0 0 -1
    outer loop
      vertex 89.7815 -2.07912 0
      vertex 89.7815 2.07912 0
      vertex 90 0 0
    endloop
  endfacet
  facet normal 0 0 -1
    outer loop
      vertex 89.1355 -4.06737 0
      vertex 89.7815 2.07912 0
      vertex 89.7815 -2.07912 0
    endloop
  endfacet
  facet normal 0 0 -1
    outer loop
      vertex 89.1355 -4.06737 0
      vertex 89.1355 4.06737 0
      vertex 89.7815 2.07912 0
    endloop
  endfacet
  facet normal 0 0 -1
    outer loop
      vertex 88.0902 -5.87785 0
      vertex 89.1355 4.06737 0
      vertex 89.1355 -4.06737 0
    endloop
  endfacet
  facet normal 0 0 -1
    outer loop
      vertex 88.0902 -5.87785 0
      vertex 88.0902 5.87785 0
      vertex 89.1355 4.06737 0
    endloop
  endfacet
  facet normal 0 0 -1
    outer loop
      vertex 86.6913 -7.43145 0
      vertex 88.0902 5.87785 0
      vertex 88.0902 -5.87785 0
    endloop
  endfacet
  facet normal 0 0 -1
    outer loop
      vertex 86.6913 -7.43145 0
      vertex 86.6913 7.43145 0
      vertex 88.0902 5.87785 0
    endloop
  endfacet
  facet normal 0 0 -1
    outer loop
      vertex 85 -8.66025 0
      vertex 86.6913 7.43145 0
      vertex 86.6913 -7.43145 0
    endloop
  endfacet
  facet normal 0 0 -1
    outer loop
      vertex 85 -8.66025 0
      vertex 85 8.66025 0
      vertex 86.6913 7.43145 0
    endloop
  endfacet
  facet normal 0 0 -1
    outer loop
      vertex 83.0902 -9.51056 0
      vertex 85 8.66025 0
      vertex 85 -8.66025 0
    endloop
  endfacet
  facet normal 0 0 -1
    outer loop
      vertex 83.0902 -9.51056 0
      vertex 83.0902 9.51056 0
      vertex 85 8.66025 0
    endloop
  endfacet
  facet normal 0 0 -1
    outer loop
      vertex 81.0453 -9.94522 0
      vertex 83.0902 9.51056 0
      vertex 83.0902 -9.51056 0
    endloop
  endfacet
  facet normal 0 0 -1
    outer loop
      vertex 81.0453 -9.94522 0
      vertex 81.0453 9.94522 0
      vertex 83.0902 9.51056 0
    endloop
  endfacet
  facet normal 0 0 -1
    outer loop
      vertex 78.9547 -9.94522 0
      vertex 81.0453 9.94522 0
      vertex 81.0453 -9.94522 0
    endloop
  endfacet
  facet normal 0 0 -1
    outer loop
      vertex 78.9547 -9.94522 0
      vertex 78.9547 9.94522 0
      vertex 81.0453 9.94522 0
    endloop
  endfacet
  facet normal 0 0 -1
    outer loop
      vertex 76.9098 -9.51056 0
      vertex 78.9547 9.94522 0
      vertex 78.9547 -9.94522 0
    endloop
  endfacet
  facet normal 0 0 -1
    outer loop
      vertex 76.9098 -9.51056 0
      vertex 76.9098 9.51056 0
      vertex 78.9547 9.94522 0
    endloop
  endfacet
  facet normal 0 0 -1
    outer loop
      vertex 75 -8.66025 0
      vertex 76.9098 9.51056 0
      vertex 76.9098 -9.51056 0
    endloop
  endfacet
  facet normal 0 0 -1
    outer loop
      vertex 75 -8.66025 0
      vertex 75 8.66025 0
      vertex 76.9098 9.51056 0
    endloop
  endfacet
  facet normal 0 0 -1
    outer loop
      vertex 73.3087 -7.43145 0
      vertex 75 8.66025 0
      vertex 75 -8.66025 0
    endloop
  endfacet
  facet normal 0 0 -1
    outer loop
      vertex 73.3087 -7.43145 0
      vertex 73.3087 7.43145 0
      vertex 75 8.66025 0
    endloop
  endfacet
  facet normal 0 0 -1
    outer loop
      vertex 71.9098 -5.87785 0
      vertex 73.3087 7.43145 0
      vertex 73.3087 -7.43145 0
    endloop
  endfacet
  facet normal 0 0 -1
    outer loop
      vertex 71.9098 -5.87785 0
      vertex 71.9098 5.87785 0
      vertex 73.3087 7.43145 0
    endloop
  endfacet
  facet normal 0 0 -1
    outer loop
      vertex 70.8645 -4.06737 0
      vertex 71.9098 5.87785 0
      vertex 71.9098 -5.87785 0
    endloop
  endfacet
  facet normal 0 0 -1
    outer loop
      vertex 70.8645 -4.06737 0
      vertex 70.8645 4.06737 0
      vertex 71.9098 5.87785 0
    endloop
  endfacet
  facet normal 0 0 -1
    outer loop
      vertex 70.2185 -2.07912 0
      vertex 70.8645 4.06737 0
      vertex 70.8645 -4.06737 0
    endloop
  endfacet
  facet normal 0 0 -1
    outer loop
      vertex 70.2185 -2.07912 0
      vertex 70.2185 2.07912 0
      vertex 70.8645 4.06737 0
    endloop
  endfacet
  facet normal 0 -0 -1
    outer loop
      vertex 70.2185 2.07912 0
      vertex 70.2185 -2.07912 0
      vertex 70 0 0
    endloop
  endfacet
  facet normal -0.866026 0.499998 0
    outer loop
      vertex 70.8645 4.06737 0
      vertex 71.9098 5.87785 100
      vertex 71.9098 5.87785 0
    endloop
  endfacet
  facet normal -0.866026 0.499998 0
    outer loop
      vertex 71.9098 5.87785 100
      vertex 70.8645 4.06737 0
      vertex 70.8645 4.06737 100
    endloop
  endfacet
  facet normal -0.994522 0.104527 0
    outer loop
      vertex 70 0 0
      vertex 70.2185 2.07912 100
      vertex 70.2185 2.07912 0
    endloop
  endfacet
  facet normal -0.994522 0.104527 0
    outer loop
      vertex 70.2185 2.07912 100
      vertex 70 0 0
      vertex 70 0 100
    endloop
  endfacet
  facet normal -0.406737 0.913545 0
    outer loop
      vertex 76.9098 9.51056 0
      vertex 75 8.66025 100
      vertex 76.9098 9.51056 100
    endloop
  endfacet
  facet normal -0.406737 0.913545 0
    outer loop
      vertex 75 8.66025 100
      vertex 76.9098 9.51056 0
      vertex 75 8.66025 0
    endloop
  endfacet
  facet normal 0.994522 -0.104527 0
    outer loop
      vertex 89.7815 -2.07912 100
      vertex 90 0 0
      vertex 90 0 100
    endloop
  endfacet
  facet normal 0.994522 -0.104527 0
    outer loop
      vertex 90 0 0
      vertex 89.7815 -2.07912 100
      vertex 89.7815 -2.07912 0
    endloop
  endfacet
  facet normal -0.994522 -0.104527 0
    outer loop
      vertex 70.2185 -2.07912 0
      vertex 70 0 100
      vertex 70 0 0
    endloop
  endfacet
  facet normal -0.994522 -0.104527 0
    outer loop
      vertex 70 0 100
      vertex 70.2185 -2.07912 0
      vertex 70.2185 -2.07912 100
    endloop
  endfacet
  facet normal 0.866026 -0.499998 0
    outer loop
      vertex 88.0902 -5.87785 100
      vertex 89.1355 -4.06737 0
      vertex 89.1355 -4.06737 100
    endloop
  endfacet
  facet normal 0.866026 -0.499998 0
    outer loop
      vertex 89.1355 -4.06737 0
      vertex 88.0902 -5.87785 100
      vertex 88.0902 -5.87785 0
    endloop
  endfacet
  facet normal -0.743145 -0.669131 0
    outer loop
      vertex 73.3087 -7.43145 0
      vertex 71.9098 -5.87785 100
      vertex 71.9098 -5.87785 0
    endloop
  endfacet
  facet normal -0.743145 -0.669131 0
    outer loop
      vertex 71.9098 -5.87785 100
      vertex 73.3087 -7.43145 0
      vertex 73.3087 -7.43145 100
    endloop
  endfacet
  facet normal 0.587785 -0.809017 0
    outer loop
      vertex 85 -8.66025 0
      vertex 86.6913 -7.43145 100
      vertex 85 -8.66025 100
    endloop
  endfacet
  facet normal 0.587785 -0.809017 0
    outer loop
      vertex 86.6913 -7.43145 100
      vertex 85 -8.66025 0
      vertex 86.6913 -7.43145 0
    endloop
  endfacet
  facet normal -0.587785 -0.809017 0
    outer loop
      vertex 73.3087 -7.43145 0
      vertex 75 -8.66025 100
      vertex 73.3087 -7.43145 100
    endloop
  endfacet
  facet normal -0.587785 -0.809017 -0
    outer loop
      vertex 75 -8.66025 100
      vertex 73.3087 -7.43145 0
      vertex 75 -8.66025 0
    endloop
  endfacet
  facet normal -0.866026 -0.499998 0
    outer loop
      vertex 71.9098 -5.87785 0
      vertex 70.8645 -4.06737 100
      vertex 70.8645 -4.06737 0
    endloop
  endfacet
  facet normal -0.866026 -0.499998 0
    outer loop
      vertex 70.8645 -4.06737 100
      vertex 71.9098 -5.87785 0
      vertex 71.9098 -5.87785 100
    endloop
  endfacet
  facet normal -0.951056 -0.309019 0
    outer loop
      vertex 70.8645 -4.06737 0
      vertex 70.2185 -2.07912 100
      vertex 70.2185 -2.07912 0
    endloop
  endfacet
  facet normal -0.951056 -0.309019 0
    outer loop
      vertex 70.2185 -2.07912 100
      vertex 70.8645 -4.06737 0
      vertex 70.8645 -4.06737 100
    endloop
  endfacet
  facet normal 0.743145 -0.669131 0
    outer loop
      vertex 86.6913 -7.43145 100
      vertex 88.0902 -5.87785 0
      vertex 88.0902 -5.87785 100
    endloop
  endfacet
  facet normal 0.743145 -0.669131 0
    outer loop
      vertex 88.0902 -5.87785 0
      vertex 86.6913 -7.43145 100
      vertex 86.6913 -7.43145 0
    endloop
  endfacet
  facet normal -0.207912 -0.978148 0
    outer loop
      vertex 76.9098 -9.51056 0
      vertex 78.9547 -9.94522 100
      vertex 76.9098 -9.51056 100
    endloop
  endfacet
  facet normal -0.207912 -0.978148 -0
    outer loop
      vertex 78.9547 -9.94522 100
      vertex 76.9098 -9.51056 0
      vertex 78.9547 -9.94522 0
    endloop
  endfacet
  facet normal -0.406737 -0.913545 0
    outer loop
      vertex 75 -8.66025 0
      vertex 76.9098 -9.51056 100
      vertex 75 -8.66025 100
    endloop
  endfacet
  facet normal -0.406737 -0.913545 -0
    outer loop
      vertex 76.9098 -9.51056 100
      vertex 75 -8.66025 0
      vertex 76.9098 -9.51056 0
    endloop
  endfacet
  facet normal 0 -1 0
    outer loop
      vertex 78.9547 -9.94522 0
      vertex 81.0453 -9.94522 100
      vertex 78.9547 -9.94522 100
    endloop
  endfacet
  facet normal 0 -1 -0
    outer loop
      vertex 81.0453 -9.94522 100
      vertex 78.9547 -9.94522 0
      vertex 81.0453 -9.94522 0
    endloop
  endfacet
  facet normal 0.994522 0.104529 0
    outer loop
      vertex 10 80 100
      vertex 9.78148 82.0791 0
      vertex 9.78148 82.0791 100
    endloop
  endfacet
  facet normal 0.994522 0.104529 0
    outer loop
      vertex 9.78148 82.0791 0
      vertex 10 80 100
      vertex 10 80 0
    endloop
  endfacet
  facet normal -0.207912 0.978148 0
    outer loop
      vertex -1.04528 89.9452 0
      vertex -3.09017 89.5106 100
      vertex -1.04528 89.9452 100
    endloop
  endfacet
  facet normal -0.207912 0.978148 0
    outer loop
      vertex -3.09017 89.5106 100
      vertex -1.04528 89.9452 0
      vertex -3.09017 89.5106 0
    endloop
  endfacet
  facet normal 0.207912 -0.978148 0
    outer loop
      vertex 1.04528 70.0548 0
      vertex 3.09017 70.4894 100
      vertex 1.04528 70.0548 100
    endloop
  endfacet
  facet normal 0.207912 -0.978148 0
    outer loop
      vertex 3.09017 70.4894 100
      vertex 1.04528 70.0548 0
      vertex 3.09017 70.4894 0
    endloop
  endfacet
  facet normal 0.406737 -0.913545 0
    outer loop
      vertex 3.09017 70.4894 0
      vertex 5 71.3397 100
      vertex 3.09017 70.4894 100
    endloop
  endfacet
  facet normal 0.406737 -0.913545 0
    outer loop
      vertex 5 71.3397 100
      vertex 3.09017 70.4894 0
      vertex 5 71.3397 0
    endloop
  endfacet
  facet normal 0.587785 0.809017 -0
    outer loop
      vertex 6.69131 87.4314 0
      vertex 5 88.6603 100
      vertex 6.69131 87.4314 100
    endloop
  endfacet
  facet normal 0.587785 0.809017 0
    outer loop
      vertex 5 88.6603 100
      vertex 6.69131 87.4314 0
      vertex 5 88.6603 0
    endloop
  endfacet
  facet normal -0.743145 0.669131 0
    outer loop
      vertex -8.09017 85.8779 0
      vertex -6.69131 87.4314 100
      vertex -6.69131 87.4314 0
    endloop
  endfacet
  facet normal -0.743145 0.669131 0
    outer loop
      vertex -6.69131 87.4314 100
      vertex -8.09017 85.8779 0
      vertex -8.09017 85.8779 100
    endloop
  endfacet
  facet normal -0.587785 0.809017 0
    outer loop
      vertex -5 88.6603 0
      vertex -6.69131 87.4314 100
      vertex -5 88.6603 100
    endloop
  endfacet
  facet normal -0.587785 0.809017 0
    outer loop
      vertex -6.69131 87.4314 100
      vertex -5 88.6603 0
      vertex -6.69131 87.4314 0
    endloop
  endfacet
  facet normal 0.866025 0.5 0
    outer loop
      vertex 9.13545 84.0674 100
      vertex 8.09017 85.8779 0
      vertex 8.09017 85.8779 100
    endloop
  endfacet
  facet normal 0.866025 0.5 0
    outer loop
      vertex 8.09017 85.8779 0
      vertex 9.13545 84.0674 100
      vertex 9.13545 84.0674 0
    endloop
  endfacet
  facet normal 0.951057 0.309017 0
    outer loop
      vertex 9.78148 82.0791 100
      vertex 9.13545 84.0674 0
      vertex 9.13545 84.0674 100
    endloop
  endfacet
  facet normal 0.951057 0.309017 0
    outer loop
      vertex 9.13545 84.0674 0
      vertex 9.78148 82.0791 100
      vertex 9.78148 82.0791 0
    endloop
  endfacet
  facet normal 0.743145 0.669131 0
    outer loop
      vertex 8.09017 85.8779 100
      vertex 6.69131 87.4314 0
      vertex 6.69131 87.4314 100
    endloop
  endfacet
  facet normal 0.743145 0.669131 0
    outer loop
      vertex 6.69131 87.4314 0
      vertex 8.09017 85.8779 100
      vertex 8.09017 85.8779 0
    endloop
  endfacet
  facet normal 0.207912 0.978148 -0
    outer loop
      vertex 3.09017 89.5106 0
      vertex 1.04528 89.9452 100
      vertex 3.09017 89.5106 100
    endloop
  endfacet
  facet normal 0.207912 0.978148 0
    outer loop
      vertex 1.04528 89.9452 100
      vertex 3.09017 89.5106 0
      vertex 1.04528 89.9452 0
    endloop
  endfacet
  facet normal 0 1 -0
    outer loop
      vertex 1.04528 89.9452 0
      vertex -1.04528 89.9452 100
      vertex 1.04528 89.9452 100
    endloop
  endfacet
  facet normal 0 1 0
    outer loop
      vertex -1.04528 89.9452 100
      vertex 1.04528 89.9452 0
      vertex -1.04528 89.9452 0
    endloop
  endfacet
  facet normal 0.406737 0.913545 -0
    outer loop
      vertex 5 88.6603 0
      vertex 3.09017 89.5106 100
      vertex 5 88.6603 100
    endloop
  endfacet
  facet normal 0.406737 0.913545 0
    outer loop
      vertex 3.09017 89.5106 100
      vertex 5 88.6603 0
      vertex 3.09017 89.5106 0
    endloop
  endfacet
  facet normal -0.951057 0.309017 0
    outer loop
      vertex -9.78148 82.0791 0
      vertex -9.13545 84.0674 100
      vertex -9.13545 84.0674 0
    endloop
  endfacet
  facet normal -0.951057 0.309017 0
    outer loop
      vertex -9.13545 84.0674 100
      vertex -9.78148 82.0791 0
      vertex -9.78148 82.0791 100
    endloop
  endfacet
  facet normal 0 0 -1
    outer loop
      vertex 9.78148 77.9209 0
      vertex 9.78148 82.0791 0
      vertex 10 80 0
    endloop
  endfacet
  facet normal 0 0 -1
    outer loop
      vertex 9.13545 75.9326 0
      vertex 9.78148 82.0791 0
      vertex 9.78148 77.9209 0
    endloop
  endfacet
  facet normal 0 0 -1
    outer loop
      vertex 9.13545 75.9326 0
      vertex 9.13545 84.0674 0
      vertex 9.78148 82.0791 0
    endloop
  endfacet
  facet normal 0 0 -1
    outer loop
      vertex 8.09017 74.1221 0
      vertex 9.13545 84.0674 0
      vertex 9.13545 75.9326 0
    endloop
  endfacet
  facet normal 0 0 -1
    outer loop
      vertex 8.09017 74.1221 0
      vertex 8.09017 85.8779 0
      vertex 9.13545 84.0674 0
    endloop
  endfacet
  facet normal 0 0 -1
    outer loop
      vertex 6.69131 72.5686 0
      vertex 8.09017 85.8779 0
      vertex 8.09017 74.1221 0
    endloop
  endfacet
  facet normal 0 0 -1
    outer loop
      vertex 6.69131 72.5686 0
      vertex 6.69131 87.4314 0
      vertex 8.09017 85.8779 0
    endloop
  endfacet
  facet normal 0 0 -1
    outer loop
      vertex 5 71.3397 0
      vertex 6.69131 87.4314 0
      vertex 6.69131 72.5686 0
    endloop
  endfacet
  facet normal 0 0 -1
    outer loop
      vertex 5 71.3397 0
      vertex 5 88.6603 0
      vertex 6.69131 87.4314 0
    endloop
  endfacet
  facet normal 0 0 -1
    outer loop
      vertex 3.09017 70.4894 0
      vertex 5 88.6603 0
      vertex 5 71.3397 0
    endloop
  endfacet
  facet normal 0 0 -1
    outer loop
      vertex 3.09017 70.4894 0
      vertex 3.09017 89.5106 0
      vertex 5 88.6603 0
    endloop
  endfacet
  facet normal 0 0 -1
    outer loop
      vertex 1.04528 70.0548 0
      vertex 3.09017 89.5106 0
      vertex 3.09017 70.4894 0
    endloop
  endfacet
  facet normal 0 0 -1
    outer loop
      vertex 1.04528 70.0548 0
      vertex 1.04528 89.9452 0
      vertex 3.09017 89.5106 0
    endloop
  endfacet
  facet normal 0 0 -1
    outer loop
      vertex -1.04528 70.0548 0
      vertex 1.04528 89.9452 0
      vertex 1.04528 70.0548 0
    endloop
  endfacet
  facet normal 0 0 -1
    outer loop
      vertex -1.04528 70.0548 0
      vertex -1.04528 89.9452 0
      vertex 1.04528 89.9452 0
    endloop
  endfacet
  facet normal 0 0 -1
    outer loop
      vertex -3.09017 70.4894 0
      vertex -1.04528 89.9452 0
      vertex -1.04528 70.0548 0
    endloop
  endfacet
  facet normal 0 0 -1
    outer loop
      vertex -3.09017 70.4894 0
      vertex -3.09017 89.5106 0
      vertex -1.04528 89.9452 0
    endloop
  endfacet
  facet normal 0 0 -1
    outer loop
      vertex -3.09017 70.4894 0
      vertex -5 88.6603 0
      vertex -3.09017 89.5106 0
    endloop
  endfacet
  facet normal 0 0 -1
    outer loop
      vertex -5 71.3397 0
      vertex -5 88.6603 0
      vertex -3.09017 70.4894 0
    endloop
  endfacet
  facet normal 0 0 -1
    outer loop
      vertex -6.69131 72.5686 0
      vertex -5 88.6603 0
      vertex -5 71.3397 0
    endloop
  endfacet
  facet normal 0 0 -1
    outer loop
      vertex -6.69131 72.5686 0
      vertex -6.69131 87.4314 0
      vertex -5 88.6603 0
    endloop
  endfacet
  facet normal 0 0 -1
    outer loop
      vertex -8.09017 74.1221 0
      vertex -6.69131 87.4314 0
      vertex -6.69131 72.5686 0
    endloop
  endfacet
  facet normal 0 0 -1
    outer loop
      vertex -8.09017 74.1221 0
      vertex -8.09017 85.8779 0
      vertex -6.69131 87.4314 0
    endloop
  endfacet
  facet normal 0 0 -1
    outer loop
      vertex -9.13545 75.9326 0
      vertex -8.09017 85.8779 0
      vertex -8.09017 74.1221 0
    endloop
  endfacet
  facet normal 0 0 -1
    outer loop
      vertex -9.13545 75.9326 0
      vertex -9.13545 84.0674 0
      vertex -8.09017 85.8779 0
    endloop
  endfacet
  facet normal 0 0 -1
    outer loop
      vertex -9.78148 77.9209 0
      vertex -9.13545 84.0674 0
      vertex -9.13545 75.9326 0
    endloop
  endfacet
  facet normal 0 0 -1
    outer loop
      vertex -9.78148 77.9209 0
      vertex -9.78148 82.0791 0
      vertex -9.13545 84.0674 0
    endloop
  endfacet
  facet normal 0 -0 -1
    outer loop
      vertex -9.78148 82.0791 0
      vertex -9.78148 77.9209 0
      vertex -10 80 0
    endloop
  endfacet
  facet normal -0.866025 0.5 0
    outer loop
      vertex -9.13545 84.0674 0
      vertex -8.09017 85.8779 100
      vertex -8.09017 85.8779 0
    endloop
  endfacet
  facet normal -0.866025 0.5 0
    outer loop
      vertex -8.09017 85.8779 100
      vertex -9.13545 84.0674 0
      vertex -9.13545 84.0674 100
    endloop
  endfacet
  facet normal -0.994522 0.104529 0
    outer loop
      vertex -10 80 0
      vertex -9.78148 82.0791 100
      vertex -9.78148 82.0791 0
    endloop
  endfacet
  facet normal -0.994522 0.104529 0
    outer loop
      vertex -9.78148 82.0791 100
      vertex -10 80 0
      vertex -10 80 100
    endloop
  endfacet
  facet normal -0.406737 0.913545 0
    outer loop
      vertex -3.09017 89.5106 0
      vertex -5 88.6603 100
      vertex -3.09017 89.5106 100
    endloop
  endfacet
  facet normal -0.406737 0.913545 0
    outer loop
      vertex -5 88.6603 100
      vertex -3.09017 89.5106 0
      vertex -5 88.6603 0
    endloop
  endfacet
  facet normal 0.994522 -0.104529 0
    outer loop
      vertex 9.78148 77.9209 100
      vertex 10 80 0
      vertex 10 80 100
    endloop
  endfacet
  facet normal 0.994522 -0.104529 0
    outer loop
      vertex 10 80 0
      vertex 9.78148 77.9209 100
      vertex 9.78148 77.9209 0
    endloop
  endfacet
  facet normal -0.994522 -0.104529 0
    outer loop
      vertex -9.78148 77.9209 0
      vertex -10 80 100
      vertex -10 80 0
    endloop
  endfacet
  facet normal -0.994522 -0.104529 0
    outer loop
      vertex -10 80 100
      vertex -9.78148 77.9209 0
      vertex -9.78148 77.9209 100
    endloop
  endfacet
  facet normal 0.866025 -0.5 0
    outer loop
      vertex 8.09017 74.1221 100
      vertex 9.13545 75.9326 0
      vertex 9.13545 75.9326 100
    endloop
  endfacet
  facet normal 0.866025 -0.5 0
    outer loop
      vertex 9.13545 75.9326 0
      vertex 8.09017 74.1221 100
      vertex 8.09017 74.1221 0
    endloop
  endfacet
  facet normal -0.406737 -0.913545 0
    outer loop
      vertex -5 71.3397 0
      vertex -3.09017 70.4894 100
      vertex -5 71.3397 100
    endloop
  endfacet
  facet normal -0.406737 -0.913545 -0
    outer loop
      vertex -3.09017 70.4894 100
      vertex -5 71.3397 0
      vertex -3.09017 70.4894 0
    endloop
  endfacet
  facet normal -0.743145 -0.669131 0
    outer loop
      vertex -6.69131 72.5686 0
      vertex -8.09017 74.1221 100
      vertex -8.09017 74.1221 0
    endloop
  endfacet
  facet normal -0.743145 -0.669131 0
    outer loop
      vertex -8.09017 74.1221 100
      vertex -6.69131 72.5686 0
      vertex -6.69131 72.5686 100
    endloop
  endfacet
  facet normal -0.587785 -0.809017 0
    outer loop
      vertex -6.69131 72.5686 0
      vertex -5 71.3397 100
      vertex -6.69131 72.5686 100
    endloop
  endfacet
  facet normal -0.587785 -0.809017 -0
    outer loop
      vertex -5 71.3397 100
      vertex -6.69131 72.5686 0
      vertex -5 71.3397 0
    endloop
  endfacet
  facet normal 0.587785 -0.809017 0
    outer loop
      vertex 5 71.3397 0
      vertex 6.69131 72.5686 100
      vertex 5 71.3397 100
    endloop
  endfacet
  facet normal 0.587785 -0.809017 0
    outer loop
      vertex 6.69131 72.5686 100
      vertex 5 71.3397 0
      vertex 6.69131 72.5686 0
    endloop
  endfacet
  facet normal 0.951057 -0.309017 0
    outer loop
      vertex 9.13545 75.9326 100
      vertex 9.78148 77.9209 0
      vertex 9.78148 77.9209 100
    endloop
  endfacet
  facet normal 0.951057 -0.309017 0
    outer loop
      vertex 9.78148 77.9209 0
      vertex 9.13545 75.9326 100
      vertex 9.13545 75.9326 0
    endloop
  endfacet
  facet normal 0 -1 0
    outer loop
      vertex -1.04528 70.0548 0
      vertex 1.04528 70.0548 100
      vertex -1.04528 70.0548 100
    endloop
  endfacet
  facet normal 0 -1 -0
    outer loop
      vertex 1.04528 70.0548 100
      vertex -1.04528 70.0548 0
      vertex 1.04528 70.0548 0
    endloop
  endfacet
  facet normal -0.866025 -0.5 0
    outer loop
      vertex -8.09017 74.1221 0
      vertex -9.13545 75.9326 100
      vertex -9.13545 75.9326 0
    endloop
  endfacet
  facet normal -0.866025 -0.5 0
    outer loop
      vertex -9.13545 75.9326 100
      vertex -8.09017 74.1221 0
      vertex -8.09017 74.1221 100
    endloop
  endfacet
  facet normal -0.951057 -0.309017 0
    outer loop
      vertex -9.13545 75.9326 0
      vertex -9.78148 77.9209 100
      vertex -9.78148 77.9209 0
    endloop
  endfacet
  facet normal -0.951057 -0.309017 0
    outer loop
      vertex -9.78148 77.9209 100
      vertex -9.13545 75.9326 0
      vertex -9.13545 75.9326 100
    endloop
  endfacet
  facet normal 0.743145 -0.669131 0
    outer loop
      vertex 6.69131 72.5686 100
      vertex 8.09017 74.1221 0
      vertex 8.09017 74.1221 100
    endloop
  endfacet
  facet normal 0.743145 -0.669131 0
    outer loop
      vertex 8.09017 74.1221 0
      vertex 6.69131 72.5686 100
      vertex 6.69131 72.5686 0
    endloop
  endfacet
  facet normal -0.207912 -0.978148 0
    outer loop
      vertex -3.09017 70.4894 0
      vertex -1.04528 70.0548 100
      vertex -3.09017 70.4894 100
    endloop
  endfacet
  facet normal -0.207912 -0.978148 -0
    outer loop
      vertex -1.04528 70.0548 100
      vertex -3.09017 70.4894 0
      vertex -1.04528 70.0548 0
    endloop
  endfacet
  facet normal 0.994522 0.104527 0
    outer loop
      vertex -70 0 100
      vertex -70.2185 2.07912 0
      vertex -70.2185 2.07912 100
    endloop
  endfacet
  facet normal 0.994522 0.104527 0
    outer loop
      vertex -70.2185 2.07912 0
      vertex -70 0 100
      vertex -70 0 0
    endloop
  endfacet
  facet normal -0.994522 0.104527 0
    outer loop
      vertex -90 0 0
      vertex -89.7815 2.07912 100
      vertex -89.7815 2.07912 0
    endloop
  endfacet
  facet normal -0.994522 0.104527 0
    outer loop
      vertex -89.7815 2.07912 100
      vertex -90 0 0
      vertex -90 0 100
    endloop
  endfacet
  facet normal 0 1 -0
    outer loop
      vertex -78.9547 9.94522 0
      vertex -81.0453 9.94522 100
      vertex -78.9547 9.94522 100
    endloop
  endfacet
  facet normal 0 1 0
    outer loop
      vertex -81.0453 9.94522 100
      vertex -78.9547 9.94522 0
      vertex -81.0453 9.94522 0
    endloop
  endfacet
  facet normal 0 -1 0
    outer loop
      vertex -81.0453 -9.94522 0
      vertex -78.9547 -9.94522 100
      vertex -81.0453 -9.94522 100
    endloop
  endfacet
  facet normal 0 -1 -0
    outer loop
      vertex -78.9547 -9.94522 100
      vertex -81.0453 -9.94522 0
      vertex -78.9547 -9.94522 0
    endloop
  endfacet
  facet normal 0.743145 0.669131 0
    outer loop
      vertex -71.9098 5.87785 100
      vertex -73.3087 7.43145 0
      vertex -73.3087 7.43145 100
    endloop
  endfacet
  facet normal 0.743145 0.669131 0
    outer loop
      vertex -73.3087 7.43145 0
      vertex -71.9098 5.87785 100
      vertex -71.9098 5.87785 0
    endloop
  endfacet
  facet normal -0.743145 0.669131 0
    outer loop
      vertex -88.0902 5.87785 0
      vertex -86.6913 7.43145 100
      vertex -86.6913 7.43145 0
    endloop
  endfacet
  facet normal -0.743145 0.669131 0
    outer loop
      vertex -86.6913 7.43145 100
      vertex -88.0902 5.87785 0
      vertex -88.0902 5.87785 100
    endloop
  endfacet
  facet normal -0.866026 0.499998 0
    outer loop
      vertex -89.1355 4.06737 0
      vertex -88.0902 5.87785 100
      vertex -88.0902 5.87785 0
    endloop
  endfacet
  facet normal -0.866026 0.499998 0
    outer loop
      vertex -88.0902 5.87785 100
      vertex -89.1355 4.06737 0
      vertex -89.1355 4.06737 100
    endloop
  endfacet
  facet normal -0.406737 0.913545 0
    outer loop
      vertex -83.0902 9.51056 0
      vertex -85 8.66025 100
      vertex -83.0902 9.51056 100
    endloop
  endfacet
  facet normal -0.406737 0.913545 0
    outer loop
      vertex -85 8.66025 100
      vertex -83.0902 9.51056 0
      vertex -85 8.66025 0
    endloop
  endfacet
  facet normal 0.866026 0.499998 0
    outer loop
      vertex -70.8645 4.06737 100
      vertex -71.9098 5.87785 0
      vertex -71.9098 5.87785 100
    endloop
  endfacet
  facet normal 0.866026 0.499998 0
    outer loop
      vertex -71.9098 5.87785 0
      vertex -70.8645 4.06737 100
      vertex -70.8645 4.06737 0
    endloop
  endfacet
  facet normal 0.951056 0.309019 0
    outer loop
      vertex -70.2185 2.07912 100
      vertex -70.8645 4.06737 0
      vertex -70.8645 4.06737 100
    endloop
  endfacet
  facet normal 0.951056 0.309019 0
    outer loop
      vertex -70.8645 4.06737 0
      vertex -70.2185 2.07912 100
      vertex -70.2185 2.07912 0
    endloop
  endfacet
  facet normal 0.406737 0.913545 -0
    outer loop
      vertex -75 8.66025 0
      vertex -76.9098 9.51056 100
      vertex -75 8.66025 100
    endloop
  endfacet
  facet normal 0.406737 0.913545 0
    outer loop
      vertex -76.9098 9.51056 100
      vertex -75 8.66025 0
      vertex -76.9098 9.51056 0
    endloop
  endfacet
  facet normal 0.207912 0.978148 -0
    outer loop
      vertex -76.9098 9.51056 0
      vertex -78.9547 9.94522 100
      vertex -76.9098 9.51056 100
    endloop
  endfacet
  facet normal 0.207912 0.978148 0
    outer loop
      vertex -78.9547 9.94522 100
      vertex -76.9098 9.51056 0
      vertex -78.9547 9.94522 0
    endloop
  endfacet
  facet normal 0.587785 0.809017 -0
    outer loop
      vertex -73.3087 7.43145 0
      vertex -75 8.66025 100
      vertex -73.3087 7.43145 100
    endloop
  endfacet
  facet normal 0.587785 0.809017 0
    outer loop
      vertex -75 8.66025 100
      vertex -73.3087 7.43145 0
      vertex -75 8.66025 0
    endloop
  endfacet
  facet normal -0.951056 0.309019 0
    outer loop
      vertex -89.7815 2.07912 0
      vertex -89.1355 4.06737 100
      vertex -89.1355 4.06737 0
    endloop
  endfacet
  facet normal -0.951056 0.309019 0
    outer loop
      vertex -89.1355 4.06737 100
      vertex -89.7815 2.07912 0
      vertex -89.7815 2.07912 100
    endloop
  endfacet
  facet normal -0.587785 0.809017 0
    outer loop
      vertex -85 8.66025 0
      vertex -86.6913 7.43145 100
      vertex -85 8.66025 100
    endloop
  endfacet
  facet normal -0.587785 0.809017 0
    outer loop
      vertex -86.6913 7.43145 100
      vertex -85 8.66025 0
      vertex -86.6913 7.43145 0
    endloop
  endfacet
  facet normal -0.207912 0.978148 0
    outer loop
      vertex -81.0453 9.94522 0
      vertex -83.0902 9.51056 100
      vertex -81.0453 9.94522 100
    endloop
  endfacet
  facet normal -0.207912 0.978148 0
    outer loop
      vertex -83.0902 9.51056 100
      vertex -81.0453 9.94522 0
      vertex -83.0902 9.51056 0
    endloop
  endfacet
  facet normal 0.994522 -0.104527 0
    outer loop
      vertex -70.2185 -2.07912 100
      vertex -70 0 0
      vertex -70 0 100
    endloop
  endfacet
  facet normal 0.994522 -0.104527 0
    outer loop
      vertex -70 0 0
      vertex -70.2185 -2.07912 100
      vertex -70.2185 -2.07912 0
    endloop
  endfacet
  facet normal 0 0 -1
    outer loop
      vertex -70.2185 -2.07912 0
      vertex -70.2185 2.07912 0
      vertex -70 0 0
    endloop
  endfacet
  facet normal 0 0 -1
    outer loop
      vertex -70.8645 -4.06737 0
      vertex -70.2185 2.07912 0
      vertex -70.2185 -2.07912 0
    endloop
  endfacet
  facet normal 0 0 -1
    outer loop
      vertex -70.8645 -4.06737 0
      vertex -70.8645 4.06737 0
      vertex -70.2185 2.07912 0
    endloop
  endfacet
  facet normal 0 0 -1
    outer loop
      vertex -71.9098 -5.87785 0
      vertex -70.8645 4.06737 0
      vertex -70.8645 -4.06737 0
    endloop
  endfacet
  facet normal 0 0 -1
    outer loop
      vertex -71.9098 -5.87785 0
      vertex -71.9098 5.87785 0
      vertex -70.8645 4.06737 0
    endloop
  endfacet
  facet normal 0 0 -1
    outer loop
      vertex -73.3087 -7.43145 0
      vertex -71.9098 5.87785 0
      vertex -71.9098 -5.87785 0
    endloop
  endfacet
  facet normal 0 0 -1
    outer loop
      vertex -73.3087 -7.43145 0
      vertex -73.3087 7.43145 0
      vertex -71.9098 5.87785 0
    endloop
  endfacet
  facet normal 0 0 -1
    outer loop
      vertex -75 -8.66025 0
      vertex -73.3087 7.43145 0
      vertex -73.3087 -7.43145 0
    endloop
  endfacet
  facet normal 0 0 -1
    outer loop
      vertex -75 -8.66025 0
      vertex -75 8.66025 0
      vertex -73.3087 7.43145 0
    endloop
  endfacet
  facet normal 0 0 -1
    outer loop
      vertex -76.9098 -9.51056 0
      vertex -75 8.66025 0
      vertex -75 -8.66025 0
    endloop
  endfacet
  facet normal 0 0 -1
    outer loop
      vertex -76.9098 -9.51056 0
      vertex -76.9098 9.51056 0
      vertex -75 8.66025 0
    endloop
  endfacet
  facet normal 0 0 -1
    outer loop
      vertex -78.9547 -9.94522 0
      vertex -76.9098 9.51056 0
      vertex -76.9098 -9.51056 0
    endloop
  endfacet
  facet normal 0 0 -1
    outer loop
      vertex -78.9547 -9.94522 0
      vertex -78.9547 9.94522 0
      vertex -76.9098 9.51056 0
    endloop
  endfacet
  facet normal 0 0 -1
    outer loop
      vertex -81.0453 -9.94522 0
      vertex -78.9547 9.94522 0
      vertex -78.9547 -9.94522 0
    endloop
  endfacet
  facet normal 0 0 -1
    outer loop
      vertex -81.0453 -9.94522 0
      vertex -81.0453 9.94522 0
      vertex -78.9547 9.94522 0
    endloop
  endfacet
  facet normal 0 0 -1
    outer loop
      vertex -83.0902 -9.51056 0
      vertex -81.0453 9.94522 0
      vertex -81.0453 -9.94522 0
    endloop
  endfacet
  facet normal 0 0 -1
    outer loop
      vertex -83.0902 -9.51056 0
      vertex -83.0902 9.51056 0
      vertex -81.0453 9.94522 0
    endloop
  endfacet
  facet normal 0 0 -1
    outer loop
      vertex -85 -8.66025 0
      vertex -83.0902 9.51056 0
      vertex -83.0902 -9.51056 0
    endloop
  endfacet
  facet normal 0 0 -1
    outer loop
      vertex -85 -8.66025 0
      vertex -85 8.66025 0
      vertex -83.0902 9.51056 0
    endloop
  endfacet
  facet normal 0 0 -1
    outer loop
      vertex -86.6913 -7.43145 0
      vertex -85 8.66025 0
      vertex -85 -8.66025 0
    endloop
  endfacet
  facet normal 0 0 -1
    outer loop
      vertex -86.6913 -7.43145 0
      vertex -86.6913 7.43145 0
      vertex -85 8.66025 0
    endloop
  endfacet
  facet normal 0 0 -1
    outer loop
      vertex -88.0902 -5.87785 0
      vertex -86.6913 7.43145 0
      vertex -86.6913 -7.43145 0
    endloop
  endfacet
  facet normal 0 0 -1
    outer loop
      vertex -88.0902 -5.87785 0
      vertex -88.0902 5.87785 0
      vertex -86.6913 7.43145 0
    endloop
  endfacet
  facet normal 0 0 -1
    outer loop
      vertex -89.1355 -4.06737 0
      vertex -88.0902 5.87785 0
      vertex -88.0902 -5.87785 0
    endloop
  endfacet
  facet normal 0 0 -1
    outer loop
      vertex -89.1355 -4.06737 0
      vertex -89.1355 4.06737 0
      vertex -88.0902 5.87785 0
    endloop
  endfacet
  facet normal 0 0 -1
    outer loop
      vertex -89.7815 -2.07912 0
      vertex -89.1355 4.06737 0
      vertex -89.1355 -4.06737 0
    endloop
  endfacet
  facet normal 0 0 -1
    outer loop
      vertex -89.7815 -2.07912 0
      vertex -89.7815 2.07912 0
      vertex -89.1355 4.06737 0
    endloop
  endfacet
  facet normal 0 -0 -1
    outer loop
      vertex -89.7815 2.07912 0
      vertex -89.7815 -2.07912 0
      vertex -90 0 0
    endloop
  endfacet
  facet normal 0.207912 -0.978148 0
    outer loop
      vertex -78.9547 -9.94522 0
      vertex -76.9098 -9.51056 100
      vertex -78.9547 -9.94522 100
    endloop
  endfacet
  facet normal 0.207912 -0.978148 0
    outer loop
      vertex -76.9098 -9.51056 100
      vertex -78.9547 -9.94522 0
      vertex -76.9098 -9.51056 0
    endloop
  endfacet
  facet normal 0.866026 -0.499998 0
    outer loop
      vertex -71.9098 -5.87785 100
      vertex -70.8645 -4.06737 0
      vertex -70.8645 -4.06737 100
    endloop
  endfacet
  facet normal 0.866026 -0.499998 0
    outer loop
      vertex -70.8645 -4.06737 0
      vertex -71.9098 -5.87785 100
      vertex -71.9098 -5.87785 0
    endloop
  endfacet
  facet normal -0.866026 -0.499998 0
    outer loop
      vertex -88.0902 -5.87785 0
      vertex -89.1355 -4.06737 100
      vertex -89.1355 -4.06737 0
    endloop
  endfacet
  facet normal -0.866026 -0.499998 0
    outer loop
      vertex -89.1355 -4.06737 100
      vertex -88.0902 -5.87785 0
      vertex -88.0902 -5.87785 100
    endloop
  endfacet
  facet normal -0.994522 -0.104527 0
    outer loop
      vertex -89.7815 -2.07912 0
      vertex -90 0 100
      vertex -90 0 0
    endloop
  endfacet
  facet normal -0.994522 -0.104527 0
    outer loop
      vertex -90 0 100
      vertex -89.7815 -2.07912 0
      vertex -89.7815 -2.07912 100
    endloop
  endfacet
  facet normal 0.587785 -0.809017 0
    outer loop
      vertex -75 -8.66025 0
      vertex -73.3087 -7.43145 100
      vertex -75 -8.66025 100
    endloop
  endfacet
  facet normal 0.587785 -0.809017 0
    outer loop
      vertex -73.3087 -7.43145 100
      vertex -75 -8.66025 0
      vertex -73.3087 -7.43145 0
    endloop
  endfacet
  facet normal 0.406737 -0.913545 0
    outer loop
      vertex -76.9098 -9.51056 0
      vertex -75 -8.66025 100
      vertex -76.9098 -9.51056 100
    endloop
  endfacet
  facet normal 0.406737 -0.913545 0
    outer loop
      vertex -75 -8.66025 100
      vertex -76.9098 -9.51056 0
      vertex -75 -8.66025 0
    endloop
  endfacet
  facet normal 0.951056 -0.309019 0
    outer loop
      vertex -70.8645 -4.06737 100
      vertex -70.2185 -2.07912 0
      vertex -70.2185 -2.07912 100
    endloop
  endfacet
  facet normal 0.951056 -0.309019 0
    outer loop
      vertex -70.2185 -2.07912 0
      vertex -70.8645 -4.06737 100
      vertex -70.8645 -4.06737 0
    endloop
  endfacet
  facet normal -0.743145 -0.669131 0
    outer loop
      vertex -86.6913 -7.43145 0
      vertex -88.0902 -5.87785 100
      vertex -88.0902 -5.87785 0
    endloop
  endfacet
  facet normal -0.743145 -0.669131 0
    outer loop
      vertex -88.0902 -5.87785 100
      vertex -86.6913 -7.43145 0
      vertex -86.6913 -7.43145 100
    endloop
  endfacet
  facet normal -0.951056 -0.309019 0
    outer loop
      vertex -89.1355 -4.06737 0
      vertex -89.7815 -2.07912 100
      vertex -89.7815 -2.07912 0
    endloop
  endfacet
  facet normal -0.951056 -0.309019 0
    outer loop
      vertex -89.7815 -2.07912 100
      vertex -89.1355 -4.06737 0
      vertex -89.1355 -4.06737 100
    endloop
  endfacet
  facet normal 0.743145 -0.669131 0
    outer loop
      vertex -73.3087 -7.43145 100
      vertex -71.9098 -5.87785 0
      vertex -71.9098 -5.87785 100
    endloop
  endfacet
  facet normal 0.743145 -0.669131 0
    outer loop
      vertex -71.9098 -5.87785 0
      vertex -73.3087 -7.43145 100
      vertex -73.3087 -7.43145 0
    endloop
  endfacet
  facet normal -0.406737 -0.913545 0
    outer loop
      vertex -85 -8.66025 0
      vertex -83.0902 -9.51056 100
      vertex -85 -8.66025 100
    endloop
  endfacet
  facet normal -0.406737 -0.913545 -0
    outer loop
      vertex -83.0902 -9.51056 100
      vertex -85 -8.66025 0
      vertex -83.0902 -9.51056 0
    endloop
  endfacet
  facet normal -0.587785 -0.809017 0
    outer loop
      vertex -86.6913 -7.43145 0
      vertex -85 -8.66025 100
      vertex -86.6913 -7.43145 100
    endloop
  endfacet
  facet normal -0.587785 -0.809017 -0
    outer loop
      vertex -85 -8.66025 100
      vertex -86.6913 -7.43145 0
      vertex -85 -8.66025 0
    endloop
  endfacet
  facet normal -0.207912 -0.978148 0
    outer loop
      vertex -83.0902 -9.51056 0
      vertex -81.0453 -9.94522 100
      vertex -83.0902 -9.51056 100
    endloop
  endfacet
  facet normal -0.207912 -0.978148 -0
    outer loop
      vertex -81.0453 -9.94522 100
      vertex -83.0902 -9.51056 0
      vertex -81.0453 -9.94522 0
    endloop
  endfacet
  facet normal 0.866025 0.5 0
    outer loop
      vertex 9.13545 -75.9326 100
      vertex 8.09017 -74.1221 0
      vertex 8.09017 -74.1221 100
    endloop
  endfacet
  facet normal 0.866025 0.5 0
    outer loop
      vertex 8.09017 -74.1221 0
      vertex 9.13545 -75.9326 100
      vertex 9.13545 -75.9326 0
    endloop
  endfacet
  facet normal -0.951057 0.309017 0
    outer loop
      vertex -9.78148 -77.9209 0
      vertex -9.13545 -75.9326 100
      vertex -9.13545 -75.9326 0
    endloop
  endfacet
  facet normal -0.951057 0.309017 0
    outer loop
      vertex -9.13545 -75.9326 100
      vertex -9.78148 -77.9209 0
      vertex -9.78148 -77.9209 100
    endloop
  endfacet
  facet normal 0.743145 0.669131 0
    outer loop
      vertex 8.09017 -74.1221 100
      vertex 6.69131 -72.5686 0
      vertex 6.69131 -72.5686 100
    endloop
  endfacet
  facet normal 0.743145 0.669131 0
    outer loop
      vertex 6.69131 -72.5686 0
      vertex 8.09017 -74.1221 100
      vertex 8.09017 -74.1221 0
    endloop
  endfacet
  facet normal 0.207912 0.978148 -0
    outer loop
      vertex 3.09017 -70.4894 0
      vertex 1.04528 -70.0548 100
      vertex 3.09017 -70.4894 100
    endloop
  endfacet
  facet normal 0.207912 0.978148 0
    outer loop
      vertex 1.04528 -70.0548 100
      vertex 3.09017 -70.4894 0
      vertex 1.04528 -70.0548 0
    endloop
  endfacet
  facet normal 0.406737 0.913545 -0
    outer loop
      vertex 5 -71.3397 0
      vertex 3.09017 -70.4894 100
      vertex 5 -71.3397 100
    endloop
  endfacet
  facet normal 0.406737 0.913545 0
    outer loop
      vertex 3.09017 -70.4894 100
      vertex 5 -71.3397 0
      vertex 3.09017 -70.4894 0
    endloop
  endfacet
  facet normal -0.406737 0.913545 0
    outer loop
      vertex -3.09017 -70.4894 0
      vertex -5 -71.3397 100
      vertex -3.09017 -70.4894 100
    endloop
  endfacet
  facet normal -0.406737 0.913545 0
    outer loop
      vertex -5 -71.3397 100
      vertex -3.09017 -70.4894 0
      vertex -5 -71.3397 0
    endloop
  endfacet
  facet normal 0.994522 -0.104529 0
    outer loop
      vertex 9.78148 -82.0791 100
      vertex 10 -80 0
      vertex 10 -80 100
    endloop
  endfacet
  facet normal 0.994522 -0.104529 0
    outer loop
      vertex 10 -80 0
      vertex 9.78148 -82.0791 100
      vertex 9.78148 -82.0791 0
    endloop
  endfacet
  facet normal 0.951057 0.309017 0
    outer loop
      vertex 9.78148 -77.9209 100
      vertex 9.13545 -75.9326 0
      vertex 9.13545 -75.9326 100
    endloop
  endfacet
  facet normal 0.951057 0.309017 0
    outer loop
      vertex 9.13545 -75.9326 0
      vertex 9.78148 -77.9209 100
      vertex 9.78148 -77.9209 0
    endloop
  endfacet
  facet normal 0.587785 0.809017 -0
    outer loop
      vertex 6.69131 -72.5686 0
      vertex 5 -71.3397 100
      vertex 6.69131 -72.5686 100
    endloop
  endfacet
  facet normal 0.587785 0.809017 0
    outer loop
      vertex 5 -71.3397 100
      vertex 6.69131 -72.5686 0
      vertex 5 -71.3397 0
    endloop
  endfacet
  facet normal 0 1 -0
    outer loop
      vertex 1.04528 -70.0548 0
      vertex -1.04528 -70.0548 100
      vertex 1.04528 -70.0548 100
    endloop
  endfacet
  facet normal 0 1 0
    outer loop
      vertex -1.04528 -70.0548 100
      vertex 1.04528 -70.0548 0
      vertex -1.04528 -70.0548 0
    endloop
  endfacet
  facet normal -0.994522 0.104529 0
    outer loop
      vertex -10 -80 0
      vertex -9.78148 -77.9209 100
      vertex -9.78148 -77.9209 0
    endloop
  endfacet
  facet normal -0.994522 0.104529 0
    outer loop
      vertex -9.78148 -77.9209 100
      vertex -10 -80 0
      vertex -10 -80 100
    endloop
  endfacet
  facet normal -0.866025 0.5 0
    outer loop
      vertex -9.13545 -75.9326 0
      vertex -8.09017 -74.1221 100
      vertex -8.09017 -74.1221 0
    endloop
  endfacet
  facet normal -0.866025 0.5 0
    outer loop
      vertex -8.09017 -74.1221 100
      vertex -9.13545 -75.9326 0
      vertex -9.13545 -75.9326 100
    endloop
  endfacet
  facet normal -0.587785 0.809017 0
    outer loop
      vertex -5 -71.3397 0
      vertex -6.69131 -72.5686 100
      vertex -5 -71.3397 100
    endloop
  endfacet
  facet normal -0.587785 0.809017 0
    outer loop
      vertex -6.69131 -72.5686 100
      vertex -5 -71.3397 0
      vertex -6.69131 -72.5686 0
    endloop
  endfacet
  facet normal -0.207912 0.978148 0
    outer loop
      vertex -1.04528 -70.0548 0
      vertex -3.09017 -70.4894 100
      vertex -1.04528 -70.0548 100
    endloop
  endfacet
  facet normal -0.207912 0.978148 0
    outer loop
      vertex -3.09017 -70.4894 100
      vertex -1.04528 -70.0548 0
      vertex -3.09017 -70.4894 0
    endloop
  endfacet
  facet normal -0.743145 0.669131 0
    outer loop
      vertex -8.09017 -74.1221 0
      vertex -6.69131 -72.5686 100
      vertex -6.69131 -72.5686 0
    endloop
  endfacet
  facet normal -0.743145 0.669131 0
    outer loop
      vertex -6.69131 -72.5686 100
      vertex -8.09017 -74.1221 0
      vertex -8.09017 -74.1221 100
    endloop
  endfacet
  facet normal 0.994522 0.104529 0
    outer loop
      vertex 10 -80 100
      vertex 9.78148 -77.9209 0
      vertex 9.78148 -77.9209 100
    endloop
  endfacet
  facet normal 0.994522 0.104529 0
    outer loop
      vertex 9.78148 -77.9209 0
      vertex 10 -80 100
      vertex 10 -80 0
    endloop
  endfacet
  facet normal -0.207912 -0.978148 0
    outer loop
      vertex -3.09017 -89.5106 0
      vertex -1.04528 -89.9452 100
      vertex -3.09017 -89.5106 100
    endloop
  endfacet
  facet normal -0.207912 -0.978148 -0
    outer loop
      vertex -1.04528 -89.9452 100
      vertex -3.09017 -89.5106 0
      vertex -1.04528 -89.9452 0
    endloop
  endfacet
  facet normal 0.587785 -0.809017 0
    outer loop
      vertex 5 -88.6603 0
      vertex 6.69131 -87.4314 100
      vertex 5 -88.6603 100
    endloop
  endfacet
  facet normal 0.587785 -0.809017 0
    outer loop
      vertex 6.69131 -87.4314 100
      vertex 5 -88.6603 0
      vertex 6.69131 -87.4314 0
    endloop
  endfacet
  facet normal 0.951057 -0.309017 0
    outer loop
      vertex 9.13545 -84.0674 100
      vertex 9.78148 -82.0791 0
      vertex 9.78148 -82.0791 100
    endloop
  endfacet
  facet normal 0.951057 -0.309017 0
    outer loop
      vertex 9.78148 -82.0791 0
      vertex 9.13545 -84.0674 100
      vertex 9.13545 -84.0674 0
    endloop
  endfacet
  facet normal 0.866025 -0.5 0
    outer loop
      vertex 8.09017 -85.8779 100
      vertex 9.13545 -84.0674 0
      vertex 9.13545 -84.0674 100
    endloop
  endfacet
  facet normal 0.866025 -0.5 0
    outer loop
      vertex 9.13545 -84.0674 0
      vertex 8.09017 -85.8779 100
      vertex 8.09017 -85.8779 0
    endloop
  endfacet
  facet normal -0.994522 -0.104529 0
    outer loop
      vertex -9.78148 -82.0791 0
      vertex -10 -80 100
      vertex -10 -80 0
    endloop
  endfacet
  facet normal -0.994522 -0.104529 0
    outer loop
      vertex -10 -80 100
      vertex -9.78148 -82.0791 0
      vertex -9.78148 -82.0791 100
    endloop
  endfacet
  facet normal 0.207912 -0.978148 0
    outer loop
      vertex 1.04528 -89.9452 0
      vertex 3.09017 -89.5106 100
      vertex 1.04528 -89.9452 100
    endloop
  endfacet
  facet normal 0.207912 -0.978148 0
    outer loop
      vertex 3.09017 -89.5106 100
      vertex 1.04528 -89.9452 0
      vertex 3.09017 -89.5106 0
    endloop
  endfacet
  facet normal 0.406737 -0.913545 0
    outer loop
      vertex 3.09017 -89.5106 0
      vertex 5 -88.6603 100
      vertex 3.09017 -89.5106 100
    endloop
  endfacet
  facet normal 0.406737 -0.913545 0
    outer loop
      vertex 5 -88.6603 100
      vertex 3.09017 -89.5106 0
      vertex 5 -88.6603 0
    endloop
  endfacet
  facet normal 0.743145 -0.669131 0
    outer loop
      vertex 6.69131 -87.4314 100
      vertex 8.09017 -85.8779 0
      vertex 8.09017 -85.8779 100
    endloop
  endfacet
  facet normal 0.743145 -0.669131 0
    outer loop
      vertex 8.09017 -85.8779 0
      vertex 6.69131 -87.4314 100
      vertex 6.69131 -87.4314 0
    endloop
  endfacet
  facet normal -0.406737 -0.913545 0
    outer loop
      vertex -5 -88.6603 0
      vertex -3.09017 -89.5106 100
      vertex -5 -88.6603 100
    endloop
  endfacet
  facet normal -0.406737 -0.913545 -0
    outer loop
      vertex -3.09017 -89.5106 100
      vertex -5 -88.6603 0
      vertex -3.09017 -89.5106 0
    endloop
  endfacet
  facet normal 0 -1 0
    outer loop
      vertex -1.04528 -89.9452 0
      vertex 1.04528 -89.9452 100
      vertex -1.04528 -89.9452 100
    endloop
  endfacet
  facet normal 0 -1 -0
    outer loop
      vertex 1.04528 -89.9452 100
      vertex -1.04528 -89.9452 0
      vertex 1.04528 -89.9452 0
    endloop
  endfacet
  facet normal 0 0 -1
    outer loop
      vertex 9.78148 -82.0791 0
      vertex 9.78148 -77.9209 0
      vertex 10 -80 0
    endloop
  endfacet
  facet normal 0 0 -1
    outer loop
      vertex 9.13545 -84.0674 0
      vertex 9.78148 -77.9209 0
      vertex 9.78148 -82.0791 0
    endloop
  endfacet
  facet normal 0 0 -1
    outer loop
      vertex 9.13545 -84.0674 0
      vertex 9.13545 -75.9326 0
      vertex 9.78148 -77.9209 0
    endloop
  endfacet
  facet normal 0 0 -1
    outer loop
      vertex 8.09017 -85.8779 0
      vertex 9.13545 -75.9326 0
      vertex 9.13545 -84.0674 0
    endloop
  endfacet
  facet normal 0 0 -1
    outer loop
      vertex 8.09017 -85.8779 0
      vertex 8.09017 -74.1221 0
      vertex 9.13545 -75.9326 0
    endloop
  endfacet
  facet normal 0 0 -1
    outer loop
      vertex 6.69131 -87.4314 0
      vertex 8.09017 -74.1221 0
      vertex 8.09017 -85.8779 0
    endloop
  endfacet
  facet normal 0 0 -1
    outer loop
      vertex 6.69131 -87.4314 0
      vertex 6.69131 -72.5686 0
      vertex 8.09017 -74.1221 0
    endloop
  endfacet
  facet normal 0 0 -1
    outer loop
      vertex 5 -88.6603 0
      vertex 6.69131 -72.5686 0
      vertex 6.69131 -87.4314 0
    endloop
  endfacet
  facet normal 0 0 -1
    outer loop
      vertex 5 -88.6603 0
      vertex 5 -71.3397 0
      vertex 6.69131 -72.5686 0
    endloop
  endfacet
  facet normal 0 0 -1
    outer loop
      vertex 3.09017 -89.5106 0
      vertex 5 -71.3397 0
      vertex 5 -88.6603 0
    endloop
  endfacet
  facet normal 0 0 -1
    outer loop
      vertex 3.09017 -89.5106 0
      vertex 3.09017 -70.4894 0
      vertex 5 -71.3397 0
    endloop
  endfacet
  facet normal 0 0 -1
    outer loop
      vertex 1.04528 -89.9452 0
      vertex 3.09017 -70.4894 0
      vertex 3.09017 -89.5106 0
    endloop
  endfacet
  facet normal 0 0 -1
    outer loop
      vertex 1.04528 -89.9452 0
      vertex 1.04528 -70.0548 0
      vertex 3.09017 -70.4894 0
    endloop
  endfacet
  facet normal 0 0 -1
    outer loop
      vertex -1.04528 -89.9452 0
      vertex 1.04528 -70.0548 0
      vertex 1.04528 -89.9452 0
    endloop
  endfacet
  facet normal 0 0 -1
    outer loop
      vertex -1.04528 -89.9452 0
      vertex -1.04528 -70.0548 0
      vertex 1.04528 -70.0548 0
    endloop
  endfacet
  facet normal 0 0 -1
    outer loop
      vertex -3.09017 -89.5106 0
      vertex -1.04528 -70.0548 0
      vertex -1.04528 -89.9452 0
    endloop
  endfacet
  facet normal 0 0 -1
    outer loop
      vertex -3.09017 -89.5106 0
      vertex -3.09017 -70.4894 0
      vertex -1.04528 -70.0548 0
    endloop
  endfacet
  facet normal 0 0 -1
    outer loop
      vertex -3.09017 -89.5106 0
      vertex -5 -71.3397 0
      vertex -3.09017 -70.4894 0
    endloop
  endfacet
  facet normal 0 0 -1
    outer loop
      vertex -5 -88.6603 0
      vertex -5 -71.3397 0
      vertex -3.09017 -89.5106 0
    endloop
  endfacet
  facet normal 0 0 -1
    outer loop
      vertex -6.69131 -87.4314 0
      vertex -5 -71.3397 0
      vertex -5 -88.6603 0
    endloop
  endfacet
  facet normal 0 0 -1
    outer loop
      vertex -6.69131 -87.4314 0
      vertex -6.69131 -72.5686 0
      vertex -5 -71.3397 0
    endloop
  endfacet
  facet normal 0 0 -1
    outer loop
      vertex -8.09017 -85.8779 0
      vertex -6.69131 -72.5686 0
      vertex -6.69131 -87.4314 0
    endloop
  endfacet
  facet normal 0 0 -1
    outer loop
      vertex -8.09017 -85.8779 0
      vertex -8.09017 -74.1221 0
      vertex -6.69131 -72.5686 0
    endloop
  endfacet
  facet normal 0 0 -1
    outer loop
      vertex -9.13545 -84.0674 0
      vertex -8.09017 -74.1221 0
      vertex -8.09017 -85.8779 0
    endloop
  endfacet
  facet normal 0 0 -1
    outer loop
      vertex -9.13545 -84.0674 0
      vertex -9.13545 -75.9326 0
      vertex -8.09017 -74.1221 0
    endloop
  endfacet
  facet normal 0 0 -1
    outer loop
      vertex -9.78148 -82.0791 0
      vertex -9.13545 -75.9326 0
      vertex -9.13545 -84.0674 0
    endloop
  endfacet
  facet normal 0 0 -1
    outer loop
      vertex -9.78148 -82.0791 0
      vertex -9.78148 -77.9209 0
      vertex -9.13545 -75.9326 0
    endloop
  endfacet
  facet normal 0 -0 -1
    outer loop
      vertex -9.78148 -77.9209 0
      vertex -9.78148 -82.0791 0
      vertex -10 -80 0
    endloop
  endfacet
  facet normal -0.951057 -0.309017 0
    outer loop
      vertex -9.13545 -84.0674 0
      vertex -9.78148 -82.0791 100
      vertex -9.78148 -82.0791 0
    endloop
  endfacet
  facet normal -0.951057 -0.309017 0
    outer loop
      vertex -9.78148 -82.0791 100
      vertex -9.13545 -84.0674 0
      vertex -9.13545 -84.0674 100
    endloop
  endfacet
  facet normal -0.743145 -0.669131 0
    outer loop
      vertex -6.69131 -87.4314 0
      vertex -8.09017 -85.8779 100
      vertex -8.09017 -85.8779 0
    endloop
  endfacet
  facet normal -0.743145 -0.669131 0
    outer loop
      vertex -8.09017 -85.8779 100
      vertex -6.69131 -87.4314 0
      vertex -6.69131 -87.4314 100
    endloop
  endfacet
  facet normal -0.866025 -0.5 0
    outer loop
      vertex -8.09017 -85.8779 0
      vertex -9.13545 -84.0674 100
      vertex -9.13545 -84.0674 0
    endloop
  endfacet
  facet normal -0.866025 -0.5 0
    outer loop
      vertex -9.13545 -84.0674 100
      vertex -8.09017 -85.8779 0
      vertex -8.09017 -85.8779 100
    endloop
  endfacet
  facet normal -0.587785 -0.809017 0
    outer loop
      vertex -6.69131 -87.4314 0
      vertex -5 -88.6603 100
      vertex -6.69131 -87.4314 100
    endloop
  endfacet
  facet normal -0.587785 -0.809017 -0
    outer loop
      vertex -5 -88.6603 100
      vertex -6.69131 -87.4314 0
      vertex -5 -88.6603 0
    endloop
  endfacet
endsolid OpenSCAD_Model
