solid OpenSCAD_Model
  facet normal -1 0 0
    outer loop
      vertex -50 -50 100
      vertex -50 50 110
      vertex -50 50 100
    endloop
  endfacet
  facet normal -1 -0 0
    outer loop
      vertex -50 50 110
      vertex -50 -50 100
      vertex -50 -50 110
    endloop
  endfacet
  facet normal -0 0 1
    outer loop
      vertex -50 50 110
      vertex 50 -50 110
      vertex 50 50 110
    endloop
  endfacet
  facet normal 0 0 1
    outer loop
      vertex 50 -50 110
      vertex -50 50 110
      vertex -50 -50 110
    endloop
  endfacet
  facet normal 1 -0 0
    outer loop
      vertex 50 -50 110
      vertex 50 50 100
      vertex 50 50 110
    endloop
  endfacet
  facet normal 1 0 0
    outer loop
      vertex 50 50 100
      vertex 50 -50 110
      vertex 50 -50 100
    endloop
  endfacet
  facet normal 0 1 -0
    outer loop
      vertex 50 50 100
      vertex -50 50 110
      vertex 50 50 110
    endloop
  endfacet
  facet normal 0 1 0
    outer loop
      vertex -50 50 110
      vertex 50 50 100
      vertex -50 50 100
    endloop
  endfacet
  facet normal 0 0 -1
    outer loop
      vertex 50 -50 100
      vertex 5 -5 100
      vertex 50 50 100
    endloop
  endfacet
  facet normal 0 0 -1
    outer loop
      vertex 50 -50 100
      vertex -5 -5 100
      vertex 5 -5 100
    endloop
  endfacet
  facet normal -0 0 -1
    outer loop
      vertex -5 -5 100
      vertex -50 -50 100
      vertex -5 5 100
    endloop
  endfacet
  facet normal 0 0 -1
    outer loop
      vertex -50 -50 100
      vertex -5 -5 100
      vertex 50 -50 100
    endloop
  endfacet
  facet normal 0 0 -1
    outer loop
      vertex 5 5 100
      vertex 50 50 100
      vertex 5 -5 100
    endloop
  endfacet
  facet normal 0 0 -1
    outer loop
      vertex -5 5 100
      vertex 50 50 100
      vertex 5 5 100
    endloop
  endfacet
  facet normal 0 0 -1
    outer loop
      vertex -5 5 100
      vertex -50 50 100
      vertex 50 50 100
    endloop
  endfacet
  facet normal 0 0 -1
    outer loop
      vertex -50 50 100
      vertex -5 5 100
      vertex -50 -50 100
    endloop
  endfacet
  facet normal 0 -1 0
    outer loop
      vertex -50 -50 100
      vertex 50 -50 110
      vertex -50 -50 110
    endloop
  endfacet
  facet normal 0 -1 -0
    outer loop
      vertex 50 -50 110
      vertex -50 -50 100
      vertex 50 -50 100
    endloop
  endfacet
  facet normal -1 0 0
    outer loop
      vertex -5 -5 2
      vertex -5 5 100
      vertex -5 5 2
    endloop
  endfacet
  facet normal -1 -0 0
    outer loop
      vertex -5 5 100
      vertex -5 -5 2
      vertex -5 -5 100
    endloop
  endfacet
  facet normal 1 -0 0
    outer loop
      vertex 5 -5 100
      vertex 5 5 2
      vertex 5 5 100
    endloop
  endfacet
  facet normal 1 0 0
    outer loop
      vertex 5 5 2
      vertex 5 -5 100
      vertex 5 -5 2
    endloop
  endfacet
  facet normal 0 0 -1
    outer loop
      vertex -10 -10 0
      vertex 10 10 0
      vertex 10 -10 0
    endloop
  endfacet
  facet normal -0 0 -1
    outer loop
      vertex 10 10 0
      vertex -10 -10 0
      vertex -10 10 0
    endloop
  endfacet
  facet normal 0 -1 0
    outer loop
      vertex -5 -5 2
      vertex 5 -5 100
      vertex -5 -5 100
    endloop
  endfacet
  facet normal 0 -1 -0
    outer loop
      vertex 5 -5 100
      vertex -5 -5 2
      vertex 5 -5 2
    endloop
  endfacet
  facet normal 0 1 -0
    outer loop
      vertex 5 5 2
      vertex -5 5 100
      vertex 5 5 100
    endloop
  endfacet
  facet normal 0 1 0
    outer loop
      vertex -5 5 100
      vertex 5 5 2
      vertex -5 5 2
    endloop
  endfacet
  facet normal -1 0 0
    outer loop
      vertex -10 -10 0
      vertex -10 10 2
      vertex -10 10 0
    endloop
  endfacet
  facet normal -1 -0 0
    outer loop
      vertex -10 10 2
      vertex -10 -10 0
      vertex -10 -10 2
    endloop
  endfacet
  facet normal 0 0 1
    outer loop
      vertex 10 10 2
      vertex 5 5 2
      vertex 10 -10 2
    endloop
  endfacet
  facet normal 0 0 1
    outer loop
      vertex 10 10 2
      vertex -5 5 2
      vertex 5 5 2
    endloop
  endfacet
  facet normal 0 0 1
    outer loop
      vertex -5 5 2
      vertex -10 10 2
      vertex -5 -5 2
    endloop
  endfacet
  facet normal -0 0 1
    outer loop
      vertex -10 10 2
      vertex -5 5 2
      vertex 10 10 2
    endloop
  endfacet
  facet normal -0 0 1
    outer loop
      vertex 5 -5 2
      vertex 10 -10 2
      vertex 5 5 2
    endloop
  endfacet
  facet normal -0 0 1
    outer loop
      vertex -5 -5 2
      vertex 10 -10 2
      vertex 5 -5 2
    endloop
  endfacet
  facet normal 0 0 1
    outer loop
      vertex -5 -5 2
      vertex -10 -10 2
      vertex 10 -10 2
    endloop
  endfacet
  facet normal 0 0 1
    outer loop
      vertex -10 -10 2
      vertex -5 -5 2
      vertex -10 10 2
    endloop
  endfacet
  facet normal 1 -0 0
    outer loop
      vertex 10 -10 2
      vertex 10 10 0
      vertex 10 10 2
    endloop
  endfacet
  facet normal 1 0 0
    outer loop
      vertex 10 10 0
      vertex 10 -10 2
      vertex 10 -10 0
    endloop
  endfacet
  facet normal 0 1 -0
    outer loop
      vertex 10 10 0
      vertex -10 10 2
      vertex 10 10 2
    endloop
  endfacet
  facet normal 0 1 0
    outer loop
      vertex -10 10 2
      vertex 10 10 0
      vertex -10 10 0
    endloop
  endfacet
  facet normal 0 -1 0
    outer loop
      vertex -10 -10 0
      vertex 10 -10 2
      vertex -10 -10 2
    endloop
  endfacet
  facet normal 0 -1 -0
    outer loop
      vertex 10 -10 2
      vertex -10 -10 0
      vertex 10 -10 0
    endloop
  endfacet
endsolid OpenSCAD_Model
