solid OpenSCAD_Model
  facet normal -1 0 0
    outer loop
      vertex -50 -99 0
      vertex -50 -100 0
      vertex -50 -99 50
    endloop
  endfacet
  facet normal -1 0 0
    outer loop
      vertex -50 99 50
      vertex -50 100 0
      vertex -50 99 0
    endloop
  endfacet
  facet normal -1 0 0
    outer loop
      vertex -50 100 0
      vertex -50 99 50
      vertex -50 100 110
    endloop
  endfacet
  facet normal -1 0 0
    outer loop
      vertex -50 -99 50
      vertex -50 100 110
      vertex -50 99 50
    endloop
  endfacet
  facet normal -1 0 0
    outer loop
      vertex -50 -99 50
      vertex -50 -100 110
      vertex -50 100 110
    endloop
  endfacet
  facet normal -1 0 0
    outer loop
      vertex -50 -100 110
      vertex -50 -99 50
      vertex -50 -100 0
    endloop
  endfacet
  facet normal -0 0 1
    outer loop
      vertex -50 100 110
      vertex 50 -100 110
      vertex 50 100 110
    endloop
  endfacet
  facet normal 0 0 1
    outer loop
      vertex 50 -100 110
      vertex -50 100 110
      vertex -50 -100 110
    endloop
  endfacet
  facet normal 1 0 0
    outer loop
      vertex 50 100 110
      vertex 50 99 100
      vertex 50 100 0
    endloop
  endfacet
  facet normal 1 0 0
    outer loop
      vertex 50 100 110
      vertex 50 -99 100
      vertex 50 99 100
    endloop
  endfacet
  facet normal 1 -0 0
    outer loop
      vertex 50 -100 110
      vertex 50 -99 100
      vertex 50 100 110
    endloop
  endfacet
  facet normal 1 0 0
    outer loop
      vertex 50 -100 0
      vertex 50 -99 100
      vertex 50 -100 110
    endloop
  endfacet
  facet normal 1 0 0
    outer loop
      vertex 50 -99 100
      vertex 50 -100 0
      vertex 50 -99 0
    endloop
  endfacet
  facet normal 1 0 0
    outer loop
      vertex 50 100 0
      vertex 50 99 100
      vertex 50 99 0
    endloop
  endfacet
  facet normal 0 1 -0
    outer loop
      vertex 50 100 0
      vertex -50 100 110
      vertex 50 100 110
    endloop
  endfacet
  facet normal 0 1 0
    outer loop
      vertex -50 100 110
      vertex 50 100 0
      vertex -50 100 0
    endloop
  endfacet
  facet normal 0 0 -1
    outer loop
      vertex -49 -99 100
      vertex 50 99 100
      vertex 50 -99 100
    endloop
  endfacet
  facet normal -0 0 -1
    outer loop
      vertex 50 99 100
      vertex -49 -99 100
      vertex -49 99 100
    endloop
  endfacet
  facet normal 0 -1 0
    outer loop
      vertex -50 -100 0
      vertex 50 -100 110
      vertex -50 -100 110
    endloop
  endfacet
  facet normal 0 -1 -0
    outer loop
      vertex 50 -100 110
      vertex -50 -100 0
      vertex 50 -100 0
    endloop
  endfacet
  facet normal 1 -0 0
    outer loop
      vertex -49 -99 100
      vertex -49 99 50
      vertex -49 99 100
    endloop
  endfacet
  facet normal 1 0 0
    outer loop
      vertex -49 99 50
      vertex -49 -99 100
      vertex -49 -99 50
    endloop
  endfacet
  facet normal 0 0 -1
    outer loop
      vertex -50 -99 50
      vertex -49 99 50
      vertex -49 -99 50
    endloop
  endfacet
  facet normal -0 0 -1
    outer loop
      vertex -49 99 50
      vertex -50 -99 50
      vertex -50 99 50
    endloop
  endfacet
  facet normal 0 0 -1
    outer loop
      vertex -50 99 0
      vertex 50 100 0
      vertex 50 99 0
    endloop
  endfacet
  facet normal -0 0 -1
    outer loop
      vertex 50 100 0
      vertex -50 99 0
      vertex -50 100 0
    endloop
  endfacet
  facet normal 0 -1 0
    outer loop
      vertex -50 99 50
      vertex -50 99 0
      vertex -49 99 50
    endloop
  endfacet
  facet normal 0 -1 0
    outer loop
      vertex -49 99 50
      vertex 50 99 100
      vertex -49 99 100
    endloop
  endfacet
  facet normal 0 -1 0
    outer loop
      vertex 50 99 0
      vertex -49 99 50
      vertex -50 99 0
    endloop
  endfacet
  facet normal 0 -1 0
    outer loop
      vertex -49 99 50
      vertex 50 99 0
      vertex 50 99 100
    endloop
  endfacet
  facet normal 0 0 -1
    outer loop
      vertex -50 -100 0
      vertex 50 -99 0
      vertex 50 -100 0
    endloop
  endfacet
  facet normal -0 0 -1
    outer loop
      vertex 50 -99 0
      vertex -50 -100 0
      vertex -50 -99 0
    endloop
  endfacet
  facet normal 0 1 0
    outer loop
      vertex 50 -99 100
      vertex -49 -99 50
      vertex -49 -99 100
    endloop
  endfacet
  facet normal 0 1 -0
    outer loop
      vertex 50 -99 0
      vertex -49 -99 50
      vertex 50 -99 100
    endloop
  endfacet
  facet normal 0 1 0
    outer loop
      vertex -50 -99 0
      vertex -49 -99 50
      vertex 50 -99 0
    endloop
  endfacet
  facet normal 0 1 0
    outer loop
      vertex -49 -99 50
      vertex -50 -99 0
      vertex -50 -99 50
    endloop
  endfacet
endsolid OpenSCAD_Model
