solid OpenSCAD_Model
  facet normal 0.994522 0.104529 0
    outer loop
      vertex 100 0 110
      vertex 97.8148 20.7912 100
      vertex 97.8148 20.7912 110
    endloop
  endfacet
  facet normal 0.994522 0.104529 0
    outer loop
      vertex 97.8148 20.7912 100
      vertex 100 0 110
      vertex 100 0 100
    endloop
  endfacet
  facet normal -0.994522 0.104529 0
    outer loop
      vertex -100 0 100
      vertex -97.8148 20.7912 110
      vertex -97.8148 20.7912 100
    endloop
  endfacet
  facet normal -0.994522 0.104529 0
    outer loop
      vertex -97.8148 20.7912 110
      vertex -100 0 100
      vertex -100 0 110
    endloop
  endfacet
  facet normal 0 1 -0
    outer loop
      vertex 10.4528 99.4522 100
      vertex -10.4528 99.4522 110
      vertex 10.4528 99.4522 110
    endloop
  endfacet
  facet normal 0 1 0
    outer loop
      vertex -10.4528 99.4522 110
      vertex 10.4528 99.4522 100
      vertex -10.4528 99.4522 100
    endloop
  endfacet
  facet normal 0.587785 0.809017 -0
    outer loop
      vertex 66.9131 74.3145 100
      vertex 50 86.6025 110
      vertex 66.9131 74.3145 110
    endloop
  endfacet
  facet normal 0.587785 0.809017 0
    outer loop
      vertex 50 86.6025 110
      vertex 66.9131 74.3145 100
      vertex 50 86.6025 100
    endloop
  endfacet
  facet normal -0.587785 0.809017 0
    outer loop
      vertex -50 86.6025 100
      vertex -66.9131 74.3145 110
      vertex -50 86.6025 110
    endloop
  endfacet
  facet normal -0.587785 0.809017 0
    outer loop
      vertex -66.9131 74.3145 110
      vertex -50 86.6025 100
      vertex -66.9131 74.3145 100
    endloop
  endfacet
  facet normal -0.406737 0.913545 0
    outer loop
      vertex -30.9017 95.1057 100
      vertex -50 86.6025 110
      vertex -30.9017 95.1057 110
    endloop
  endfacet
  facet normal -0.406737 0.913545 0
    outer loop
      vertex -50 86.6025 110
      vertex -30.9017 95.1057 100
      vertex -50 86.6025 100
    endloop
  endfacet
  facet normal 0 0 -1
    outer loop
      vertex 5 0 100
      vertex 100 0 100
      vertex 97.8148 -20.7912 100
    endloop
  endfacet
  facet normal 0 0 -1
    outer loop
      vertex 4.6194 -1.91342 100
      vertex 97.8148 -20.7912 100
      vertex 91.3545 -40.6737 100
    endloop
  endfacet
  facet normal 0 0 -1
    outer loop
      vertex 100 0 100
      vertex 5 0 100
      vertex 97.8148 20.7912 100
    endloop
  endfacet
  facet normal 0 0 -1
    outer loop
      vertex 4.6194 -1.91342 100
      vertex 91.3545 -40.6737 100
      vertex 80.9017 -58.7785 100
    endloop
  endfacet
  facet normal 0 0 -1
    outer loop
      vertex 4.6194 1.91342 100
      vertex 97.8148 20.7912 100
      vertex 5 0 100
    endloop
  endfacet
  facet normal 0 0 -1
    outer loop
      vertex 3.53553 -3.53553 100
      vertex 80.9017 -58.7785 100
      vertex 66.9131 -74.3145 100
    endloop
  endfacet
  facet normal -0 0 -1
    outer loop
      vertex 97.8148 20.7912 100
      vertex 4.6194 1.91342 100
      vertex 91.3545 40.6737 100
    endloop
  endfacet
  facet normal 0 0 -1
    outer loop
      vertex 3.53553 -3.53553 100
      vertex 66.9131 -74.3145 100
      vertex 50 -86.6025 100
    endloop
  endfacet
  facet normal -0 0 -1
    outer loop
      vertex 91.3545 40.6737 100
      vertex 4.6194 1.91342 100
      vertex 80.9017 58.7785 100
    endloop
  endfacet
  facet normal 0 0 -1
    outer loop
      vertex 1.91342 -4.6194 100
      vertex 50 -86.6025 100
      vertex 30.9017 -95.1057 100
    endloop
  endfacet
  facet normal 0 0 -1
    outer loop
      vertex 3.53553 3.53553 100
      vertex 80.9017 58.7785 100
      vertex 4.6194 1.91342 100
    endloop
  endfacet
  facet normal 0 0 -1
    outer loop
      vertex 1.91342 -4.6194 100
      vertex 30.9017 -95.1057 100
      vertex 10.4528 -99.4522 100
    endloop
  endfacet
  facet normal -0 0 -1
    outer loop
      vertex 80.9017 58.7785 100
      vertex 3.53553 3.53553 100
      vertex 66.9131 74.3145 100
    endloop
  endfacet
  facet normal -0 0 -1
    outer loop
      vertex 66.9131 74.3145 100
      vertex 3.53553 3.53553 100
      vertex 50 86.6025 100
    endloop
  endfacet
  facet normal 0 0 -1
    outer loop
      vertex 97.8148 -20.7912 100
      vertex 4.6194 -1.91342 100
      vertex 5 0 100
    endloop
  endfacet
  facet normal 0 0 -1
    outer loop
      vertex 80.9017 -58.7785 100
      vertex 3.53553 -3.53553 100
      vertex 4.6194 -1.91342 100
    endloop
  endfacet
  facet normal 0 0 -1
    outer loop
      vertex 50 -86.6025 100
      vertex 1.91342 -4.6194 100
      vertex 3.53553 -3.53553 100
    endloop
  endfacet
  facet normal 0 0 -1
    outer loop
      vertex 10.4528 -99.4522 100
      vertex 0 -5 100
      vertex 1.91342 -4.6194 100
    endloop
  endfacet
  facet normal 0 0 -1
    outer loop
      vertex -10.4528 -99.4522 100
      vertex 0 -5 100
      vertex 10.4528 -99.4522 100
    endloop
  endfacet
  facet normal -0 0 -1
    outer loop
      vertex 0 -5 100
      vertex -10.4528 -99.4522 100
      vertex -1.91342 -4.6194 100
    endloop
  endfacet
  facet normal 0 0 -1
    outer loop
      vertex -30.9017 -95.1057 100
      vertex -1.91342 -4.6194 100
      vertex -10.4528 -99.4522 100
    endloop
  endfacet
  facet normal 0 0 -1
    outer loop
      vertex -50 -86.6025 100
      vertex -1.91342 -4.6194 100
      vertex -30.9017 -95.1057 100
    endloop
  endfacet
  facet normal -0 0 -1
    outer loop
      vertex -1.91342 -4.6194 100
      vertex -50 -86.6025 100
      vertex -3.53553 -3.53553 100
    endloop
  endfacet
  facet normal 0 0 -1
    outer loop
      vertex 1.91342 4.6194 100
      vertex 50 86.6025 100
      vertex 3.53553 3.53553 100
    endloop
  endfacet
  facet normal -0 0 -1
    outer loop
      vertex 50 86.6025 100
      vertex 1.91342 4.6194 100
      vertex 30.9017 95.1057 100
    endloop
  endfacet
  facet normal -0 0 -1
    outer loop
      vertex 30.9017 95.1057 100
      vertex 1.91342 4.6194 100
      vertex 10.4528 99.4522 100
    endloop
  endfacet
  facet normal 0 0 -1
    outer loop
      vertex 0 5 100
      vertex 10.4528 99.4522 100
      vertex 1.91342 4.6194 100
    endloop
  endfacet
  facet normal 0 0 -1
    outer loop
      vertex -10.4528 99.4522 100
      vertex 0 5 100
      vertex -1.91342 4.6194 100
    endloop
  endfacet
  facet normal 0 0 -1
    outer loop
      vertex -50 86.6025 100
      vertex -1.91342 4.6194 100
      vertex -3.53553 3.53553 100
    endloop
  endfacet
  facet normal 0 0 -1
    outer loop
      vertex -80.9017 58.7785 100
      vertex -3.53553 3.53553 100
      vertex -4.6194 1.91342 100
    endloop
  endfacet
  facet normal 0 0 -1
    outer loop
      vertex -97.8148 20.7912 100
      vertex -4.6194 1.91342 100
      vertex -5 0 100
    endloop
  endfacet
  facet normal 0 0 -1
    outer loop
      vertex 0 5 100
      vertex -10.4528 99.4522 100
      vertex 10.4528 99.4522 100
    endloop
  endfacet
  facet normal 0 0 -1
    outer loop
      vertex -66.9131 -74.3145 100
      vertex -3.53553 -3.53553 100
      vertex -50 -86.6025 100
    endloop
  endfacet
  facet normal 0 0 -1
    outer loop
      vertex -80.9017 -58.7785 100
      vertex -3.53553 -3.53553 100
      vertex -66.9131 -74.3145 100
    endloop
  endfacet
  facet normal 0 0 -1
    outer loop
      vertex -1.91342 4.6194 100
      vertex -30.9017 95.1057 100
      vertex -10.4528 99.4522 100
    endloop
  endfacet
  facet normal -0 0 -1
    outer loop
      vertex -3.53553 -3.53553 100
      vertex -80.9017 -58.7785 100
      vertex -4.6194 -1.91342 100
    endloop
  endfacet
  facet normal 0 0 -1
    outer loop
      vertex -1.91342 4.6194 100
      vertex -50 86.6025 100
      vertex -30.9017 95.1057 100
    endloop
  endfacet
  facet normal 0 0 -1
    outer loop
      vertex -91.3545 -40.6737 100
      vertex -4.6194 -1.91342 100
      vertex -80.9017 -58.7785 100
    endloop
  endfacet
  facet normal 0 0 -1
    outer loop
      vertex -3.53553 3.53553 100
      vertex -66.9131 74.3145 100
      vertex -50 86.6025 100
    endloop
  endfacet
  facet normal 0 0 -1
    outer loop
      vertex -97.8148 -20.7912 100
      vertex -4.6194 -1.91342 100
      vertex -91.3545 -40.6737 100
    endloop
  endfacet
  facet normal 0 0 -1
    outer loop
      vertex -3.53553 3.53553 100
      vertex -80.9017 58.7785 100
      vertex -66.9131 74.3145 100
    endloop
  endfacet
  facet normal -0 0 -1
    outer loop
      vertex -4.6194 -1.91342 100
      vertex -97.8148 -20.7912 100
      vertex -5 0 100
    endloop
  endfacet
  facet normal 0 0 -1
    outer loop
      vertex -4.6194 1.91342 100
      vertex -91.3545 40.6737 100
      vertex -80.9017 58.7785 100
    endloop
  endfacet
  facet normal 0 0 -1
    outer loop
      vertex -100 0 100
      vertex -5 0 100
      vertex -97.8148 -20.7912 100
    endloop
  endfacet
  facet normal 0 0 -1
    outer loop
      vertex -4.6194 1.91342 100
      vertex -97.8148 20.7912 100
      vertex -91.3545 40.6737 100
    endloop
  endfacet
  facet normal 0 0 -1
    outer loop
      vertex -5 0 100
      vertex -100 0 100
      vertex -97.8148 20.7912 100
    endloop
  endfacet
  facet normal 0.866025 0.5 0
    outer loop
      vertex 91.3545 40.6737 110
      vertex 80.9017 58.7785 100
      vertex 80.9017 58.7785 110
    endloop
  endfacet
  facet normal 0.866025 0.5 0
    outer loop
      vertex 80.9017 58.7785 100
      vertex 91.3545 40.6737 110
      vertex 91.3545 40.6737 100
    endloop
  endfacet
  facet normal 0.951057 0.309017 0
    outer loop
      vertex 97.8148 20.7912 110
      vertex 91.3545 40.6737 100
      vertex 91.3545 40.6737 110
    endloop
  endfacet
  facet normal 0.951057 0.309017 0
    outer loop
      vertex 91.3545 40.6737 100
      vertex 97.8148 20.7912 110
      vertex 97.8148 20.7912 100
    endloop
  endfacet
  facet normal 0.743145 0.669131 0
    outer loop
      vertex 80.9017 58.7785 110
      vertex 66.9131 74.3145 100
      vertex 66.9131 74.3145 110
    endloop
  endfacet
  facet normal 0.743145 0.669131 0
    outer loop
      vertex 66.9131 74.3145 100
      vertex 80.9017 58.7785 110
      vertex 80.9017 58.7785 100
    endloop
  endfacet
  facet normal 0.207912 0.978148 -0
    outer loop
      vertex 30.9017 95.1057 100
      vertex 10.4528 99.4522 110
      vertex 30.9017 95.1057 110
    endloop
  endfacet
  facet normal 0.207912 0.978148 0
    outer loop
      vertex 10.4528 99.4522 110
      vertex 30.9017 95.1057 100
      vertex 10.4528 99.4522 100
    endloop
  endfacet
  facet normal 0.406737 0.913545 -0
    outer loop
      vertex 50 86.6025 100
      vertex 30.9017 95.1057 110
      vertex 50 86.6025 110
    endloop
  endfacet
  facet normal 0.406737 0.913545 0
    outer loop
      vertex 30.9017 95.1057 110
      vertex 50 86.6025 100
      vertex 30.9017 95.1057 100
    endloop
  endfacet
  facet normal -0.866025 0.5 0
    outer loop
      vertex -91.3545 40.6737 100
      vertex -80.9017 58.7785 110
      vertex -80.9017 58.7785 100
    endloop
  endfacet
  facet normal -0.866025 0.5 0
    outer loop
      vertex -80.9017 58.7785 110
      vertex -91.3545 40.6737 100
      vertex -91.3545 40.6737 110
    endloop
  endfacet
  facet normal -0.743145 0.669131 0
    outer loop
      vertex -80.9017 58.7785 100
      vertex -66.9131 74.3145 110
      vertex -66.9131 74.3145 100
    endloop
  endfacet
  facet normal -0.743145 0.669131 0
    outer loop
      vertex -66.9131 74.3145 110
      vertex -80.9017 58.7785 100
      vertex -80.9017 58.7785 110
    endloop
  endfacet
  facet normal -0.951057 0.309017 0
    outer loop
      vertex -97.8148 20.7912 100
      vertex -91.3545 40.6737 110
      vertex -91.3545 40.6737 100
    endloop
  endfacet
  facet normal -0.951057 0.309017 0
    outer loop
      vertex -91.3545 40.6737 110
      vertex -97.8148 20.7912 100
      vertex -97.8148 20.7912 110
    endloop
  endfacet
  facet normal 0 0 1
    outer loop
      vertex 97.8148 20.7912 110
      vertex 97.8148 -20.7912 110
      vertex 100 0 110
    endloop
  endfacet
  facet normal 0 0 1
    outer loop
      vertex 91.3545 40.6737 110
      vertex 97.8148 -20.7912 110
      vertex 97.8148 20.7912 110
    endloop
  endfacet
  facet normal 0 0 1
    outer loop
      vertex 91.3545 40.6737 110
      vertex 91.3545 -40.6737 110
      vertex 97.8148 -20.7912 110
    endloop
  endfacet
  facet normal 0 0 1
    outer loop
      vertex 80.9017 58.7785 110
      vertex 91.3545 -40.6737 110
      vertex 91.3545 40.6737 110
    endloop
  endfacet
  facet normal 0 0 1
    outer loop
      vertex 80.9017 58.7785 110
      vertex 80.9017 -58.7785 110
      vertex 91.3545 -40.6737 110
    endloop
  endfacet
  facet normal 0 0 1
    outer loop
      vertex 66.9131 74.3145 110
      vertex 80.9017 -58.7785 110
      vertex 80.9017 58.7785 110
    endloop
  endfacet
  facet normal 0 0 1
    outer loop
      vertex 66.9131 74.3145 110
      vertex 66.9131 -74.3145 110
      vertex 80.9017 -58.7785 110
    endloop
  endfacet
  facet normal 0 0 1
    outer loop
      vertex 50 86.6025 110
      vertex 66.9131 -74.3145 110
      vertex 66.9131 74.3145 110
    endloop
  endfacet
  facet normal 0 0 1
    outer loop
      vertex 50 86.6025 110
      vertex 50 -86.6025 110
      vertex 66.9131 -74.3145 110
    endloop
  endfacet
  facet normal 0 0 1
    outer loop
      vertex 30.9017 95.1057 110
      vertex 50 -86.6025 110
      vertex 50 86.6025 110
    endloop
  endfacet
  facet normal 0 0 1
    outer loop
      vertex 30.9017 95.1057 110
      vertex 30.9017 -95.1057 110
      vertex 50 -86.6025 110
    endloop
  endfacet
  facet normal 0 0 1
    outer loop
      vertex 10.4528 99.4522 110
      vertex 30.9017 -95.1057 110
      vertex 30.9017 95.1057 110
    endloop
  endfacet
  facet normal 0 0 1
    outer loop
      vertex 10.4528 99.4522 110
      vertex 10.4528 -99.4522 110
      vertex 30.9017 -95.1057 110
    endloop
  endfacet
  facet normal -0 0 1
    outer loop
      vertex -10.4528 99.4522 110
      vertex 10.4528 -99.4522 110
      vertex 10.4528 99.4522 110
    endloop
  endfacet
  facet normal 0 0 1
    outer loop
      vertex -10.4528 99.4522 110
      vertex -10.4528 -99.4522 110
      vertex 10.4528 -99.4522 110
    endloop
  endfacet
  facet normal -0 0 1
    outer loop
      vertex -30.9017 95.1057 110
      vertex -10.4528 -99.4522 110
      vertex -10.4528 99.4522 110
    endloop
  endfacet
  facet normal 0 0 1
    outer loop
      vertex -30.9017 95.1057 110
      vertex -30.9017 -95.1057 110
      vertex -10.4528 -99.4522 110
    endloop
  endfacet
  facet normal -0 0 1
    outer loop
      vertex -50 86.6025 110
      vertex -30.9017 -95.1057 110
      vertex -30.9017 95.1057 110
    endloop
  endfacet
  facet normal 0 0 1
    outer loop
      vertex -50 86.6025 110
      vertex -50 -86.6025 110
      vertex -30.9017 -95.1057 110
    endloop
  endfacet
  facet normal -0 0 1
    outer loop
      vertex -66.9131 74.3145 110
      vertex -50 -86.6025 110
      vertex -50 86.6025 110
    endloop
  endfacet
  facet normal 0 0 1
    outer loop
      vertex -66.9131 74.3145 110
      vertex -66.9131 -74.3145 110
      vertex -50 -86.6025 110
    endloop
  endfacet
  facet normal -0 0 1
    outer loop
      vertex -80.9017 58.7785 110
      vertex -66.9131 -74.3145 110
      vertex -66.9131 74.3145 110
    endloop
  endfacet
  facet normal 0 0 1
    outer loop
      vertex -80.9017 58.7785 110
      vertex -80.9017 -58.7785 110
      vertex -66.9131 -74.3145 110
    endloop
  endfacet
  facet normal -0 0 1
    outer loop
      vertex -91.3545 40.6737 110
      vertex -80.9017 -58.7785 110
      vertex -80.9017 58.7785 110
    endloop
  endfacet
  facet normal 0 0 1
    outer loop
      vertex -91.3545 40.6737 110
      vertex -91.3545 -40.6737 110
      vertex -80.9017 -58.7785 110
    endloop
  endfacet
  facet normal -0 0 1
    outer loop
      vertex -97.8148 20.7912 110
      vertex -91.3545 -40.6737 110
      vertex -91.3545 40.6737 110
    endloop
  endfacet
  facet normal 0 0 1
    outer loop
      vertex -97.8148 20.7912 110
      vertex -97.8148 -20.7912 110
      vertex -91.3545 -40.6737 110
    endloop
  endfacet
  facet normal 0 -0 1
    outer loop
      vertex -97.8148 -20.7912 110
      vertex -97.8148 20.7912 110
      vertex -100 0 110
    endloop
  endfacet
  facet normal -0.207912 0.978148 0
    outer loop
      vertex -10.4528 99.4522 100
      vertex -30.9017 95.1057 110
      vertex -10.4528 99.4522 110
    endloop
  endfacet
  facet normal -0.207912 0.978148 0
    outer loop
      vertex -30.9017 95.1057 110
      vertex -10.4528 99.4522 100
      vertex -30.9017 95.1057 100
    endloop
  endfacet
  facet normal 0.994522 -0.104529 0
    outer loop
      vertex 97.8148 -20.7912 110
      vertex 100 0 100
      vertex 100 0 110
    endloop
  endfacet
  facet normal 0.994522 -0.104529 0
    outer loop
      vertex 100 0 100
      vertex 97.8148 -20.7912 110
      vertex 97.8148 -20.7912 100
    endloop
  endfacet
  facet normal -0.207912 -0.978148 0
    outer loop
      vertex -30.9017 -95.1057 100
      vertex -10.4528 -99.4522 110
      vertex -30.9017 -95.1057 110
    endloop
  endfacet
  facet normal -0.207912 -0.978148 -0
    outer loop
      vertex -10.4528 -99.4522 110
      vertex -30.9017 -95.1057 100
      vertex -10.4528 -99.4522 100
    endloop
  endfacet
  facet normal 0.743145 -0.669131 0
    outer loop
      vertex 66.9131 -74.3145 110
      vertex 80.9017 -58.7785 100
      vertex 80.9017 -58.7785 110
    endloop
  endfacet
  facet normal 0.743145 -0.669131 0
    outer loop
      vertex 80.9017 -58.7785 100
      vertex 66.9131 -74.3145 110
      vertex 66.9131 -74.3145 100
    endloop
  endfacet
  facet normal 0.951057 -0.309017 0
    outer loop
      vertex 91.3545 -40.6737 110
      vertex 97.8148 -20.7912 100
      vertex 97.8148 -20.7912 110
    endloop
  endfacet
  facet normal 0.951057 -0.309017 0
    outer loop
      vertex 97.8148 -20.7912 100
      vertex 91.3545 -40.6737 110
      vertex 91.3545 -40.6737 100
    endloop
  endfacet
  facet normal 0.866025 -0.5 0
    outer loop
      vertex 80.9017 -58.7785 110
      vertex 91.3545 -40.6737 100
      vertex 91.3545 -40.6737 110
    endloop
  endfacet
  facet normal 0.866025 -0.5 0
    outer loop
      vertex 91.3545 -40.6737 100
      vertex 80.9017 -58.7785 110
      vertex 80.9017 -58.7785 100
    endloop
  endfacet
  facet normal -0.866025 -0.5 0
    outer loop
      vertex -80.9017 -58.7785 100
      vertex -91.3545 -40.6737 110
      vertex -91.3545 -40.6737 100
    endloop
  endfacet
  facet normal -0.866025 -0.5 0
    outer loop
      vertex -91.3545 -40.6737 110
      vertex -80.9017 -58.7785 100
      vertex -80.9017 -58.7785 110
    endloop
  endfacet
  facet normal -0.994522 -0.104529 0
    outer loop
      vertex -97.8148 -20.7912 100
      vertex -100 0 110
      vertex -100 0 100
    endloop
  endfacet
  facet normal -0.994522 -0.104529 0
    outer loop
      vertex -100 0 110
      vertex -97.8148 -20.7912 100
      vertex -97.8148 -20.7912 110
    endloop
  endfacet
  facet normal -0.951057 -0.309017 0
    outer loop
      vertex -91.3545 -40.6737 100
      vertex -97.8148 -20.7912 110
      vertex -97.8148 -20.7912 100
    endloop
  endfacet
  facet normal -0.951057 -0.309017 0
    outer loop
      vertex -97.8148 -20.7912 110
      vertex -91.3545 -40.6737 100
      vertex -91.3545 -40.6737 110
    endloop
  endfacet
  facet normal 0.207912 -0.978148 0
    outer loop
      vertex 10.4528 -99.4522 100
      vertex 30.9017 -95.1057 110
      vertex 10.4528 -99.4522 110
    endloop
  endfacet
  facet normal 0.207912 -0.978148 0
    outer loop
      vertex 30.9017 -95.1057 110
      vertex 10.4528 -99.4522 100
      vertex 30.9017 -95.1057 100
    endloop
  endfacet
  facet normal 0.587785 -0.809017 0
    outer loop
      vertex 50 -86.6025 100
      vertex 66.9131 -74.3145 110
      vertex 50 -86.6025 110
    endloop
  endfacet
  facet normal 0.587785 -0.809017 0
    outer loop
      vertex 66.9131 -74.3145 110
      vertex 50 -86.6025 100
      vertex 66.9131 -74.3145 100
    endloop
  endfacet
  facet normal 0 -1 0
    outer loop
      vertex -10.4528 -99.4522 100
      vertex 10.4528 -99.4522 110
      vertex -10.4528 -99.4522 110
    endloop
  endfacet
  facet normal 0 -1 -0
    outer loop
      vertex 10.4528 -99.4522 110
      vertex -10.4528 -99.4522 100
      vertex 10.4528 -99.4522 100
    endloop
  endfacet
  facet normal -0.587785 -0.809017 0
    outer loop
      vertex -66.9131 -74.3145 100
      vertex -50 -86.6025 110
      vertex -66.9131 -74.3145 110
    endloop
  endfacet
  facet normal -0.587785 -0.809017 -0
    outer loop
      vertex -50 -86.6025 110
      vertex -66.9131 -74.3145 100
      vertex -50 -86.6025 100
    endloop
  endfacet
  facet normal -0.406737 -0.913545 0
    outer loop
      vertex -50 -86.6025 100
      vertex -30.9017 -95.1057 110
      vertex -50 -86.6025 110
    endloop
  endfacet
  facet normal -0.406737 -0.913545 -0
    outer loop
      vertex -30.9017 -95.1057 110
      vertex -50 -86.6025 100
      vertex -30.9017 -95.1057 100
    endloop
  endfacet
  facet normal -0.743145 -0.669131 0
    outer loop
      vertex -66.9131 -74.3145 100
      vertex -80.9017 -58.7785 110
      vertex -80.9017 -58.7785 100
    endloop
  endfacet
  facet normal -0.743145 -0.669131 0
    outer loop
      vertex -80.9017 -58.7785 110
      vertex -66.9131 -74.3145 100
      vertex -66.9131 -74.3145 110
    endloop
  endfacet
  facet normal 0.406737 -0.913545 0
    outer loop
      vertex 30.9017 -95.1057 100
      vertex 50 -86.6025 110
      vertex 30.9017 -95.1057 110
    endloop
  endfacet
  facet normal 0.406737 -0.913545 0
    outer loop
      vertex 50 -86.6025 110
      vertex 30.9017 -95.1057 100
      vertex 50 -86.6025 100
    endloop
  endfacet
  facet normal 0.980785 0.195091 0
    outer loop
      vertex 5 0 100
      vertex 4.6194 1.91342 2
      vertex 4.6194 1.91342 100
    endloop
  endfacet
  facet normal 0.980785 0.195091 0
    outer loop
      vertex 4.6194 1.91342 2
      vertex 5 0 100
      vertex 5 0 2
    endloop
  endfacet
  facet normal -0.980785 0.195091 0
    outer loop
      vertex -5 0 2
      vertex -4.6194 1.91342 100
      vertex -4.6194 1.91342 2
    endloop
  endfacet
  facet normal -0.980785 0.195091 0
    outer loop
      vertex -4.6194 1.91342 100
      vertex -5 0 2
      vertex -5 0 100
    endloop
  endfacet
  facet normal 0.195091 0.980785 -0
    outer loop
      vertex 1.91342 4.6194 2
      vertex 0 5 100
      vertex 1.91342 4.6194 100
    endloop
  endfacet
  facet normal 0.195091 0.980785 0
    outer loop
      vertex 0 5 100
      vertex 1.91342 4.6194 2
      vertex 0 5 2
    endloop
  endfacet
  facet normal 0.83147 0.55557 0
    outer loop
      vertex 4.6194 1.91342 100
      vertex 3.53553 3.53553 2
      vertex 3.53553 3.53553 100
    endloop
  endfacet
  facet normal 0.83147 0.55557 0
    outer loop
      vertex 3.53553 3.53553 2
      vertex 4.6194 1.91342 100
      vertex 4.6194 1.91342 2
    endloop
  endfacet
  facet normal -0.195091 -0.980785 0
    outer loop
      vertex -1.91342 -4.6194 2
      vertex 0 -5 100
      vertex -1.91342 -4.6194 100
    endloop
  endfacet
  facet normal -0.195091 -0.980785 -0
    outer loop
      vertex 0 -5 100
      vertex -1.91342 -4.6194 2
      vertex 0 -5 2
    endloop
  endfacet
  facet normal 0 0 -1
    outer loop
      vertex 19.563 -4.15823 0
      vertex 19.563 4.15823 0
      vertex 20 0 0
    endloop
  endfacet
  facet normal 0 0 -1
    outer loop
      vertex 18.2709 -8.13473 0
      vertex 19.563 4.15823 0
      vertex 19.563 -4.15823 0
    endloop
  endfacet
  facet normal 0 0 -1
    outer loop
      vertex 18.2709 -8.13473 0
      vertex 18.2709 8.13473 0
      vertex 19.563 4.15823 0
    endloop
  endfacet
  facet normal 0 0 -1
    outer loop
      vertex 16.1803 -11.7557 0
      vertex 18.2709 8.13473 0
      vertex 18.2709 -8.13473 0
    endloop
  endfacet
  facet normal 0 0 -1
    outer loop
      vertex 16.1803 -11.7557 0
      vertex 16.1803 11.7557 0
      vertex 18.2709 8.13473 0
    endloop
  endfacet
  facet normal 0 0 -1
    outer loop
      vertex 13.3826 -14.8629 0
      vertex 16.1803 11.7557 0
      vertex 16.1803 -11.7557 0
    endloop
  endfacet
  facet normal 0 0 -1
    outer loop
      vertex 13.3826 -14.8629 0
      vertex 13.3826 14.8629 0
      vertex 16.1803 11.7557 0
    endloop
  endfacet
  facet normal 0 0 -1
    outer loop
      vertex 10 -17.3205 0
      vertex 13.3826 14.8629 0
      vertex 13.3826 -14.8629 0
    endloop
  endfacet
  facet normal 0 0 -1
    outer loop
      vertex 10 -17.3205 0
      vertex 10 17.3205 0
      vertex 13.3826 14.8629 0
    endloop
  endfacet
  facet normal 0 0 -1
    outer loop
      vertex 6.18034 -19.0211 0
      vertex 10 17.3205 0
      vertex 10 -17.3205 0
    endloop
  endfacet
  facet normal 0 0 -1
    outer loop
      vertex 6.18034 -19.0211 0
      vertex 6.18034 19.0211 0
      vertex 10 17.3205 0
    endloop
  endfacet
  facet normal 0 0 -1
    outer loop
      vertex 2.09057 -19.8904 0
      vertex 6.18034 19.0211 0
      vertex 6.18034 -19.0211 0
    endloop
  endfacet
  facet normal 0 0 -1
    outer loop
      vertex 2.09057 -19.8904 0
      vertex 2.09057 19.8904 0
      vertex 6.18034 19.0211 0
    endloop
  endfacet
  facet normal 0 0 -1
    outer loop
      vertex -2.09057 -19.8904 0
      vertex 2.09057 19.8904 0
      vertex 2.09057 -19.8904 0
    endloop
  endfacet
  facet normal 0 0 -1
    outer loop
      vertex -2.09057 -19.8904 0
      vertex -2.09057 19.8904 0
      vertex 2.09057 19.8904 0
    endloop
  endfacet
  facet normal 0 0 -1
    outer loop
      vertex -6.18034 -19.0211 0
      vertex -2.09057 19.8904 0
      vertex -2.09057 -19.8904 0
    endloop
  endfacet
  facet normal 0 0 -1
    outer loop
      vertex -6.18034 -19.0211 0
      vertex -6.18034 19.0211 0
      vertex -2.09057 19.8904 0
    endloop
  endfacet
  facet normal 0 0 -1
    outer loop
      vertex -6.18034 -19.0211 0
      vertex -10 17.3205 0
      vertex -6.18034 19.0211 0
    endloop
  endfacet
  facet normal 0 0 -1
    outer loop
      vertex -10 -17.3205 0
      vertex -10 17.3205 0
      vertex -6.18034 -19.0211 0
    endloop
  endfacet
  facet normal 0 0 -1
    outer loop
      vertex -13.3826 -14.8629 0
      vertex -10 17.3205 0
      vertex -10 -17.3205 0
    endloop
  endfacet
  facet normal 0 0 -1
    outer loop
      vertex -13.3826 -14.8629 0
      vertex -13.3826 14.8629 0
      vertex -10 17.3205 0
    endloop
  endfacet
  facet normal 0 0 -1
    outer loop
      vertex -16.1803 -11.7557 0
      vertex -13.3826 14.8629 0
      vertex -13.3826 -14.8629 0
    endloop
  endfacet
  facet normal 0 0 -1
    outer loop
      vertex -16.1803 -11.7557 0
      vertex -16.1803 11.7557 0
      vertex -13.3826 14.8629 0
    endloop
  endfacet
  facet normal 0 0 -1
    outer loop
      vertex -18.2709 -8.13473 0
      vertex -16.1803 11.7557 0
      vertex -16.1803 -11.7557 0
    endloop
  endfacet
  facet normal 0 0 -1
    outer loop
      vertex -18.2709 -8.13473 0
      vertex -18.2709 8.13473 0
      vertex -16.1803 11.7557 0
    endloop
  endfacet
  facet normal 0 0 -1
    outer loop
      vertex -19.563 -4.15823 0
      vertex -18.2709 8.13473 0
      vertex -18.2709 -8.13473 0
    endloop
  endfacet
  facet normal 0 0 -1
    outer loop
      vertex -19.563 -4.15823 0
      vertex -19.563 4.15823 0
      vertex -18.2709 8.13473 0
    endloop
  endfacet
  facet normal 0 -0 -1
    outer loop
      vertex -19.563 4.15823 0
      vertex -19.563 -4.15823 0
      vertex -20 0 0
    endloop
  endfacet
  facet normal 0.55557 0.83147 -0
    outer loop
      vertex 3.53553 3.53553 2
      vertex 1.91342 4.6194 100
      vertex 3.53553 3.53553 100
    endloop
  endfacet
  facet normal 0.55557 0.83147 0
    outer loop
      vertex 1.91342 4.6194 100
      vertex 3.53553 3.53553 2
      vertex 1.91342 4.6194 2
    endloop
  endfacet
  facet normal -0.55557 0.83147 0
    outer loop
      vertex -1.91342 4.6194 2
      vertex -3.53553 3.53553 100
      vertex -1.91342 4.6194 100
    endloop
  endfacet
  facet normal -0.55557 0.83147 0
    outer loop
      vertex -3.53553 3.53553 100
      vertex -1.91342 4.6194 2
      vertex -3.53553 3.53553 2
    endloop
  endfacet
  facet normal -0.83147 0.55557 0
    outer loop
      vertex -4.6194 1.91342 2
      vertex -3.53553 3.53553 100
      vertex -3.53553 3.53553 2
    endloop
  endfacet
  facet normal -0.83147 0.55557 0
    outer loop
      vertex -3.53553 3.53553 100
      vertex -4.6194 1.91342 2
      vertex -4.6194 1.91342 100
    endloop
  endfacet
  facet normal -0.195091 0.980785 0
    outer loop
      vertex 0 5 2
      vertex -1.91342 4.6194 100
      vertex 0 5 100
    endloop
  endfacet
  facet normal -0.195091 0.980785 0
    outer loop
      vertex -1.91342 4.6194 100
      vertex 0 5 2
      vertex -1.91342 4.6194 2
    endloop
  endfacet
  facet normal -0.55557 -0.83147 0
    outer loop
      vertex -3.53553 -3.53553 2
      vertex -1.91342 -4.6194 100
      vertex -3.53553 -3.53553 100
    endloop
  endfacet
  facet normal -0.55557 -0.83147 -0
    outer loop
      vertex -1.91342 -4.6194 100
      vertex -3.53553 -3.53553 2
      vertex -1.91342 -4.6194 2
    endloop
  endfacet
  facet normal -0.980785 -0.195091 0
    outer loop
      vertex -4.6194 -1.91342 2
      vertex -5 0 100
      vertex -5 0 2
    endloop
  endfacet
  facet normal -0.980785 -0.195091 0
    outer loop
      vertex -5 0 100
      vertex -4.6194 -1.91342 2
      vertex -4.6194 -1.91342 100
    endloop
  endfacet
  facet normal 0.980785 -0.195091 0
    outer loop
      vertex 4.6194 -1.91342 100
      vertex 5 0 2
      vertex 5 0 100
    endloop
  endfacet
  facet normal 0.980785 -0.195091 0
    outer loop
      vertex 5 0 2
      vertex 4.6194 -1.91342 100
      vertex 4.6194 -1.91342 2
    endloop
  endfacet
  facet normal 0.55557 -0.83147 0
    outer loop
      vertex 1.91342 -4.6194 2
      vertex 3.53553 -3.53553 100
      vertex 1.91342 -4.6194 100
    endloop
  endfacet
  facet normal 0.55557 -0.83147 0
    outer loop
      vertex 3.53553 -3.53553 100
      vertex 1.91342 -4.6194 2
      vertex 3.53553 -3.53553 2
    endloop
  endfacet
  facet normal 0.195091 -0.980785 0
    outer loop
      vertex 0 -5 2
      vertex 1.91342 -4.6194 100
      vertex 0 -5 100
    endloop
  endfacet
  facet normal 0.195091 -0.980785 0
    outer loop
      vertex 1.91342 -4.6194 100
      vertex 0 -5 2
      vertex 1.91342 -4.6194 2
    endloop
  endfacet
  facet normal 0.83147 -0.55557 0
    outer loop
      vertex 3.53553 -3.53553 100
      vertex 4.6194 -1.91342 2
      vertex 4.6194 -1.91342 100
    endloop
  endfacet
  facet normal 0.83147 -0.55557 0
    outer loop
      vertex 4.6194 -1.91342 2
      vertex 3.53553 -3.53553 100
      vertex 3.53553 -3.53553 2
    endloop
  endfacet
  facet normal -0.83147 -0.55557 0
    outer loop
      vertex -3.53553 -3.53553 2
      vertex -4.6194 -1.91342 100
      vertex -4.6194 -1.91342 2
    endloop
  endfacet
  facet normal -0.83147 -0.55557 0
    outer loop
      vertex -4.6194 -1.91342 100
      vertex -3.53553 -3.53553 2
      vertex -3.53553 -3.53553 100
    endloop
  endfacet
  facet normal 0.994522 0.104529 0
    outer loop
      vertex 20 0 2
      vertex 19.563 4.15823 0
      vertex 19.563 4.15823 2
    endloop
  endfacet
  facet normal 0.994522 0.104529 0
    outer loop
      vertex 19.563 4.15823 0
      vertex 20 0 2
      vertex 20 0 0
    endloop
  endfacet
  facet normal -0.994522 0.104529 0
    outer loop
      vertex -20 0 0
      vertex -19.563 4.15823 2
      vertex -19.563 4.15823 0
    endloop
  endfacet
  facet normal -0.994522 0.104529 0
    outer loop
      vertex -19.563 4.15823 2
      vertex -20 0 0
      vertex -20 0 2
    endloop
  endfacet
  facet normal 0 1 -0
    outer loop
      vertex 2.09057 19.8904 0
      vertex -2.09057 19.8904 2
      vertex 2.09057 19.8904 2
    endloop
  endfacet
  facet normal 0 1 0
    outer loop
      vertex -2.09057 19.8904 2
      vertex 2.09057 19.8904 0
      vertex -2.09057 19.8904 0
    endloop
  endfacet
  facet normal 0 -1 0
    outer loop
      vertex -2.09057 -19.8904 0
      vertex 2.09057 -19.8904 2
      vertex -2.09057 -19.8904 2
    endloop
  endfacet
  facet normal 0 -1 -0
    outer loop
      vertex 2.09057 -19.8904 2
      vertex -2.09057 -19.8904 0
      vertex 2.09057 -19.8904 0
    endloop
  endfacet
  facet normal 0.587785 0.809017 -0
    outer loop
      vertex 13.3826 14.8629 0
      vertex 10 17.3205 2
      vertex 13.3826 14.8629 2
    endloop
  endfacet
  facet normal 0.587785 0.809017 0
    outer loop
      vertex 10 17.3205 2
      vertex 13.3826 14.8629 0
      vertex 10 17.3205 0
    endloop
  endfacet
  facet normal 0.406737 0.913545 -0
    outer loop
      vertex 10 17.3205 0
      vertex 6.18034 19.0211 2
      vertex 10 17.3205 2
    endloop
  endfacet
  facet normal 0.406737 0.913545 0
    outer loop
      vertex 6.18034 19.0211 2
      vertex 10 17.3205 0
      vertex 6.18034 19.0211 0
    endloop
  endfacet
  facet normal -0.743145 0.669131 0
    outer loop
      vertex -16.1803 11.7557 0
      vertex -13.3826 14.8629 2
      vertex -13.3826 14.8629 0
    endloop
  endfacet
  facet normal -0.743145 0.669131 0
    outer loop
      vertex -13.3826 14.8629 2
      vertex -16.1803 11.7557 0
      vertex -16.1803 11.7557 2
    endloop
  endfacet
  facet normal -0.866026 0.5 0
    outer loop
      vertex -18.2709 8.13473 0
      vertex -16.1803 11.7557 2
      vertex -16.1803 11.7557 0
    endloop
  endfacet
  facet normal -0.866026 0.5 0
    outer loop
      vertex -16.1803 11.7557 2
      vertex -18.2709 8.13473 0
      vertex -18.2709 8.13473 2
    endloop
  endfacet
  facet normal -0.406737 0.913545 0
    outer loop
      vertex -6.18034 19.0211 0
      vertex -10 17.3205 2
      vertex -6.18034 19.0211 2
    endloop
  endfacet
  facet normal -0.406737 0.913545 0
    outer loop
      vertex -10 17.3205 2
      vertex -6.18034 19.0211 0
      vertex -10 17.3205 0
    endloop
  endfacet
  facet normal 0.866026 0.5 0
    outer loop
      vertex 18.2709 8.13473 2
      vertex 16.1803 11.7557 0
      vertex 16.1803 11.7557 2
    endloop
  endfacet
  facet normal 0.866026 0.5 0
    outer loop
      vertex 16.1803 11.7557 0
      vertex 18.2709 8.13473 2
      vertex 18.2709 8.13473 0
    endloop
  endfacet
  facet normal 0.951057 0.309017 0
    outer loop
      vertex 19.563 4.15823 2
      vertex 18.2709 8.13473 0
      vertex 18.2709 8.13473 2
    endloop
  endfacet
  facet normal 0.951057 0.309017 0
    outer loop
      vertex 18.2709 8.13473 0
      vertex 19.563 4.15823 2
      vertex 19.563 4.15823 0
    endloop
  endfacet
  facet normal 0.743145 0.669131 0
    outer loop
      vertex 16.1803 11.7557 2
      vertex 13.3826 14.8629 0
      vertex 13.3826 14.8629 2
    endloop
  endfacet
  facet normal 0.743145 0.669131 0
    outer loop
      vertex 13.3826 14.8629 0
      vertex 16.1803 11.7557 2
      vertex 16.1803 11.7557 0
    endloop
  endfacet
  facet normal 0.207912 0.978148 -0
    outer loop
      vertex 6.18034 19.0211 0
      vertex 2.09057 19.8904 2
      vertex 6.18034 19.0211 2
    endloop
  endfacet
  facet normal 0.207912 0.978148 0
    outer loop
      vertex 2.09057 19.8904 2
      vertex 6.18034 19.0211 0
      vertex 2.09057 19.8904 0
    endloop
  endfacet
  facet normal -0.951057 0.309017 0
    outer loop
      vertex -19.563 4.15823 0
      vertex -18.2709 8.13473 2
      vertex -18.2709 8.13473 0
    endloop
  endfacet
  facet normal -0.951057 0.309017 0
    outer loop
      vertex -18.2709 8.13473 2
      vertex -19.563 4.15823 0
      vertex -19.563 4.15823 2
    endloop
  endfacet
  facet normal 0 0 1
    outer loop
      vertex 5 0 2
      vertex 20 0 2
      vertex 19.563 4.15823 2
    endloop
  endfacet
  facet normal 0 0 1
    outer loop
      vertex 4.6194 1.91342 2
      vertex 19.563 4.15823 2
      vertex 18.2709 8.13473 2
    endloop
  endfacet
  facet normal 0 0 1
    outer loop
      vertex 20 0 2
      vertex 5 0 2
      vertex 19.563 -4.15823 2
    endloop
  endfacet
  facet normal 0 0 1
    outer loop
      vertex 4.6194 1.91342 2
      vertex 18.2709 8.13473 2
      vertex 16.1803 11.7557 2
    endloop
  endfacet
  facet normal -0 0 1
    outer loop
      vertex 4.6194 -1.91342 2
      vertex 19.563 -4.15823 2
      vertex 5 0 2
    endloop
  endfacet
  facet normal 0 0 1
    outer loop
      vertex 3.53553 3.53553 2
      vertex 16.1803 11.7557 2
      vertex 13.3826 14.8629 2
    endloop
  endfacet
  facet normal 0 0 1
    outer loop
      vertex 19.563 -4.15823 2
      vertex 4.6194 -1.91342 2
      vertex 18.2709 -8.13473 2
    endloop
  endfacet
  facet normal 0 0 1
    outer loop
      vertex 3.53553 3.53553 2
      vertex 13.3826 14.8629 2
      vertex 10 17.3205 2
    endloop
  endfacet
  facet normal 0 0 1
    outer loop
      vertex 18.2709 -8.13473 2
      vertex 4.6194 -1.91342 2
      vertex 16.1803 -11.7557 2
    endloop
  endfacet
  facet normal 0 0 1
    outer loop
      vertex 1.91342 4.6194 2
      vertex 10 17.3205 2
      vertex 6.18034 19.0211 2
    endloop
  endfacet
  facet normal -0 0 1
    outer loop
      vertex 3.53553 -3.53553 2
      vertex 16.1803 -11.7557 2
      vertex 4.6194 -1.91342 2
    endloop
  endfacet
  facet normal 0 0 1
    outer loop
      vertex 16.1803 -11.7557 2
      vertex 3.53553 -3.53553 2
      vertex 13.3826 -14.8629 2
    endloop
  endfacet
  facet normal 0 0 1
    outer loop
      vertex 19.563 4.15823 2
      vertex 4.6194 1.91342 2
      vertex 5 0 2
    endloop
  endfacet
  facet normal 0 0 1
    outer loop
      vertex 16.1803 11.7557 2
      vertex 3.53553 3.53553 2
      vertex 4.6194 1.91342 2
    endloop
  endfacet
  facet normal 0 0 1
    outer loop
      vertex 1.91342 4.6194 2
      vertex 6.18034 19.0211 2
      vertex 2.09057 19.8904 2
    endloop
  endfacet
  facet normal 0 0 1
    outer loop
      vertex 10 17.3205 2
      vertex 1.91342 4.6194 2
      vertex 3.53553 3.53553 2
    endloop
  endfacet
  facet normal 0 0 1
    outer loop
      vertex 2.09057 19.8904 2
      vertex 0 5 2
      vertex 1.91342 4.6194 2
    endloop
  endfacet
  facet normal -0 0 1
    outer loop
      vertex -2.09057 19.8904 2
      vertex 0 5 2
      vertex 2.09057 19.8904 2
    endloop
  endfacet
  facet normal 0 0 1
    outer loop
      vertex 0 5 2
      vertex -2.09057 19.8904 2
      vertex -1.91342 4.6194 2
    endloop
  endfacet
  facet normal -0 0 1
    outer loop
      vertex -6.18034 19.0211 2
      vertex -1.91342 4.6194 2
      vertex -2.09057 19.8904 2
    endloop
  endfacet
  facet normal -0 0 1
    outer loop
      vertex -10 17.3205 2
      vertex -1.91342 4.6194 2
      vertex -6.18034 19.0211 2
    endloop
  endfacet
  facet normal 0 0 1
    outer loop
      vertex -1.91342 4.6194 2
      vertex -10 17.3205 2
      vertex -3.53553 3.53553 2
    endloop
  endfacet
  facet normal -0 0 1
    outer loop
      vertex -13.3826 14.8629 2
      vertex -3.53553 3.53553 2
      vertex -10 17.3205 2
    endloop
  endfacet
  facet normal 0 0 1
    outer loop
      vertex 13.3826 -14.8629 2
      vertex 3.53553 -3.53553 2
      vertex 10 -17.3205 2
    endloop
  endfacet
  facet normal -0 0 1
    outer loop
      vertex 1.91342 -4.6194 2
      vertex 10 -17.3205 2
      vertex 3.53553 -3.53553 2
    endloop
  endfacet
  facet normal 0 0 1
    outer loop
      vertex 10 -17.3205 2
      vertex 1.91342 -4.6194 2
      vertex 6.18034 -19.0211 2
    endloop
  endfacet
  facet normal 0 0 1
    outer loop
      vertex 6.18034 -19.0211 2
      vertex 1.91342 -4.6194 2
      vertex 2.09057 -19.8904 2
    endloop
  endfacet
  facet normal -0 0 1
    outer loop
      vertex 0 -5 2
      vertex 2.09057 -19.8904 2
      vertex 1.91342 -4.6194 2
    endloop
  endfacet
  facet normal 0 0 1
    outer loop
      vertex -2.09057 -19.8904 2
      vertex 0 -5 2
      vertex -1.91342 -4.6194 2
    endloop
  endfacet
  facet normal 0 0 1
    outer loop
      vertex 0 -5 2
      vertex -2.09057 -19.8904 2
      vertex 2.09057 -19.8904 2
    endloop
  endfacet
  facet normal 0 0 1
    outer loop
      vertex -10 -17.3205 2
      vertex -1.91342 -4.6194 2
      vertex -3.53553 -3.53553 2
    endloop
  endfacet
  facet normal 0 0 1
    outer loop
      vertex -16.1803 -11.7557 2
      vertex -3.53553 -3.53553 2
      vertex -4.6194 -1.91342 2
    endloop
  endfacet
  facet normal 0 0 1
    outer loop
      vertex -19.563 -4.15823 2
      vertex -4.6194 -1.91342 2
      vertex -5 0 2
    endloop
  endfacet
  facet normal 0 0 1
    outer loop
      vertex -1.91342 -4.6194 2
      vertex -6.18034 -19.0211 2
      vertex -2.09057 -19.8904 2
    endloop
  endfacet
  facet normal -0 0 1
    outer loop
      vertex -16.1803 11.7557 2
      vertex -3.53553 3.53553 2
      vertex -13.3826 14.8629 2
    endloop
  endfacet
  facet normal 0 0 1
    outer loop
      vertex -3.53553 3.53553 2
      vertex -16.1803 11.7557 2
      vertex -4.6194 1.91342 2
    endloop
  endfacet
  facet normal 0 0 1
    outer loop
      vertex -1.91342 -4.6194 2
      vertex -10 -17.3205 2
      vertex -6.18034 -19.0211 2
    endloop
  endfacet
  facet normal -0 0 1
    outer loop
      vertex -18.2709 8.13473 2
      vertex -4.6194 1.91342 2
      vertex -16.1803 11.7557 2
    endloop
  endfacet
  facet normal 0 0 1
    outer loop
      vertex -3.53553 -3.53553 2
      vertex -13.3826 -14.8629 2
      vertex -10 -17.3205 2
    endloop
  endfacet
  facet normal -0 0 1
    outer loop
      vertex -19.563 4.15823 2
      vertex -4.6194 1.91342 2
      vertex -18.2709 8.13473 2
    endloop
  endfacet
  facet normal 0 0 1
    outer loop
      vertex -3.53553 -3.53553 2
      vertex -16.1803 -11.7557 2
      vertex -13.3826 -14.8629 2
    endloop
  endfacet
  facet normal 0 0 1
    outer loop
      vertex -4.6194 1.91342 2
      vertex -19.563 4.15823 2
      vertex -5 0 2
    endloop
  endfacet
  facet normal 0 0 1
    outer loop
      vertex -4.6194 -1.91342 2
      vertex -18.2709 -8.13473 2
      vertex -16.1803 -11.7557 2
    endloop
  endfacet
  facet normal 0 0 1
    outer loop
      vertex -20 0 2
      vertex -5 0 2
      vertex -19.563 4.15823 2
    endloop
  endfacet
  facet normal 0 0 1
    outer loop
      vertex -4.6194 -1.91342 2
      vertex -19.563 -4.15823 2
      vertex -18.2709 -8.13473 2
    endloop
  endfacet
  facet normal 0 0 1
    outer loop
      vertex -5 0 2
      vertex -20 0 2
      vertex -19.563 -4.15823 2
    endloop
  endfacet
  facet normal -0.587785 0.809017 0
    outer loop
      vertex -10 17.3205 0
      vertex -13.3826 14.8629 2
      vertex -10 17.3205 2
    endloop
  endfacet
  facet normal -0.587785 0.809017 0
    outer loop
      vertex -13.3826 14.8629 2
      vertex -10 17.3205 0
      vertex -13.3826 14.8629 0
    endloop
  endfacet
  facet normal -0.207912 0.978148 0
    outer loop
      vertex -2.09057 19.8904 0
      vertex -6.18034 19.0211 2
      vertex -2.09057 19.8904 2
    endloop
  endfacet
  facet normal -0.207912 0.978148 0
    outer loop
      vertex -6.18034 19.0211 2
      vertex -2.09057 19.8904 0
      vertex -6.18034 19.0211 0
    endloop
  endfacet
  facet normal 0.994522 -0.104529 0
    outer loop
      vertex 19.563 -4.15823 2
      vertex 20 0 0
      vertex 20 0 2
    endloop
  endfacet
  facet normal 0.994522 -0.104529 0
    outer loop
      vertex 20 0 0
      vertex 19.563 -4.15823 2
      vertex 19.563 -4.15823 0
    endloop
  endfacet
  facet normal 0.207912 -0.978148 0
    outer loop
      vertex 2.09057 -19.8904 0
      vertex 6.18034 -19.0211 2
      vertex 2.09057 -19.8904 2
    endloop
  endfacet
  facet normal 0.207912 -0.978148 0
    outer loop
      vertex 6.18034 -19.0211 2
      vertex 2.09057 -19.8904 0
      vertex 6.18034 -19.0211 0
    endloop
  endfacet
  facet normal 0.866026 -0.5 0
    outer loop
      vertex 16.1803 -11.7557 2
      vertex 18.2709 -8.13473 0
      vertex 18.2709 -8.13473 2
    endloop
  endfacet
  facet normal 0.866026 -0.5 0
    outer loop
      vertex 18.2709 -8.13473 0
      vertex 16.1803 -11.7557 2
      vertex 16.1803 -11.7557 0
    endloop
  endfacet
  facet normal -0.866026 -0.5 0
    outer loop
      vertex -16.1803 -11.7557 0
      vertex -18.2709 -8.13473 2
      vertex -18.2709 -8.13473 0
    endloop
  endfacet
  facet normal -0.866026 -0.5 0
    outer loop
      vertex -18.2709 -8.13473 2
      vertex -16.1803 -11.7557 0
      vertex -16.1803 -11.7557 2
    endloop
  endfacet
  facet normal 0.587785 -0.809017 0
    outer loop
      vertex 10 -17.3205 0
      vertex 13.3826 -14.8629 2
      vertex 10 -17.3205 2
    endloop
  endfacet
  facet normal 0.587785 -0.809017 0
    outer loop
      vertex 13.3826 -14.8629 2
      vertex 10 -17.3205 0
      vertex 13.3826 -14.8629 0
    endloop
  endfacet
  facet normal 0.406737 -0.913545 0
    outer loop
      vertex 6.18034 -19.0211 0
      vertex 10 -17.3205 2
      vertex 6.18034 -19.0211 2
    endloop
  endfacet
  facet normal 0.406737 -0.913545 0
    outer loop
      vertex 10 -17.3205 2
      vertex 6.18034 -19.0211 0
      vertex 10 -17.3205 0
    endloop
  endfacet
  facet normal 0.951057 -0.309017 0
    outer loop
      vertex 18.2709 -8.13473 2
      vertex 19.563 -4.15823 0
      vertex 19.563 -4.15823 2
    endloop
  endfacet
  facet normal 0.951057 -0.309017 0
    outer loop
      vertex 19.563 -4.15823 0
      vertex 18.2709 -8.13473 2
      vertex 18.2709 -8.13473 0
    endloop
  endfacet
  facet normal -0.207912 -0.978148 0
    outer loop
      vertex -6.18034 -19.0211 0
      vertex -2.09057 -19.8904 2
      vertex -6.18034 -19.0211 2
    endloop
  endfacet
  facet normal -0.207912 -0.978148 -0
    outer loop
      vertex -2.09057 -19.8904 2
      vertex -6.18034 -19.0211 0
      vertex -2.09057 -19.8904 0
    endloop
  endfacet
  facet normal -0.743145 -0.669131 0
    outer loop
      vertex -13.3826 -14.8629 0
      vertex -16.1803 -11.7557 2
      vertex -16.1803 -11.7557 0
    endloop
  endfacet
  facet normal -0.743145 -0.669131 0
    outer loop
      vertex -16.1803 -11.7557 2
      vertex -13.3826 -14.8629 0
      vertex -13.3826 -14.8629 2
    endloop
  endfacet
  facet normal -0.951057 -0.309017 0
    outer loop
      vertex -18.2709 -8.13473 0
      vertex -19.563 -4.15823 2
      vertex -19.563 -4.15823 0
    endloop
  endfacet
  facet normal -0.951057 -0.309017 0
    outer loop
      vertex -19.563 -4.15823 2
      vertex -18.2709 -8.13473 0
      vertex -18.2709 -8.13473 2
    endloop
  endfacet
  facet normal -0.994522 -0.104529 0
    outer loop
      vertex -19.563 -4.15823 0
      vertex -20 0 2
      vertex -20 0 0
    endloop
  endfacet
  facet normal -0.994522 -0.104529 0
    outer loop
      vertex -20 0 2
      vertex -19.563 -4.15823 0
      vertex -19.563 -4.15823 2
    endloop
  endfacet
  facet normal 0.743145 -0.669131 0
    outer loop
      vertex 13.3826 -14.8629 2
      vertex 16.1803 -11.7557 0
      vertex 16.1803 -11.7557 2
    endloop
  endfacet
  facet normal 0.743145 -0.669131 0
    outer loop
      vertex 16.1803 -11.7557 0
      vertex 13.3826 -14.8629 2
      vertex 13.3826 -14.8629 0
    endloop
  endfacet
  facet normal -0.587785 -0.809017 0
    outer loop
      vertex -13.3826 -14.8629 0
      vertex -10 -17.3205 2
      vertex -13.3826 -14.8629 2
    endloop
  endfacet
  facet normal -0.587785 -0.809017 -0
    outer loop
      vertex -10 -17.3205 2
      vertex -13.3826 -14.8629 0
      vertex -10 -17.3205 0
    endloop
  endfacet
  facet normal -0.406737 -0.913545 0
    outer loop
      vertex -10 -17.3205 0
      vertex -6.18034 -19.0211 2
      vertex -10 -17.3205 2
    endloop
  endfacet
  facet normal -0.406737 -0.913545 -0
    outer loop
      vertex -6.18034 -19.0211 2
      vertex -10 -17.3205 0
      vertex -6.18034 -19.0211 0
    endloop
  endfacet
endsolid OpenSCAD_Model
