solid OpenSCAD_Model
  facet normal -1 0 0
    outer loop
      vertex -50 -60 0
      vertex -50 -100 0
      vertex -50 -60 50
    endloop
  endfacet
  facet normal -1 0 0
    outer loop
      vertex -50 99 50
      vertex -50 100 0
      vertex -50 99 0
    endloop
  endfacet
  facet normal -1 0 0
    outer loop
      vertex -50 100 0
      vertex -50 99 50
      vertex -50 100 110
    endloop
  endfacet
  facet normal -1 0 0
    outer loop
      vertex -50 -60 50
      vertex -50 100 110
      vertex -50 99 50
    endloop
  endfacet
  facet normal -1 0 0
    outer loop
      vertex -50 -60 50
      vertex -50 -100 110
      vertex -50 100 110
    endloop
  endfacet
  facet normal -1 0 0
    outer loop
      vertex -50 -100 110
      vertex -50 -60 50
      vertex -50 -100 0
    endloop
  endfacet
  facet normal -0 0 1
    outer loop
      vertex -50 100 110
      vertex 50 -100 110
      vertex 50 100 110
    endloop
  endfacet
  facet normal 0 0 1
    outer loop
      vertex 50 -100 110
      vertex -50 100 110
      vertex -50 -100 110
    endloop
  endfacet
  facet normal 1 -0 0
    outer loop
      vertex 50 -84 30
      vertex 50 -76 21
      vertex 50 -76 30
    endloop
  endfacet
  facet normal 1 0 0
    outer loop
      vertex 50 -76 21
      vertex 50 -84 30
      vertex 50 -84 21
    endloop
  endfacet
  facet normal 1 -0 0
    outer loop
      vertex 50 -84 40
      vertex 50 -76 31
      vertex 50 -76 40
    endloop
  endfacet
  facet normal 1 0 0
    outer loop
      vertex 50 -76 31
      vertex 50 -84 40
      vertex 50 -84 31
    endloop
  endfacet
  facet normal 1 -0 0
    outer loop
      vertex 50 -84 50
      vertex 50 -76 41
      vertex 50 -76 50
    endloop
  endfacet
  facet normal 1 0 0
    outer loop
      vertex 50 -76 41
      vertex 50 -84 50
      vertex 50 -84 41
    endloop
  endfacet
  facet normal 1 -0 0
    outer loop
      vertex 50 -84 60
      vertex 50 -76 51
      vertex 50 -76 60
    endloop
  endfacet
  facet normal 1 0 0
    outer loop
      vertex 50 -76 51
      vertex 50 -84 60
      vertex 50 -84 51
    endloop
  endfacet
  facet normal 1 -0 0
    outer loop
      vertex 50 -84 70
      vertex 50 -76 61
      vertex 50 -76 70
    endloop
  endfacet
  facet normal 1 0 0
    outer loop
      vertex 50 -76 61
      vertex 50 -84 70
      vertex 50 -84 61
    endloop
  endfacet
  facet normal 1 -0 0
    outer loop
      vertex 50 -84 80
      vertex 50 -76 71
      vertex 50 -76 80
    endloop
  endfacet
  facet normal 1 0 0
    outer loop
      vertex 50 -76 71
      vertex 50 -84 80
      vertex 50 -84 71
    endloop
  endfacet
  facet normal 1 -0 0
    outer loop
      vertex 50 -84 90
      vertex 50 -76 81
      vertex 50 -76 90
    endloop
  endfacet
  facet normal 1 0 0
    outer loop
      vertex 50 -76 81
      vertex 50 -84 90
      vertex 50 -84 81
    endloop
  endfacet
  facet normal 1 -0 0
    outer loop
      vertex 50 -84 100
      vertex 50 -76 91
      vertex 50 -76 100
    endloop
  endfacet
  facet normal 1 0 0
    outer loop
      vertex 50 -76 91
      vertex 50 -84 100
      vertex 50 -84 91
    endloop
  endfacet
  facet normal 1 0 0
    outer loop
      vertex 50 100 110
      vertex 50 99 100
      vertex 50 100 0
    endloop
  endfacet
  facet normal 1 0 0
    outer loop
      vertex 50 100 110
      vertex 50 -60 100
      vertex 50 99 100
    endloop
  endfacet
  facet normal 1 0 0
    outer loop
      vertex 50 -76 100
      vertex 50 -60 100
      vertex 50 -76 101
    endloop
  endfacet
  facet normal 1 -0 0
    outer loop
      vertex 50 -100 110
      vertex 50 -60 100
      vertex 50 100 110
    endloop
  endfacet
  facet normal 1 0 0
    outer loop
      vertex 50 -60 100
      vertex 50 -100 110
      vertex 50 -76 101
    endloop
  endfacet
  facet normal 1 0 0
    outer loop
      vertex 50 -100 110
      vertex 50 -84 100
      vertex 50 -84 101
    endloop
  endfacet
  facet normal 1 0 0
    outer loop
      vertex 50 -84 100
      vertex 50 -100 110
      vertex 50 -84 91
    endloop
  endfacet
  facet normal 1 0 0
    outer loop
      vertex 50 -84 91
      vertex 50 -100 110
      vertex 50 -84 90
    endloop
  endfacet
  facet normal 1 0 0
    outer loop
      vertex 50 -84 90
      vertex 50 -100 110
      vertex 50 -84 81
    endloop
  endfacet
  facet normal 1 0 0
    outer loop
      vertex 50 -84 81
      vertex 50 -100 110
      vertex 50 -84 80
    endloop
  endfacet
  facet normal 1 0 0
    outer loop
      vertex 50 -84 80
      vertex 50 -100 110
      vertex 50 -84 71
    endloop
  endfacet
  facet normal 1 0 0
    outer loop
      vertex 50 -84 71
      vertex 50 -100 110
      vertex 50 -84 70
    endloop
  endfacet
  facet normal 1 0 0
    outer loop
      vertex 50 -84 70
      vertex 50 -100 110
      vertex 50 -84 61
    endloop
  endfacet
  facet normal 1 0 0
    outer loop
      vertex 50 -84 61
      vertex 50 -100 110
      vertex 50 -84 60
    endloop
  endfacet
  facet normal 1 0 0
    outer loop
      vertex 50 -84 60
      vertex 50 -100 110
      vertex 50 -84 51
    endloop
  endfacet
  facet normal 1 0 0
    outer loop
      vertex 50 -100 0
      vertex 50 -84 51
      vertex 50 -100 110
    endloop
  endfacet
  facet normal 1 0 0
    outer loop
      vertex 50 -84 51
      vertex 50 -100 0
      vertex 50 -84 50
    endloop
  endfacet
  facet normal 1 0 0
    outer loop
      vertex 50 -84 50
      vertex 50 -100 0
      vertex 50 -84 41
    endloop
  endfacet
  facet normal 1 0 0
    outer loop
      vertex 50 -84 41
      vertex 50 -100 0
      vertex 50 -84 40
    endloop
  endfacet
  facet normal 1 0 0
    outer loop
      vertex 50 -84 40
      vertex 50 -100 0
      vertex 50 -84 31
    endloop
  endfacet
  facet normal 1 0 0
    outer loop
      vertex 50 -84 31
      vertex 50 -100 0
      vertex 50 -84 30
    endloop
  endfacet
  facet normal 1 0 0
    outer loop
      vertex 50 -84 30
      vertex 50 -100 0
      vertex 50 -84 21
    endloop
  endfacet
  facet normal 1 0 0
    outer loop
      vertex 50 -76 101
      vertex 50 -100 110
      vertex 50 -84 101
    endloop
  endfacet
  facet normal 1 0 0
    outer loop
      vertex 50 100 0
      vertex 50 99 100
      vertex 50 99 0
    endloop
  endfacet
  facet normal 1 0 0
    outer loop
      vertex 50 -76 91
      vertex 50 -60 100
      vertex 50 -76 100
    endloop
  endfacet
  facet normal 1 0 0
    outer loop
      vertex 50 -76 90
      vertex 50 -60 100
      vertex 50 -76 91
    endloop
  endfacet
  facet normal 1 0 0
    outer loop
      vertex 50 -76 81
      vertex 50 -60 100
      vertex 50 -76 90
    endloop
  endfacet
  facet normal 1 0 0
    outer loop
      vertex 50 -76 80
      vertex 50 -60 100
      vertex 50 -76 81
    endloop
  endfacet
  facet normal 1 0 0
    outer loop
      vertex 50 -76 71
      vertex 50 -60 100
      vertex 50 -76 80
    endloop
  endfacet
  facet normal 1 0 0
    outer loop
      vertex 50 -76 70
      vertex 50 -60 100
      vertex 50 -76 71
    endloop
  endfacet
  facet normal 1 0 0
    outer loop
      vertex 50 -76 61
      vertex 50 -60 100
      vertex 50 -76 70
    endloop
  endfacet
  facet normal 1 0 0
    outer loop
      vertex 50 -76 60
      vertex 50 -60 100
      vertex 50 -76 61
    endloop
  endfacet
  facet normal 1 0 0
    outer loop
      vertex 50 -76 51
      vertex 50 -60 100
      vertex 50 -76 60
    endloop
  endfacet
  facet normal 1 0 0
    outer loop
      vertex 50 -60 100
      vertex 50 -76 51
      vertex 50 -60 0
    endloop
  endfacet
  facet normal 1 -0 0
    outer loop
      vertex 50 -76 50
      vertex 50 -60 0
      vertex 50 -76 51
    endloop
  endfacet
  facet normal 1 -0 0
    outer loop
      vertex 50 -76 41
      vertex 50 -60 0
      vertex 50 -76 50
    endloop
  endfacet
  facet normal 1 -0 0
    outer loop
      vertex 50 -76 40
      vertex 50 -60 0
      vertex 50 -76 41
    endloop
  endfacet
  facet normal 1 -0 0
    outer loop
      vertex 50 -76 31
      vertex 50 -60 0
      vertex 50 -76 40
    endloop
  endfacet
  facet normal 1 -0 0
    outer loop
      vertex 50 -76 30
      vertex 50 -60 0
      vertex 50 -76 31
    endloop
  endfacet
  facet normal 1 -0 0
    outer loop
      vertex 50 -76 21
      vertex 50 -60 0
      vertex 50 -76 30
    endloop
  endfacet
  facet normal 1 -0 0
    outer loop
      vertex 50 -76 20
      vertex 50 -60 0
      vertex 50 -76 21
    endloop
  endfacet
  facet normal 1 -0 0
    outer loop
      vertex 50 -84 20
      vertex 50 -60 0
      vertex 50 -76 20
    endloop
  endfacet
  facet normal 1 0 0
    outer loop
      vertex 50 -84 20
      vertex 50 -100 0
      vertex 50 -60 0
    endloop
  endfacet
  facet normal 1 0 0
    outer loop
      vertex 50 -84 21
      vertex 50 -100 0
      vertex 50 -84 20
    endloop
  endfacet
  facet normal 0 1 -0
    outer loop
      vertex 50 100 0
      vertex -50 100 110
      vertex 50 100 110
    endloop
  endfacet
  facet normal 0 1 0
    outer loop
      vertex -50 100 110
      vertex 50 100 0
      vertex -50 100 0
    endloop
  endfacet
  facet normal 0 0 -1
    outer loop
      vertex -49 -60 100
      vertex 50 99 100
      vertex 50 -60 100
    endloop
  endfacet
  facet normal -0 0 -1
    outer loop
      vertex 50 99 100
      vertex -49 -60 100
      vertex -49 99 100
    endloop
  endfacet
  facet normal 0 -1 0
    outer loop
      vertex -50 -100 0
      vertex 50 -100 110
      vertex -50 -100 110
    endloop
  endfacet
  facet normal 0 -1 -0
    outer loop
      vertex 50 -100 110
      vertex -50 -100 0
      vertex 50 -100 0
    endloop
  endfacet
  facet normal 1 -0 0
    outer loop
      vertex -49 -60 100
      vertex -49 99 50
      vertex -49 99 100
    endloop
  endfacet
  facet normal 1 0 0
    outer loop
      vertex -49 99 50
      vertex -49 -60 100
      vertex -49 -60 50
    endloop
  endfacet
  facet normal 0 0 -1
    outer loop
      vertex -50 -60 50
      vertex -49 99 50
      vertex -49 -60 50
    endloop
  endfacet
  facet normal -0 0 -1
    outer loop
      vertex -49 99 50
      vertex -50 -60 50
      vertex -50 99 50
    endloop
  endfacet
  facet normal 0 0 -1
    outer loop
      vertex -50 99 0
      vertex 50 100 0
      vertex 50 99 0
    endloop
  endfacet
  facet normal -0 0 -1
    outer loop
      vertex 50 100 0
      vertex -50 99 0
      vertex -50 100 0
    endloop
  endfacet
  facet normal 0 -1 0
    outer loop
      vertex -50 99 50
      vertex -50 99 0
      vertex -49 99 50
    endloop
  endfacet
  facet normal 0 -1 0
    outer loop
      vertex -49 99 50
      vertex 50 99 100
      vertex -49 99 100
    endloop
  endfacet
  facet normal 0 -1 0
    outer loop
      vertex 50 99 0
      vertex -49 99 50
      vertex -50 99 0
    endloop
  endfacet
  facet normal 0 -1 0
    outer loop
      vertex -49 99 50
      vertex 50 99 0
      vertex 50 99 100
    endloop
  endfacet
  facet normal 0 0 -1
    outer loop
      vertex -50 -100 0
      vertex 50 -60 0
      vertex 50 -100 0
    endloop
  endfacet
  facet normal -0 0 -1
    outer loop
      vertex 50 -60 0
      vertex -50 -100 0
      vertex -50 -60 0
    endloop
  endfacet
  facet normal 0 1 0
    outer loop
      vertex 50 -60 100
      vertex -49 -60 50
      vertex -49 -60 100
    endloop
  endfacet
  facet normal 0 1 -0
    outer loop
      vertex 50 -60 0
      vertex -49 -60 50
      vertex 50 -60 100
    endloop
  endfacet
  facet normal 0 1 0
    outer loop
      vertex -50 -60 0
      vertex -49 -60 50
      vertex 50 -60 0
    endloop
  endfacet
  facet normal 0 1 0
    outer loop
      vertex -49 -60 50
      vertex -50 -60 0
      vertex -50 -60 50
    endloop
  endfacet
  facet normal -0 0 1
    outer loop
      vertex 50 -76 101
      vertex 55 -84 101
      vertex 55 -76 101
    endloop
  endfacet
  facet normal 0 0 1
    outer loop
      vertex 55 -84 101
      vertex 50 -76 101
      vertex 50 -84 101
    endloop
  endfacet
  facet normal 1 -0 0
    outer loop
      vertex 55 -84 101
      vertex 55 -76 100
      vertex 55 -76 101
    endloop
  endfacet
  facet normal 1 0 0
    outer loop
      vertex 55 -76 100
      vertex 55 -84 101
      vertex 55 -84 100
    endloop
  endfacet
  facet normal 0 0 -1
    outer loop
      vertex 50 -84 100
      vertex 55 -76 100
      vertex 55 -84 100
    endloop
  endfacet
  facet normal -0 0 -1
    outer loop
      vertex 55 -76 100
      vertex 50 -84 100
      vertex 50 -76 100
    endloop
  endfacet
  facet normal 0 -1 0
    outer loop
      vertex 50 -84 100
      vertex 55 -84 101
      vertex 50 -84 101
    endloop
  endfacet
  facet normal 0 -1 -0
    outer loop
      vertex 55 -84 101
      vertex 50 -84 100
      vertex 55 -84 100
    endloop
  endfacet
  facet normal 0 1 -0
    outer loop
      vertex 55 -76 100
      vertex 50 -76 101
      vertex 55 -76 101
    endloop
  endfacet
  facet normal 0 1 0
    outer loop
      vertex 50 -76 101
      vertex 55 -76 100
      vertex 50 -76 100
    endloop
  endfacet
  facet normal -0 0 1
    outer loop
      vertex 50 -76 91
      vertex 55 -84 91
      vertex 55 -76 91
    endloop
  endfacet
  facet normal 0 0 1
    outer loop
      vertex 55 -84 91
      vertex 50 -76 91
      vertex 50 -84 91
    endloop
  endfacet
  facet normal 1 -0 0
    outer loop
      vertex 55 -84 91
      vertex 55 -76 90
      vertex 55 -76 91
    endloop
  endfacet
  facet normal 1 0 0
    outer loop
      vertex 55 -76 90
      vertex 55 -84 91
      vertex 55 -84 90
    endloop
  endfacet
  facet normal 0 1 -0
    outer loop
      vertex 55 -76 90
      vertex 50 -76 91
      vertex 55 -76 91
    endloop
  endfacet
  facet normal 0 1 0
    outer loop
      vertex 50 -76 91
      vertex 55 -76 90
      vertex 50 -76 90
    endloop
  endfacet
  facet normal 0 0 -1
    outer loop
      vertex 50 -84 90
      vertex 55 -76 90
      vertex 55 -84 90
    endloop
  endfacet
  facet normal -0 0 -1
    outer loop
      vertex 55 -76 90
      vertex 50 -84 90
      vertex 50 -76 90
    endloop
  endfacet
  facet normal 0 -1 0
    outer loop
      vertex 50 -84 90
      vertex 55 -84 91
      vertex 50 -84 91
    endloop
  endfacet
  facet normal 0 -1 -0
    outer loop
      vertex 55 -84 91
      vertex 50 -84 90
      vertex 55 -84 90
    endloop
  endfacet
  facet normal -0 0 1
    outer loop
      vertex 50 -76 81
      vertex 55 -84 81
      vertex 55 -76 81
    endloop
  endfacet
  facet normal 0 0 1
    outer loop
      vertex 55 -84 81
      vertex 50 -76 81
      vertex 50 -84 81
    endloop
  endfacet
  facet normal 1 -0 0
    outer loop
      vertex 55 -84 81
      vertex 55 -76 80
      vertex 55 -76 81
    endloop
  endfacet
  facet normal 1 0 0
    outer loop
      vertex 55 -76 80
      vertex 55 -84 81
      vertex 55 -84 80
    endloop
  endfacet
  facet normal 0 0 -1
    outer loop
      vertex 50 -84 80
      vertex 55 -76 80
      vertex 55 -84 80
    endloop
  endfacet
  facet normal -0 0 -1
    outer loop
      vertex 55 -76 80
      vertex 50 -84 80
      vertex 50 -76 80
    endloop
  endfacet
  facet normal 0 -1 0
    outer loop
      vertex 50 -84 80
      vertex 55 -84 81
      vertex 50 -84 81
    endloop
  endfacet
  facet normal 0 -1 -0
    outer loop
      vertex 55 -84 81
      vertex 50 -84 80
      vertex 55 -84 80
    endloop
  endfacet
  facet normal 0 1 -0
    outer loop
      vertex 55 -76 80
      vertex 50 -76 81
      vertex 55 -76 81
    endloop
  endfacet
  facet normal 0 1 0
    outer loop
      vertex 50 -76 81
      vertex 55 -76 80
      vertex 50 -76 80
    endloop
  endfacet
  facet normal -0 0 1
    outer loop
      vertex 50 -76 71
      vertex 55 -84 71
      vertex 55 -76 71
    endloop
  endfacet
  facet normal 0 0 1
    outer loop
      vertex 55 -84 71
      vertex 50 -76 71
      vertex 50 -84 71
    endloop
  endfacet
  facet normal 1 -0 0
    outer loop
      vertex 55 -84 71
      vertex 55 -76 70
      vertex 55 -76 71
    endloop
  endfacet
  facet normal 1 0 0
    outer loop
      vertex 55 -76 70
      vertex 55 -84 71
      vertex 55 -84 70
    endloop
  endfacet
  facet normal 0 1 -0
    outer loop
      vertex 55 -76 70
      vertex 50 -76 71
      vertex 55 -76 71
    endloop
  endfacet
  facet normal 0 1 0
    outer loop
      vertex 50 -76 71
      vertex 55 -76 70
      vertex 50 -76 70
    endloop
  endfacet
  facet normal 0 0 -1
    outer loop
      vertex 50 -84 70
      vertex 55 -76 70
      vertex 55 -84 70
    endloop
  endfacet
  facet normal -0 0 -1
    outer loop
      vertex 55 -76 70
      vertex 50 -84 70
      vertex 50 -76 70
    endloop
  endfacet
  facet normal 0 -1 0
    outer loop
      vertex 50 -84 70
      vertex 55 -84 71
      vertex 50 -84 71
    endloop
  endfacet
  facet normal 0 -1 -0
    outer loop
      vertex 55 -84 71
      vertex 50 -84 70
      vertex 55 -84 70
    endloop
  endfacet
  facet normal -0 0 1
    outer loop
      vertex 50 -76 61
      vertex 55 -84 61
      vertex 55 -76 61
    endloop
  endfacet
  facet normal 0 0 1
    outer loop
      vertex 55 -84 61
      vertex 50 -76 61
      vertex 50 -84 61
    endloop
  endfacet
  facet normal 1 -0 0
    outer loop
      vertex 55 -84 61
      vertex 55 -76 60
      vertex 55 -76 61
    endloop
  endfacet
  facet normal 1 0 0
    outer loop
      vertex 55 -76 60
      vertex 55 -84 61
      vertex 55 -84 60
    endloop
  endfacet
  facet normal 0 0 -1
    outer loop
      vertex 50 -84 60
      vertex 55 -76 60
      vertex 55 -84 60
    endloop
  endfacet
  facet normal -0 0 -1
    outer loop
      vertex 55 -76 60
      vertex 50 -84 60
      vertex 50 -76 60
    endloop
  endfacet
  facet normal 0 -1 0
    outer loop
      vertex 50 -84 60
      vertex 55 -84 61
      vertex 50 -84 61
    endloop
  endfacet
  facet normal 0 -1 -0
    outer loop
      vertex 55 -84 61
      vertex 50 -84 60
      vertex 55 -84 60
    endloop
  endfacet
  facet normal 0 1 -0
    outer loop
      vertex 55 -76 60
      vertex 50 -76 61
      vertex 55 -76 61
    endloop
  endfacet
  facet normal 0 1 0
    outer loop
      vertex 50 -76 61
      vertex 55 -76 60
      vertex 50 -76 60
    endloop
  endfacet
  facet normal -0 0 1
    outer loop
      vertex 50 -76 51
      vertex 55 -84 51
      vertex 55 -76 51
    endloop
  endfacet
  facet normal 0 0 1
    outer loop
      vertex 55 -84 51
      vertex 50 -76 51
      vertex 50 -84 51
    endloop
  endfacet
  facet normal 1 -0 0
    outer loop
      vertex 55 -84 51
      vertex 55 -76 50
      vertex 55 -76 51
    endloop
  endfacet
  facet normal 1 0 0
    outer loop
      vertex 55 -76 50
      vertex 55 -84 51
      vertex 55 -84 50
    endloop
  endfacet
  facet normal 0 0 -1
    outer loop
      vertex 50 -84 50
      vertex 55 -76 50
      vertex 55 -84 50
    endloop
  endfacet
  facet normal -0 0 -1
    outer loop
      vertex 55 -76 50
      vertex 50 -84 50
      vertex 50 -76 50
    endloop
  endfacet
  facet normal 0 -1 0
    outer loop
      vertex 50 -84 50
      vertex 55 -84 51
      vertex 50 -84 51
    endloop
  endfacet
  facet normal 0 -1 -0
    outer loop
      vertex 55 -84 51
      vertex 50 -84 50
      vertex 55 -84 50
    endloop
  endfacet
  facet normal 0 1 -0
    outer loop
      vertex 55 -76 50
      vertex 50 -76 51
      vertex 55 -76 51
    endloop
  endfacet
  facet normal 0 1 0
    outer loop
      vertex 50 -76 51
      vertex 55 -76 50
      vertex 50 -76 50
    endloop
  endfacet
  facet normal -0 0 1
    outer loop
      vertex 50 -76 41
      vertex 55 -84 41
      vertex 55 -76 41
    endloop
  endfacet
  facet normal 0 0 1
    outer loop
      vertex 55 -84 41
      vertex 50 -76 41
      vertex 50 -84 41
    endloop
  endfacet
  facet normal 1 -0 0
    outer loop
      vertex 55 -84 41
      vertex 55 -76 40
      vertex 55 -76 41
    endloop
  endfacet
  facet normal 1 0 0
    outer loop
      vertex 55 -76 40
      vertex 55 -84 41
      vertex 55 -84 40
    endloop
  endfacet
  facet normal 0 1 -0
    outer loop
      vertex 55 -76 40
      vertex 50 -76 41
      vertex 55 -76 41
    endloop
  endfacet
  facet normal 0 1 0
    outer loop
      vertex 50 -76 41
      vertex 55 -76 40
      vertex 50 -76 40
    endloop
  endfacet
  facet normal 0 0 -1
    outer loop
      vertex 50 -84 40
      vertex 55 -76 40
      vertex 55 -84 40
    endloop
  endfacet
  facet normal -0 0 -1
    outer loop
      vertex 55 -76 40
      vertex 50 -84 40
      vertex 50 -76 40
    endloop
  endfacet
  facet normal 0 -1 0
    outer loop
      vertex 50 -84 40
      vertex 55 -84 41
      vertex 50 -84 41
    endloop
  endfacet
  facet normal 0 -1 -0
    outer loop
      vertex 55 -84 41
      vertex 50 -84 40
      vertex 55 -84 40
    endloop
  endfacet
  facet normal -0 0 1
    outer loop
      vertex 50 -76 31
      vertex 55 -84 31
      vertex 55 -76 31
    endloop
  endfacet
  facet normal 0 0 1
    outer loop
      vertex 55 -84 31
      vertex 50 -76 31
      vertex 50 -84 31
    endloop
  endfacet
  facet normal 1 -0 0
    outer loop
      vertex 55 -84 31
      vertex 55 -76 30
      vertex 55 -76 31
    endloop
  endfacet
  facet normal 1 0 0
    outer loop
      vertex 55 -76 30
      vertex 55 -84 31
      vertex 55 -84 30
    endloop
  endfacet
  facet normal 0 0 -1
    outer loop
      vertex 50 -84 30
      vertex 55 -76 30
      vertex 55 -84 30
    endloop
  endfacet
  facet normal -0 0 -1
    outer loop
      vertex 55 -76 30
      vertex 50 -84 30
      vertex 50 -76 30
    endloop
  endfacet
  facet normal 0 -1 0
    outer loop
      vertex 50 -84 30
      vertex 55 -84 31
      vertex 50 -84 31
    endloop
  endfacet
  facet normal 0 -1 -0
    outer loop
      vertex 55 -84 31
      vertex 50 -84 30
      vertex 55 -84 30
    endloop
  endfacet
  facet normal 0 1 -0
    outer loop
      vertex 55 -76 30
      vertex 50 -76 31
      vertex 55 -76 31
    endloop
  endfacet
  facet normal 0 1 0
    outer loop
      vertex 50 -76 31
      vertex 55 -76 30
      vertex 50 -76 30
    endloop
  endfacet
  facet normal -0 0 1
    outer loop
      vertex 50 -76 21
      vertex 55 -84 21
      vertex 55 -76 21
    endloop
  endfacet
  facet normal 0 0 1
    outer loop
      vertex 55 -84 21
      vertex 50 -76 21
      vertex 50 -84 21
    endloop
  endfacet
  facet normal 1 -0 0
    outer loop
      vertex 55 -84 21
      vertex 55 -76 20
      vertex 55 -76 21
    endloop
  endfacet
  facet normal 1 0 0
    outer loop
      vertex 55 -76 20
      vertex 55 -84 21
      vertex 55 -84 20
    endloop
  endfacet
  facet normal 0 1 -0
    outer loop
      vertex 55 -76 20
      vertex 50 -76 21
      vertex 55 -76 21
    endloop
  endfacet
  facet normal 0 1 0
    outer loop
      vertex 50 -76 21
      vertex 55 -76 20
      vertex 50 -76 20
    endloop
  endfacet
  facet normal 0 0 -1
    outer loop
      vertex 50 -84 20
      vertex 55 -76 20
      vertex 55 -84 20
    endloop
  endfacet
  facet normal -0 0 -1
    outer loop
      vertex 55 -76 20
      vertex 50 -84 20
      vertex 50 -76 20
    endloop
  endfacet
  facet normal 0 -1 0
    outer loop
      vertex 50 -84 20
      vertex 55 -84 21
      vertex 50 -84 21
    endloop
  endfacet
  facet normal 0 -1 -0
    outer loop
      vertex 55 -84 21
      vertex 50 -84 20
      vertex 55 -84 20
    endloop
  endfacet
endsolid OpenSCAD_Model
